#N canvas 114 726 629 354 10;
#X obj 80 239 hradio 15 1 0 4 empty empty empty 0 -8 0 10 -262144 -1
-1 0;
#X obj 98 139 bng 15 250 50 0 empty empty empty 17 7 0 10 -262144 -1
-1;
#X obj 80 197 prob;
#C restore;
#X text 114 197 last 4 steps \, last 8 steps \, whole 16;
#X obj 97 218 bng 15 250 50 0 empty empty empty 17 7 0 10 -262144 -1
-1;
#X text 40 198 LENGTH;
#X text 10 105 3: 16 steps;
#X text 16 90 2: 8 steps;
#X text 16 75 1: 4 steps;
#X text 16 60 0: nothing;
#X obj 116 138 inlet;
#X obj 80 284 s ad_drop_length;
#X msg 80 62 0 0 25 \, 0 1 45 \, 0 2 20 \, 0 3 10 \, 1 0 25 \, 1 1
30 \, 1 2 37 \, 1 3 8 \, 2 0 15 \, 2 1 35 \, 2 2 28 \, 2 3 22 \, 3
0 40 \, 3 1 25 \, 3 2 22 \, 3 3 13, f 31;
#X text 296 60 0: nothing;
#X text 302 75 1: 4 bars;
#X text 302 90 2: 8 bars;
#X obj 360 187 prob;
#C restore;
#X obj 360 229 hradio 15 1 0 3 empty empty empty 0 -8 0 10 -262144
-1 -1 1;
#X obj 377 208 bng 15 250 50 0 empty empty empty 17 7 0 10 -262144
-1 -1;
#X obj 406 286 s ad_long_drop_length;
#X obj 230 6 ../../../LOAD 1000 1550;
#X obj 378 129 bng 15 250 50 0 empty empty empty 17 7 0 10 -262144
-1 -1;
#X obj 396 128 inlet;
#X obj 360 249 moses 0;
#X msg 360 62 0 0 60 \, 0 1 25 \, 0 2 15 \, 1 0 35 \, 1 1 40 \, 1 2
25 \, 2 0 30 \, 2 1 35 \, 2 2 35, f 24;
#X obj 346 306 s raw_ad_long_drop_length;
#X msg 176 245 3;
#N canvas 4 105 557 469 debugging 0;
#X obj 57 27 r beatcount;
#X obj 57 82 spigot, f 14;
#X obj 152 22 r 16cue;
#X obj 152 47 == 15;
#X obj 57 107 list append;
#X obj 57 132 t l b;
#X obj 57 187 list append;
#X obj 92 157 array get autodrops;
#X obj 225 25 r 16cue;
#X obj 225 50 == 0;
#X obj 182 84 spigot;
#X obj 182 109 t f b;
#X obj 182 134 list append;
#X obj 63 277 r beatcount;
#X obj 63 332 spigot, f 14;
#X obj 158 272 r 16cue;
#X obj 158 297 == 15;
#X obj 63 357 t b b, f 27;
#X obj 63 382 array get midi_mutes_LHS;
#X obj 249 382 array get midi_mutes_LHS;
#X obj 63 407 list append;
#X obj 89 51 moses 2;
#X obj 63 302 sel 11 15;
#X obj 304 34 r 16cue;
#X obj 282 174 array get autodrops;
#X obj 254 108 symbol new-bar;
#X obj 358 147 bng 15 250 50 0 empty empty empty 17 7 0 10 -262144
-1 -1;
#X obj 304 59 sel 2;
#X obj 57 212 print;
#X obj 63 432 print mutes;
#X obj 282 199 print autodrops;
#X text 105 250 DEBUGGING DROP BEHAVIOUR;
#X obj 298 242 r 16cue;
#X obj 298 267 sel 0;
#X obj 298 292 print ---------------------------;
#X connect 0 0 1 0;
#X connect 0 0 21 0;
#X connect 1 0 4 0;
#X connect 2 0 3 0;
#X connect 3 0 1 1;
#X connect 4 0 5 0;
#X connect 5 0 6 0;
#X connect 5 1 7 0;
#X connect 7 0 6 1;
#X connect 8 0 9 0;
#X connect 9 0 10 1;
#X connect 10 0 11 0;
#X connect 11 0 12 0;
#X connect 11 1 25 0;
#X connect 12 0 5 0;
#X connect 13 0 22 0;
#X connect 14 0 17 0;
#X connect 15 0 16 0;
#X connect 16 0 14 1;
#X connect 17 0 18 0;
#X connect 17 1 19 0;
#X connect 18 0 20 0;
#X connect 19 0 20 1;
#X connect 21 0 10 0;
#X connect 22 0 14 0;
#X connect 22 1 14 0;
#X connect 23 0 27 0;
#X connect 25 0 12 1;
#X connect 26 0 24 0;
#X connect 27 0 24 0;
#X connect 32 0 33 0;
#X restore 67 7 pd debugging;
#X msg 446 234 2;
#X connect 0 0 11 0;
#X connect 1 0 2 0;
#X connect 2 0 0 0;
#X connect 4 0 0 0;
#X connect 10 0 2 0;
#X connect 10 0 26 0;
#X connect 12 0 2 0;
#X connect 16 0 17 0;
#X connect 17 0 23 0;
#X connect 17 0 25 0;
#X connect 18 0 17 0;
#X connect 20 0 12 0;
#X connect 20 0 24 0;
#X connect 21 0 16 0;
#X connect 22 0 16 0;
#X connect 22 0 28 0;
#X connect 23 1 19 0;
#X connect 24 0 16 0;
