#N canvas 38 90 1658 529 12;
#X obj 22 39 notein 17;
#X obj 22 64 stripnote;
#X obj 22 89 route 19 29 39 49 59 69 79 89;
#X obj 222 113 spigot;
#X obj 261 89 r s\$1.\$2;
#X obj 254 168 t f f, f 8;
#X obj 307 193 / 10;
#X obj 307 218 i;
#X obj 254 193 % 10;
#X obj 254 243 pack f f;
#X obj 282 34 stripnote;
#X obj 282 59 route 19 29 39 49 59 69 79 89;
#X obj 482 113 spigot;
#X obj 521 89 r s\$1.\$2;
#X obj 514 168 t f f, f 8;
#X obj 567 193 / 10;
#X obj 567 218 i;
#X obj 514 193 % 10;
#X obj 514 243 pack f f;
#X obj 282 9 notein 33;
#N canvas 0 50 450 250 (subpatch) 0;
#X array cp_modulation_\$1 16 float 3;
#A 0 0 0 0 0 0 0 0 0 0 0 0 0 0 0 0 0;
#X coords 0 9 16 -9 200 65 1 0 0;
#X restore 604 31 graph;
#X obj 254 218 - 1;
#X obj 254 268 route 0 1 2 3 4 5 6 7;
#X obj 254 302 column_cpmod \$1 0;
#X obj 272 326 column_cpmod \$1 1;
#X obj 290 352 column_cpmod \$1 2;
#X obj 308 376 column_cpmod \$1 3;
#X obj 325 402 column_cpmod \$1 4;
#X obj 343 426 column_cpmod \$1 5;
#X obj 361 452 column_cpmod \$1 6;
#X obj 379 476 column_cpmod \$1 7;
#X obj 514 268 route 0 1 2 3 4 5 6 7;
#X obj 514 218 - 1;
#X obj 514 302 column_cpmod \$1 8;
#X obj 532 326 column_cpmod \$1 9;
#X obj 550 352 column_cpmod \$1 10;
#X obj 568 376 column_cpmod \$1 11;
#X obj 585 402 column_cpmod \$1 12;
#X obj 603 426 column_cpmod \$1 13;
#X obj 621 452 column_cpmod \$1 14;
#X obj 639 476 column_cpmod \$1 15;
#X obj 812 64 stripnote;
#X obj 812 89 route 19 29 39 49 59 69 79 89;
#X obj 1012 113 spigot;
#X obj 1100 168 t f f, f 8;
#X obj 1153 193 / 10;
#X obj 1153 218 i;
#X obj 1100 193 % 10;
#X obj 1100 243 pack f f;
#X obj 1072 34 stripnote;
#X obj 1072 59 route 19 29 39 49 59 69 79 89;
#X obj 1272 113 spigot;
#X obj 1366 168 t f f, f 8;
#X obj 1419 193 / 10;
#X obj 1419 218 i;
#X obj 1366 193 % 10;
#X obj 1366 243 pack f f;
#X obj 1100 218 - 1;
#X obj 1100 268 route 0 1 2 3 4 5 6 7;
#X obj 1100 302 column_cpmod \$1 0;
#X obj 1118 326 column_cpmod \$1 1;
#X obj 1136 352 column_cpmod \$1 2;
#X obj 1154 376 column_cpmod \$1 3;
#X obj 1171 402 column_cpmod \$1 4;
#X obj 1189 426 column_cpmod \$1 5;
#X obj 1207 452 column_cpmod \$1 6;
#X obj 1225 476 column_cpmod \$1 7;
#X obj 1366 268 route 0 1 2 3 4 5 6 7;
#X obj 1366 218 - 1;
#X obj 1366 302 column_cpmod \$1 8;
#X obj 1384 326 column_cpmod \$1 9;
#X obj 1402 352 column_cpmod \$1 10;
#X obj 1420 376 column_cpmod \$1 11;
#X obj 1437 402 column_cpmod \$1 12;
#X obj 1455 426 column_cpmod \$1 13;
#X obj 1473 452 column_cpmod \$1 14;
#X obj 1491 476 column_cpmod \$1 15;
#X obj 1051 89 r s\$1.\$2_2;
#X obj 1311 89 r s\$1.\$2_2;
#X obj 812 39 notein 113;
#X obj 1072 9 notein 129;
#X obj 602 213 write_view_colour \$1 \$2 58;
#N canvas 167 76 1235 586 frontend 1;
#X obj 420 119 t f f;
#X obj 153 94 counter 0 7;
#X obj 153 119 t f f;
#X obj 420 94 counter 8 15;
#X obj 185 144 tabread cp_modulation_\$1;
#X obj 452 145 tabread cp_modulation_\$1;
#X obj 185 169 t f f, f 8;
#X obj 185 194 pack f f;
#X msg 185 244 20, f 2;
#X msg 213 244 30, f 2;
#X msg 242 244 40, f 2;
#X msg 270 244 50, f 2;
#X msg 299 244 60, f 2;
#X msg 327 244 70, f 2;
#X msg 356 244 80, f 2;
#X obj 153 312 expr $f1 + $f2;
#X obj 153 144 + 1;
#X obj 420 144 - 7;
#X obj 9 43 metro 15;
#X obj 153 5 r cp_modulator_fe\$1;
#X obj 11 9 bng 15 250 50 0 empty empty empty 17 7 0 10 -262144 -1
-1;
#N canvas 0 65 1920 1015 make_colours 0;
#X obj 12 33 inlet;
#X obj 72 553 inlet;
#X obj 12 83 moses 30, f 37;
#X obj 268 108 moses 40, f 33;
#X msg 12 133 20 30 40 50 60 70 80;
#X obj 12 216 list-emath +;
#X msg 62 183 \$1 \$1 \$1 \$1 \$1 \$1 \$1;
#X obj 62 158 % 10;
#X msg 114 216 7 7 7 126 0 0 0;
#X obj 12 245 zl lace, f 15;
#X obj 12 270 zl iter 2;
#X obj 12 108 t b f b, f 15;
#X obj 496 506 s s\$1_m2a_tognote;
#X msg 268 163 20 30 40 50 60 70 80;
#X obj 268 246 list-emath +;
#X msg 318 213 \$1 \$1 \$1 \$1 \$1 \$1 \$1;
#X obj 318 188 % 10;
#X obj 268 275 zl lace, f 15;
#X obj 268 300 zl iter 2;
#X obj 268 138 t b f b, f 15;
#X msg 370 246 0 7 7 126 0 0 0;
#X msg 724 215 20 30 40 50 60 70 80;
#X obj 724 298 list-emath +;
#X msg 774 265 \$1 \$1 \$1 \$1 \$1 \$1 \$1;
#X obj 774 240 % 10;
#X obj 724 327 zl lace, f 15;
#X obj 724 352 zl iter 2;
#X obj 724 190 t b f b, f 15;
#X msg 973 240 20 30 40 50 60 70 80;
#X obj 973 323 list-emath +;
#X msg 1023 290 \$1 \$1 \$1 \$1 \$1 \$1 \$1;
#X obj 1023 265 % 10;
#X obj 973 352 zl lace, f 15;
#X obj 973 377 zl iter 2;
#X obj 973 215 t b f b, f 15;
#X msg 1222 270 20 30 40 50 60 70 80;
#X obj 1222 353 list-emath +;
#X msg 1272 320 \$1 \$1 \$1 \$1 \$1 \$1 \$1;
#X obj 1272 295 % 10;
#X obj 1222 382 zl lace, f 15;
#X obj 1222 407 zl iter 2;
#X obj 1222 245 t b f b, f 15;
#X msg 1450 270 20 30 40 50 60 70 80;
#X obj 1450 353 list-emath +;
#X msg 1500 320 \$1 \$1 \$1 \$1 \$1 \$1 \$1;
#X obj 1500 295 % 10;
#X obj 1450 382 zl lace, f 15;
#X obj 1450 407 zl iter 2;
#X obj 1450 245 t b f b, f 15;
#X msg 1075 323 0 0 0 126 19 0 0;
#X msg 1324 353 0 0 0 126 19 19 0;
#X msg 1552 353 0 0 0 126 19 19 19;
#X obj 724 166 moses 60, f 36;
#X obj 973 191 moses 70, f 36;
#X obj 1222 221 moses 80, f 33;
#X msg 496 193 20 30 40 50 60 70 80;
#X obj 496 276 list-emath +;
#X msg 546 243 \$1 \$1 \$1 \$1 \$1 \$1 \$1;
#X obj 546 218 % 10;
#X obj 496 305 zl lace, f 15;
#X obj 496 330 zl iter 2;
#X obj 496 168 t b f b, f 15;
#X obj 496 138 moses 50, f 33;
#X msg 598 276 0 0 7 126 0 0 0;
#X msg 826 298 0 0 0 126 0 0 0;
#X obj 12 593 moses 30, f 37;
#X obj 268 618 moses 40, f 33;
#X msg 12 643 20 30 40 50 60 70 80;
#X obj 12 726 list-emath +;
#X msg 62 693 \$1 \$1 \$1 \$1 \$1 \$1 \$1;
#X obj 62 668 % 10;
#X msg 114 726 7 7 7 126 0 0 0;
#X obj 12 755 zl lace, f 15;
#X obj 12 780 zl iter 2;
#X obj 12 618 t b f b, f 15;
#X msg 268 673 20 30 40 50 60 70 80;
#X obj 268 756 list-emath +;
#X msg 318 723 \$1 \$1 \$1 \$1 \$1 \$1 \$1;
#X obj 318 698 % 10;
#X obj 268 785 zl lace, f 15;
#X obj 268 810 zl iter 2;
#X obj 268 648 t b f b, f 15;
#X msg 370 756 0 7 7 126 0 0 0;
#X msg 724 725 20 30 40 50 60 70 80;
#X obj 724 808 list-emath +;
#X msg 774 775 \$1 \$1 \$1 \$1 \$1 \$1 \$1;
#X obj 774 750 % 10;
#X obj 724 837 zl lace, f 15;
#X obj 724 862 zl iter 2;
#X obj 724 700 t b f b, f 15;
#X msg 973 750 20 30 40 50 60 70 80;
#X obj 973 833 list-emath +;
#X msg 1023 800 \$1 \$1 \$1 \$1 \$1 \$1 \$1;
#X obj 1023 775 % 10;
#X obj 973 862 zl lace, f 15;
#X obj 973 887 zl iter 2;
#X obj 973 725 t b f b, f 15;
#X msg 1222 780 20 30 40 50 60 70 80;
#X obj 1222 863 list-emath +;
#X msg 1272 830 \$1 \$1 \$1 \$1 \$1 \$1 \$1;
#X obj 1272 805 % 10;
#X obj 1222 892 zl lace, f 15;
#X obj 1222 917 zl iter 2;
#X obj 1222 755 t b f b, f 15;
#X msg 1450 780 20 30 40 50 60 70 80;
#X obj 1450 863 list-emath +;
#X msg 1500 830 \$1 \$1 \$1 \$1 \$1 \$1 \$1;
#X obj 1500 805 % 10;
#X obj 1450 892 zl lace, f 15;
#X obj 1450 917 zl iter 2;
#X obj 1450 755 t b f b, f 15;
#X msg 1075 833 0 0 0 126 19 0 0;
#X msg 1324 863 0 0 0 126 19 19 0;
#X msg 1552 863 0 0 0 126 19 19 19;
#X obj 724 676 moses 60, f 36;
#X obj 973 701 moses 70, f 36;
#X obj 1222 731 moses 80, f 33;
#X msg 496 703 20 30 40 50 60 70 80;
#X obj 496 786 list-emath +;
#X msg 546 753 \$1 \$1 \$1 \$1 \$1 \$1 \$1;
#X obj 546 728 % 10;
#X obj 496 815 zl lace, f 15;
#X obj 496 840 zl iter 2;
#X obj 496 678 t b f b, f 15;
#X obj 496 648 moses 50, f 33;
#X msg 598 786 0 0 7 126 0 0 0;
#X msg 826 808 0 0 0 126 0 0 0;
#X obj 496 1016 s s\$1_m2b_tognote;
#X obj 152 1043 inlet;
#X obj 212 1563 inlet;
#X obj 152 1093 moses 30, f 37;
#X obj 408 1118 moses 40, f 33;
#X msg 152 1143 20 30 40 50 60 70 80;
#X obj 152 1226 list-emath +;
#X msg 202 1193 \$1 \$1 \$1 \$1 \$1 \$1 \$1;
#X obj 202 1168 % 10;
#X msg 254 1226 7 7 7 126 0 0 0;
#X obj 152 1255 zl lace, f 15;
#X obj 152 1280 zl iter 2;
#X obj 152 1118 t b f b, f 15;
#X msg 408 1173 20 30 40 50 60 70 80;
#X obj 408 1256 list-emath +;
#X msg 458 1223 \$1 \$1 \$1 \$1 \$1 \$1 \$1;
#X obj 458 1198 % 10;
#X obj 408 1285 zl lace, f 15;
#X obj 408 1310 zl iter 2;
#X obj 408 1148 t b f b, f 15;
#X msg 510 1256 0 7 7 126 0 0 0;
#X msg 864 1225 20 30 40 50 60 70 80;
#X obj 864 1308 list-emath +;
#X msg 914 1275 \$1 \$1 \$1 \$1 \$1 \$1 \$1;
#X obj 914 1250 % 10;
#X obj 864 1337 zl lace, f 15;
#X obj 864 1362 zl iter 2;
#X obj 864 1200 t b f b, f 15;
#X msg 1113 1250 20 30 40 50 60 70 80;
#X obj 1113 1333 list-emath +;
#X msg 1163 1300 \$1 \$1 \$1 \$1 \$1 \$1 \$1;
#X obj 1163 1275 % 10;
#X obj 1113 1362 zl lace, f 15;
#X obj 1113 1387 zl iter 2;
#X obj 1113 1225 t b f b, f 15;
#X msg 1362 1280 20 30 40 50 60 70 80;
#X obj 1362 1363 list-emath +;
#X msg 1412 1330 \$1 \$1 \$1 \$1 \$1 \$1 \$1;
#X obj 1412 1305 % 10;
#X obj 1362 1392 zl lace, f 15;
#X obj 1362 1417 zl iter 2;
#X obj 1362 1255 t b f b, f 15;
#X msg 1590 1280 20 30 40 50 60 70 80;
#X obj 1590 1363 list-emath +;
#X msg 1640 1330 \$1 \$1 \$1 \$1 \$1 \$1 \$1;
#X obj 1640 1305 % 10;
#X obj 1590 1392 zl lace, f 15;
#X obj 1590 1417 zl iter 2;
#X obj 1590 1255 t b f b, f 15;
#X msg 1215 1333 0 0 0 126 19 0 0;
#X msg 1464 1363 0 0 0 126 19 19 0;
#X msg 1692 1363 0 0 0 126 19 19 19;
#X obj 864 1176 moses 60, f 36;
#X obj 1113 1201 moses 70, f 36;
#X obj 1362 1231 moses 80, f 33;
#X msg 636 1203 20 30 40 50 60 70 80;
#X obj 636 1286 list-emath +;
#X msg 686 1253 \$1 \$1 \$1 \$1 \$1 \$1 \$1;
#X obj 686 1228 % 10;
#X obj 636 1315 zl lace, f 15;
#X obj 636 1340 zl iter 2;
#X obj 636 1178 t b f b, f 15;
#X obj 636 1148 moses 50, f 33;
#X msg 738 1286 0 0 7 126 0 0 0;
#X msg 966 1308 0 0 0 126 0 0 0;
#X obj 152 1603 moses 30, f 37;
#X obj 408 1628 moses 40, f 33;
#X msg 152 1653 20 30 40 50 60 70 80;
#X obj 152 1736 list-emath +;
#X msg 202 1703 \$1 \$1 \$1 \$1 \$1 \$1 \$1;
#X obj 202 1678 % 10;
#X msg 254 1736 7 7 7 126 0 0 0;
#X obj 152 1765 zl lace, f 15;
#X obj 152 1790 zl iter 2;
#X obj 152 1628 t b f b, f 15;
#X msg 408 1683 20 30 40 50 60 70 80;
#X obj 408 1766 list-emath +;
#X msg 458 1733 \$1 \$1 \$1 \$1 \$1 \$1 \$1;
#X obj 458 1708 % 10;
#X obj 408 1795 zl lace, f 15;
#X obj 408 1820 zl iter 2;
#X obj 408 1658 t b f b, f 15;
#X msg 510 1766 0 7 7 126 0 0 0;
#X msg 864 1735 20 30 40 50 60 70 80;
#X obj 864 1818 list-emath +;
#X msg 914 1785 \$1 \$1 \$1 \$1 \$1 \$1 \$1;
#X obj 914 1760 % 10;
#X obj 864 1847 zl lace, f 15;
#X obj 864 1872 zl iter 2;
#X obj 864 1710 t b f b, f 15;
#X msg 1113 1760 20 30 40 50 60 70 80;
#X obj 1113 1843 list-emath +;
#X msg 1163 1810 \$1 \$1 \$1 \$1 \$1 \$1 \$1;
#X obj 1163 1785 % 10;
#X obj 1113 1872 zl lace, f 15;
#X obj 1113 1897 zl iter 2;
#X obj 1113 1735 t b f b, f 15;
#X msg 1362 1790 20 30 40 50 60 70 80;
#X obj 1362 1873 list-emath +;
#X msg 1412 1840 \$1 \$1 \$1 \$1 \$1 \$1 \$1;
#X obj 1412 1815 % 10;
#X obj 1362 1902 zl lace, f 15;
#X obj 1362 1927 zl iter 2;
#X obj 1362 1765 t b f b, f 15;
#X msg 1590 1790 20 30 40 50 60 70 80;
#X obj 1590 1873 list-emath +;
#X msg 1640 1840 \$1 \$1 \$1 \$1 \$1 \$1 \$1;
#X obj 1640 1815 % 10;
#X obj 1590 1902 zl lace, f 15;
#X obj 1590 1927 zl iter 2;
#X obj 1590 1765 t b f b, f 15;
#X msg 1215 1843 0 0 0 126 19 0 0;
#X msg 1464 1873 0 0 0 126 19 19 0;
#X msg 1692 1873 0 0 0 126 19 19 19;
#X obj 864 1686 moses 60, f 36;
#X obj 1113 1711 moses 70, f 36;
#X obj 1362 1741 moses 80, f 33;
#X msg 636 1713 20 30 40 50 60 70 80;
#X obj 636 1796 list-emath +;
#X msg 686 1763 \$1 \$1 \$1 \$1 \$1 \$1 \$1;
#X obj 686 1738 % 10;
#X obj 636 1825 zl lace, f 15;
#X obj 636 1850 zl iter 2;
#X obj 636 1688 t b f b, f 15;
#X obj 636 1658 moses 50, f 33;
#X msg 738 1796 0 0 7 126 0 0 0;
#X msg 966 1818 0 0 0 126 0 0 0;
#X obj 636 1516 s s\$1_m2a_tognote_2;
#X obj 636 2026 s s\$1_m2b_tognote_2;
#X connect 0 0 2 0;
#X connect 1 0 65 0;
#X connect 2 0 11 0;
#X connect 2 1 3 0;
#X connect 3 0 19 0;
#X connect 3 1 62 0;
#X connect 4 0 5 0;
#X connect 5 0 9 0;
#X connect 6 0 5 1;
#X connect 7 0 6 0;
#X connect 8 0 9 1;
#X connect 9 0 10 0;
#X connect 10 0 12 0;
#X connect 11 0 4 0;
#X connect 11 1 7 0;
#X connect 11 2 8 0;
#X connect 13 0 14 0;
#X connect 14 0 17 0;
#X connect 15 0 14 1;
#X connect 16 0 15 0;
#X connect 17 0 18 0;
#X connect 18 0 12 0;
#X connect 19 0 13 0;
#X connect 19 1 16 0;
#X connect 19 2 20 0;
#X connect 20 0 17 1;
#X connect 21 0 22 0;
#X connect 22 0 25 0;
#X connect 23 0 22 1;
#X connect 24 0 23 0;
#X connect 25 0 26 0;
#X connect 26 0 12 0;
#X connect 27 0 21 0;
#X connect 27 1 24 0;
#X connect 27 2 64 0;
#X connect 28 0 29 0;
#X connect 29 0 32 0;
#X connect 30 0 29 1;
#X connect 31 0 30 0;
#X connect 32 0 33 0;
#X connect 33 0 12 0;
#X connect 34 0 28 0;
#X connect 34 1 31 0;
#X connect 34 2 49 0;
#X connect 35 0 36 0;
#X connect 36 0 39 0;
#X connect 37 0 36 1;
#X connect 38 0 37 0;
#X connect 39 0 40 0;
#X connect 40 0 12 0;
#X connect 41 0 35 0;
#X connect 41 1 38 0;
#X connect 41 2 50 0;
#X connect 42 0 43 0;
#X connect 43 0 46 0;
#X connect 44 0 43 1;
#X connect 45 0 44 0;
#X connect 46 0 47 0;
#X connect 47 0 12 0;
#X connect 48 0 42 0;
#X connect 48 1 45 0;
#X connect 48 2 51 0;
#X connect 49 0 32 1;
#X connect 50 0 39 1;
#X connect 51 0 46 1;
#X connect 52 0 27 0;
#X connect 52 1 53 0;
#X connect 53 0 34 0;
#X connect 53 1 54 0;
#X connect 54 0 41 0;
#X connect 54 1 48 0;
#X connect 55 0 56 0;
#X connect 56 0 59 0;
#X connect 57 0 56 1;
#X connect 58 0 57 0;
#X connect 59 0 60 0;
#X connect 60 0 12 0;
#X connect 61 0 55 0;
#X connect 61 1 58 0;
#X connect 61 2 63 0;
#X connect 62 0 61 0;
#X connect 62 1 52 0;
#X connect 63 0 59 1;
#X connect 64 0 25 1;
#X connect 65 0 74 0;
#X connect 65 1 66 0;
#X connect 66 0 81 0;
#X connect 66 1 124 0;
#X connect 67 0 68 0;
#X connect 68 0 72 0;
#X connect 69 0 68 1;
#X connect 70 0 69 0;
#X connect 71 0 72 1;
#X connect 72 0 73 0;
#X connect 73 0 127 0;
#X connect 74 0 67 0;
#X connect 74 1 70 0;
#X connect 74 2 71 0;
#X connect 75 0 76 0;
#X connect 76 0 79 0;
#X connect 77 0 76 1;
#X connect 78 0 77 0;
#X connect 79 0 80 0;
#X connect 80 0 127 0;
#X connect 81 0 75 0;
#X connect 81 1 78 0;
#X connect 81 2 82 0;
#X connect 82 0 79 1;
#X connect 83 0 84 0;
#X connect 84 0 87 0;
#X connect 85 0 84 1;
#X connect 86 0 85 0;
#X connect 87 0 88 0;
#X connect 88 0 127 0;
#X connect 89 0 83 0;
#X connect 89 1 86 0;
#X connect 89 2 126 0;
#X connect 90 0 91 0;
#X connect 91 0 94 0;
#X connect 92 0 91 1;
#X connect 93 0 92 0;
#X connect 94 0 95 0;
#X connect 95 0 127 0;
#X connect 96 0 90 0;
#X connect 96 1 93 0;
#X connect 96 2 111 0;
#X connect 97 0 98 0;
#X connect 98 0 101 0;
#X connect 99 0 98 1;
#X connect 100 0 99 0;
#X connect 101 0 102 0;
#X connect 102 0 127 0;
#X connect 103 0 97 0;
#X connect 103 1 100 0;
#X connect 103 2 112 0;
#X connect 104 0 105 0;
#X connect 105 0 108 0;
#X connect 106 0 105 1;
#X connect 107 0 106 0;
#X connect 108 0 109 0;
#X connect 109 0 127 0;
#X connect 110 0 104 0;
#X connect 110 1 107 0;
#X connect 110 2 113 0;
#X connect 111 0 94 1;
#X connect 112 0 101 1;
#X connect 113 0 108 1;
#X connect 114 0 89 0;
#X connect 114 1 115 0;
#X connect 115 0 96 0;
#X connect 115 1 116 0;
#X connect 116 0 103 0;
#X connect 116 1 110 0;
#X connect 117 0 118 0;
#X connect 118 0 121 0;
#X connect 119 0 118 1;
#X connect 120 0 119 0;
#X connect 121 0 122 0;
#X connect 122 0 127 0;
#X connect 123 0 117 0;
#X connect 123 1 120 0;
#X connect 123 2 125 0;
#X connect 124 0 123 0;
#X connect 124 1 114 0;
#X connect 125 0 121 1;
#X connect 126 0 87 1;
#X connect 128 0 130 0;
#X connect 129 0 192 0;
#X connect 130 0 139 0;
#X connect 130 1 131 0;
#X connect 131 0 146 0;
#X connect 131 1 189 0;
#X connect 132 0 133 0;
#X connect 133 0 137 0;
#X connect 134 0 133 1;
#X connect 135 0 134 0;
#X connect 136 0 137 1;
#X connect 137 0 138 0;
#X connect 138 0 254 0;
#X connect 139 0 132 0;
#X connect 139 1 135 0;
#X connect 139 2 136 0;
#X connect 140 0 141 0;
#X connect 141 0 144 0;
#X connect 142 0 141 1;
#X connect 143 0 142 0;
#X connect 144 0 145 0;
#X connect 145 0 254 0;
#X connect 146 0 140 0;
#X connect 146 1 143 0;
#X connect 146 2 147 0;
#X connect 147 0 144 1;
#X connect 148 0 149 0;
#X connect 149 0 152 0;
#X connect 150 0 149 1;
#X connect 151 0 150 0;
#X connect 152 0 153 0;
#X connect 153 0 254 0;
#X connect 154 0 148 0;
#X connect 154 1 151 0;
#X connect 154 2 191 0;
#X connect 155 0 156 0;
#X connect 156 0 159 0;
#X connect 157 0 156 1;
#X connect 158 0 157 0;
#X connect 159 0 160 0;
#X connect 160 0 254 0;
#X connect 161 0 155 0;
#X connect 161 1 158 0;
#X connect 161 2 176 0;
#X connect 162 0 163 0;
#X connect 163 0 166 0;
#X connect 164 0 163 1;
#X connect 165 0 164 0;
#X connect 166 0 167 0;
#X connect 167 0 254 0;
#X connect 168 0 162 0;
#X connect 168 1 165 0;
#X connect 168 2 177 0;
#X connect 169 0 170 0;
#X connect 170 0 173 0;
#X connect 171 0 170 1;
#X connect 172 0 171 0;
#X connect 173 0 174 0;
#X connect 174 0 254 0;
#X connect 175 0 169 0;
#X connect 175 1 172 0;
#X connect 175 2 178 0;
#X connect 176 0 159 1;
#X connect 177 0 166 1;
#X connect 178 0 173 1;
#X connect 179 0 154 0;
#X connect 179 1 180 0;
#X connect 180 0 161 0;
#X connect 180 1 181 0;
#X connect 181 0 168 0;
#X connect 181 1 175 0;
#X connect 182 0 183 0;
#X connect 183 0 186 0;
#X connect 184 0 183 1;
#X connect 185 0 184 0;
#X connect 186 0 187 0;
#X connect 187 0 254 0;
#X connect 188 0 182 0;
#X connect 188 1 185 0;
#X connect 188 2 190 0;
#X connect 189 0 188 0;
#X connect 189 1 179 0;
#X connect 190 0 186 1;
#X connect 191 0 152 1;
#X connect 192 0 201 0;
#X connect 192 1 193 0;
#X connect 193 0 208 0;
#X connect 193 1 251 0;
#X connect 194 0 195 0;
#X connect 195 0 199 0;
#X connect 196 0 195 1;
#X connect 197 0 196 0;
#X connect 198 0 199 1;
#X connect 199 0 200 0;
#X connect 200 0 255 0;
#X connect 201 0 194 0;
#X connect 201 1 197 0;
#X connect 201 2 198 0;
#X connect 202 0 203 0;
#X connect 203 0 206 0;
#X connect 204 0 203 1;
#X connect 205 0 204 0;
#X connect 206 0 207 0;
#X connect 207 0 255 0;
#X connect 208 0 202 0;
#X connect 208 1 205 0;
#X connect 208 2 209 0;
#X connect 209 0 206 1;
#X connect 210 0 211 0;
#X connect 211 0 214 0;
#X connect 212 0 211 1;
#X connect 213 0 212 0;
#X connect 214 0 215 0;
#X connect 215 0 255 0;
#X connect 216 0 210 0;
#X connect 216 1 213 0;
#X connect 216 2 253 0;
#X connect 217 0 218 0;
#X connect 218 0 221 0;
#X connect 219 0 218 1;
#X connect 220 0 219 0;
#X connect 221 0 222 0;
#X connect 222 0 255 0;
#X connect 223 0 217 0;
#X connect 223 1 220 0;
#X connect 223 2 238 0;
#X connect 224 0 225 0;
#X connect 225 0 228 0;
#X connect 226 0 225 1;
#X connect 227 0 226 0;
#X connect 228 0 229 0;
#X connect 229 0 255 0;
#X connect 230 0 224 0;
#X connect 230 1 227 0;
#X connect 230 2 239 0;
#X connect 231 0 232 0;
#X connect 232 0 235 0;
#X connect 233 0 232 1;
#X connect 234 0 233 0;
#X connect 235 0 236 0;
#X connect 236 0 255 0;
#X connect 237 0 231 0;
#X connect 237 1 234 0;
#X connect 237 2 240 0;
#X connect 238 0 221 1;
#X connect 239 0 228 1;
#X connect 240 0 235 1;
#X connect 241 0 216 0;
#X connect 241 1 242 0;
#X connect 242 0 223 0;
#X connect 242 1 243 0;
#X connect 243 0 230 0;
#X connect 243 1 237 0;
#X connect 244 0 245 0;
#X connect 245 0 248 0;
#X connect 246 0 245 1;
#X connect 247 0 246 0;
#X connect 248 0 249 0;
#X connect 249 0 255 0;
#X connect 250 0 244 0;
#X connect 250 1 247 0;
#X connect 250 2 252 0;
#X connect 251 0 250 0;
#X connect 251 1 241 0;
#X connect 252 0 248 1;
#X connect 253 0 214 1;
#X restore 153 354 pd make_colours;
#X f 115;
#X obj 452 169 t f f, f 8;
#X obj 452 194 pack f f;
#X msg 452 244 20, f 2;
#X msg 480 244 30, f 2;
#X msg 509 244 40, f 2;
#X msg 537 244 50, f 2;
#X msg 566 244 60, f 2;
#X msg 594 244 70, f 2;
#X msg 632 244 80, f 2;
#X obj 420 312 expr $f1 + $f2;
#X obj 955 119 t f f;
#X obj 687 94 counter 0 7;
#X obj 687 119 t f f;
#X obj 955 94 counter 8 15;
#X obj 719 144 tabread cp_modulation_\$1;
#X obj 987 145 tabread cp_modulation_\$1;
#X obj 719 169 t f f, f 8;
#X obj 719 194 pack f f;
#X msg 719 244 20, f 2;
#X msg 747 244 30, f 2;
#X msg 776 244 40, f 2;
#X msg 804 244 50, f 2;
#X msg 833 244 60, f 2;
#X msg 861 244 70, f 2;
#X msg 890 244 80, f 2;
#X obj 687 312 expr $f1 + $f2;
#X obj 687 144 + 1;
#X obj 955 144 - 7;
#X obj 987 169 t f f, f 8;
#X obj 987 194 pack f f;
#X msg 987 244 20, f 2;
#X msg 1015 244 30, f 2;
#X msg 1044 244 40, f 2;
#X msg 1072 244 50, f 2;
#X msg 1101 244 60, f 2;
#X msg 1129 244 70, f 2;
#X msg 1158 244 80, f 2;
#X obj 955 312 expr $f1 + $f2;
#X obj 39 11 ../LOAD 450 300;
#X obj 9 68 s cp_modulator_fe\$1;
#X obj 153 69 spigot;
#X obj 199 47 r s\$1.\$2;
#X obj 420 64 spigot;
#X obj 466 42 r s\$1.\$2;
#X obj 955 64 spigot;
#X obj 687 64 spigot;
#X obj 733 42 r s\$1.\$2_2;
#X obj 1001 42 r s\$1.\$2_2;
#X obj 153 504 counter 0 7;
#X obj 271 504 counter 8 15;
#X obj 153 385 r cp_modulator_fe\$1;
#X obj 389 504 counter 0 7;
#X obj 507 504 counter 8 15;
#X obj 153 479 spigot;
#X obj 192 454 r s\$1.\$2;
#X obj 271 474 spigot;
#X obj 310 449 r s\$1.\$2;
#X obj 507 474 spigot;
#X obj 389 474 spigot;
#X obj 428 449 r s\$1.\$2_2;
#X obj 546 449 r s\$1.\$2_2;
#N canvas 278 79 1377 451 make_toggle_row_colours 0;
#X obj 27 12 inlet;
#X obj 327 12 inlet;
#X obj 607 12 inlet;
#X obj 907 12 inlet;
#X obj 27 39 t f f, f 8;
#X obj 80 64 tabread cpmstatus_\$1;
#X obj 80 89 sel 0 1 2 3 4, f 20;
#X msg 80 114 0, f 1;
#X obj 125 115 r togcolour;
#X obj 180 194 r MOD1colour;
#X obj 207 222 r MOD2colour;
#X obj 134 142 \$1;
#X obj 107 142 i;
#X obj 162 222 i;
#X obj 189 250 i;
#X obj 27 303 pack f f;
#X obj 27 64 + 11;
#X obj 27 328 s s\$1_m2a_tognote;
#X obj 327 39 t f f, f 8;
#X obj 380 64 tabread cpmstatus_\$1;
#X obj 380 89 sel 0 1 2 3 4, f 20;
#X msg 380 114 0, f 1;
#X obj 425 115 r togcolour;
#X obj 480 194 r MOD1colour;
#X obj 507 222 r MOD2colour;
#X obj 434 142 \$1;
#X obj 407 142 i;
#X obj 462 222 i;
#X obj 489 250 i;
#X obj 327 303 pack f f;
#X obj 607 39 t f f, f 8;
#X obj 660 64 tabread cpmstatus_\$1;
#X obj 660 89 sel 0 1 2 3 4, f 20;
#X msg 660 114 0, f 1;
#X obj 705 115 r togcolour;
#X obj 760 194 r MOD1colour;
#X obj 787 222 r MOD2colour;
#X obj 714 142 \$1;
#X obj 687 142 i;
#X obj 742 222 i;
#X obj 769 250 i;
#X obj 607 303 pack f f;
#X obj 607 64 + 11;
#X obj 907 39 t f f, f 8;
#X obj 960 64 tabread cpmstatus_\$1;
#X obj 960 89 sel 0 1 2 3 4, f 20;
#X msg 960 114 0, f 1;
#X obj 1005 115 r togcolour;
#X obj 1060 194 r MOD1colour;
#X obj 1087 222 r MOD2colour;
#X obj 1014 142 \$1;
#X obj 987 142 i;
#X obj 1042 222 i;
#X obj 1069 250 i;
#X obj 907 303 pack f f;
#X obj 327 64 + 3;
#X obj 327 328 s s\$1_m2b_tognote;
#X obj 607 328 s s\$1_m2a_tognote_2;
#X obj 907 328 s s\$1_m2b_tognote_2;
#X obj 907 64 + 3;
#X obj 434 168 ../pos_abs/chance_colour;
#X obj 714 168 ../pos_abs/chance_colour;
#X obj 1014 168 ../pos_abs/chance_colour;
#X obj 134 168 ../pos_abs/chance_colour;
#X connect 0 0 4 0;
#X connect 1 0 18 0;
#X connect 2 0 30 0;
#X connect 3 0 43 0;
#X connect 4 0 16 0;
#X connect 4 1 5 0;
#X connect 5 0 6 0;
#X connect 6 0 7 0;
#X connect 6 1 12 0;
#X connect 6 2 11 0;
#X connect 6 3 13 0;
#X connect 6 4 14 0;
#X connect 7 0 15 1;
#X connect 8 0 12 1;
#X connect 9 0 13 1;
#X connect 10 0 14 1;
#X connect 11 0 63 0;
#X connect 12 0 15 1;
#X connect 13 0 15 1;
#X connect 14 0 15 1;
#X connect 15 0 17 0;
#X connect 16 0 15 0;
#X connect 18 0 55 0;
#X connect 18 1 19 0;
#X connect 19 0 20 0;
#X connect 20 0 21 0;
#X connect 20 1 26 0;
#X connect 20 2 25 0;
#X connect 20 3 27 0;
#X connect 20 4 28 0;
#X connect 21 0 29 1;
#X connect 22 0 26 1;
#X connect 23 0 27 1;
#X connect 24 0 28 1;
#X connect 25 0 60 0;
#X connect 26 0 29 1;
#X connect 27 0 29 1;
#X connect 28 0 29 1;
#X connect 29 0 56 0;
#X connect 30 0 42 0;
#X connect 30 1 31 0;
#X connect 31 0 32 0;
#X connect 32 0 33 0;
#X connect 32 1 38 0;
#X connect 32 2 37 0;
#X connect 32 3 39 0;
#X connect 32 4 40 0;
#X connect 33 0 41 1;
#X connect 34 0 38 1;
#X connect 35 0 39 1;
#X connect 36 0 40 1;
#X connect 37 0 61 0;
#X connect 38 0 41 1;
#X connect 39 0 41 1;
#X connect 40 0 41 1;
#X connect 41 0 57 0;
#X connect 42 0 41 0;
#X connect 43 0 59 0;
#X connect 43 1 44 0;
#X connect 44 0 45 0;
#X connect 45 0 46 0;
#X connect 45 1 51 0;
#X connect 45 2 50 0;
#X connect 45 3 52 0;
#X connect 45 4 53 0;
#X connect 46 0 54 1;
#X connect 47 0 51 1;
#X connect 48 0 52 1;
#X connect 49 0 53 1;
#X connect 50 0 62 0;
#X connect 51 0 54 1;
#X connect 52 0 54 1;
#X connect 53 0 54 1;
#X connect 54 0 58 0;
#X connect 55 0 29 0;
#X connect 59 0 54 0;
#X connect 60 0 29 1;
#X connect 61 0 41 1;
#X connect 62 0 54 1;
#X connect 63 0 15 1;
#X restore 153 536 pd make_toggle_row_colours;
#X f 51;
#X obj 185 219 route -8 -5 -3 0 3 5 8, f 29;
#X obj 452 219 route -8 -5 -3 0 3 5 8, f 29;
#X obj 719 219 route -8 -5 -3 0 3 5 8, f 29;
#X obj 987 219 route -8 -5 -3 0 3 5 8, f 29;
#X floatatom 596 497 5 0 0 0 - - -;
#X floatatom 456 480 5 0 0 0 - - -;
#X connect 0 0 17 0;
#X connect 0 1 5 0;
#X connect 1 0 2 0;
#X connect 2 0 16 0;
#X connect 2 1 4 0;
#X connect 3 0 0 0;
#X connect 4 0 6 0;
#X connect 5 0 22 0;
#X connect 6 0 7 0;
#X connect 6 1 7 1;
#X connect 7 0 84 0;
#X connect 8 0 15 1;
#X connect 9 0 15 1;
#X connect 10 0 15 1;
#X connect 11 0 15 1;
#X connect 12 0 15 1;
#X connect 13 0 15 1;
#X connect 14 0 15 1;
#X connect 15 0 21 0;
#X connect 16 0 15 0;
#X connect 17 0 31 0;
#X connect 18 0 61 0;
#X connect 19 0 62 0;
#X connect 19 0 64 0;
#X connect 19 0 67 0;
#X connect 19 0 66 0;
#X connect 20 0 18 0;
#X connect 22 0 23 0;
#X connect 22 1 23 1;
#X connect 23 0 85 0;
#X connect 24 0 31 1;
#X connect 25 0 31 1;
#X connect 26 0 31 1;
#X connect 27 0 31 1;
#X connect 28 0 31 1;
#X connect 29 0 31 1;
#X connect 30 0 31 1;
#X connect 31 0 21 1;
#X connect 32 0 49 0;
#X connect 32 1 37 0;
#X connect 33 0 34 0;
#X connect 34 0 48 0;
#X connect 34 1 36 0;
#X connect 35 0 32 0;
#X connect 36 0 38 0;
#X connect 37 0 50 0;
#X connect 38 0 39 0;
#X connect 38 1 39 1;
#X connect 39 0 86 0;
#X connect 40 0 47 1;
#X connect 41 0 47 1;
#X connect 42 0 47 1;
#X connect 43 0 47 1;
#X connect 44 0 47 1;
#X connect 45 0 47 1;
#X connect 46 0 47 1;
#X connect 47 0 21 2;
#X connect 48 0 47 0;
#X connect 49 0 59 0;
#X connect 50 0 51 0;
#X connect 50 1 51 1;
#X connect 51 0 87 0;
#X connect 52 0 59 1;
#X connect 53 0 59 1;
#X connect 54 0 59 1;
#X connect 55 0 59 1;
#X connect 56 0 59 1;
#X connect 57 0 59 1;
#X connect 58 0 59 1;
#X connect 59 0 21 3;
#X connect 60 0 18 0;
#X connect 62 0 1 0;
#X connect 63 0 62 1;
#X connect 64 0 3 0;
#X connect 65 0 64 1;
#X connect 66 0 35 0;
#X connect 67 0 33 0;
#X connect 68 0 67 1;
#X connect 69 0 66 1;
#X connect 70 0 83 0;
#X connect 71 0 83 1;
#X connect 72 0 75 0;
#X connect 72 0 77 0;
#X connect 72 0 80 0;
#X connect 72 0 79 0;
#X connect 73 0 83 2;
#X connect 74 0 83 3;
#X connect 75 0 70 0;
#X connect 76 0 75 1;
#X connect 77 0 71 0;
#X connect 78 0 77 1;
#X connect 79 0 74 0;
#X connect 80 0 73 0;
#X connect 81 0 80 1;
#X connect 81 0 89 0;
#X connect 82 0 79 1;
#X connect 82 0 88 0;
#X connect 84 0 8 0;
#X connect 84 1 9 0;
#X connect 84 2 10 0;
#X connect 84 3 11 0;
#X connect 84 4 12 0;
#X connect 84 5 13 0;
#X connect 84 6 14 0;
#X connect 85 0 24 0;
#X connect 85 1 25 0;
#X connect 85 2 26 0;
#X connect 85 3 27 0;
#X connect 85 4 28 0;
#X connect 85 5 29 0;
#X connect 85 6 30 0;
#X connect 86 0 40 0;
#X connect 86 1 41 0;
#X connect 86 2 42 0;
#X connect 86 3 43 0;
#X connect 86 4 44 0;
#X connect 86 5 45 0;
#X connect 86 6 46 0;
#X connect 87 0 52 0;
#X connect 87 1 53 0;
#X connect 87 2 54 0;
#X connect 87 3 55 0;
#X connect 87 4 56 0;
#X connect 87 5 57 0;
#X connect 87 6 58 0;
#X restore 694 259 pd frontend;
#X obj 164 169 t f f, f 8;
#X obj 164 244 pack f f;
#X obj 217 194 % 10;
#X obj 217 219 - 1;
#X obj 164 194 / 10;
#X obj 164 219 i;
#X obj 222 138 t f f;
#X obj 482 138 t f f;
#X obj 424 169 t f f, f 8;
#X obj 424 244 pack f f;
#X obj 477 194 % 10;
#X obj 424 194 / 10;
#X obj 424 219 i;
#X obj 164 269 route 1;
#X obj 424 269 route 1;
#X obj 477 219 + 7;
#N canvas 0 50 450 250 (subpatch) 0;
#X array cpmstatus_\$1 16 float 3;
#A 0 1 1 1 1 1 1 1 1 1 1 1 1 1 1 1 1;
#X coords 0 5 16 -1 200 65 1 0 0;
#X restore 604 121 graph;
#X obj 164 477 cpm_toggles 1 \$1;
#X obj 1012 169 t f f, f 8;
#X obj 1012 244 pack f f;
#X obj 1065 194 % 10;
#X obj 1065 219 - 1;
#X obj 1012 194 / 10;
#X obj 1012 219 i;
#X obj 1275 169 t f f, f 8;
#X obj 1275 244 pack f f;
#X obj 1328 194 % 10;
#X obj 1275 194 / 10;
#X obj 1275 219 i;
#X obj 1012 269 route 1;
#X obj 1275 269 route 1;
#X obj 1328 219 + 7;
#X obj 1012 138 t f f, f 13;
#X obj 1272 138 t f f;
#X obj 1012 478 cpm_toggles 2 \$1;
#X obj 693 285 seq_cp \$1;
#X text 765 286 BACKEND - sends cp_a\$1 and cp_b\$1;
#X connect 0 0 1 0;
#X connect 0 1 1 1;
#X connect 1 0 2 0;
#X connect 2 8 3 0;
#X connect 3 0 89 0;
#X connect 4 0 3 1;
#X connect 5 0 8 0;
#X connect 5 1 6 0;
#X connect 6 0 7 0;
#X connect 7 0 9 1;
#X connect 8 0 21 0;
#X connect 9 0 22 0;
#X connect 10 0 11 0;
#X connect 11 8 12 0;
#X connect 12 0 90 0;
#X connect 13 0 12 1;
#X connect 14 0 17 0;
#X connect 14 1 15 0;
#X connect 15 0 16 0;
#X connect 16 0 18 1;
#X connect 17 0 32 0;
#X connect 18 0 31 0;
#X connect 19 0 10 0;
#X connect 19 1 10 1;
#X connect 21 0 9 0;
#X connect 22 0 23 0;
#X connect 22 1 24 0;
#X connect 22 2 25 0;
#X connect 22 3 26 0;
#X connect 22 4 27 0;
#X connect 22 5 28 0;
#X connect 22 6 29 0;
#X connect 22 7 30 0;
#X connect 31 0 33 0;
#X connect 31 1 34 0;
#X connect 31 2 35 0;
#X connect 31 3 36 0;
#X connect 31 4 37 0;
#X connect 31 5 38 0;
#X connect 31 6 39 0;
#X connect 31 7 40 0;
#X connect 32 0 18 0;
#X connect 41 0 42 0;
#X connect 42 8 43 0;
#X connect 43 0 115 0;
#X connect 44 0 47 0;
#X connect 44 1 45 0;
#X connect 45 0 46 0;
#X connect 46 0 48 1;
#X connect 47 0 57 0;
#X connect 48 0 58 0;
#X connect 49 0 50 0;
#X connect 50 8 51 0;
#X connect 51 0 116 0;
#X connect 52 0 55 0;
#X connect 52 1 53 0;
#X connect 53 0 54 0;
#X connect 54 0 56 1;
#X connect 55 0 68 0;
#X connect 56 0 67 0;
#X connect 57 0 48 0;
#X connect 58 0 59 0;
#X connect 58 1 60 0;
#X connect 58 2 61 0;
#X connect 58 3 62 0;
#X connect 58 4 63 0;
#X connect 58 5 64 0;
#X connect 58 6 65 0;
#X connect 58 7 66 0;
#X connect 67 0 69 0;
#X connect 67 1 70 0;
#X connect 67 2 71 0;
#X connect 67 3 72 0;
#X connect 67 4 73 0;
#X connect 67 5 74 0;
#X connect 67 6 75 0;
#X connect 67 7 76 0;
#X connect 68 0 56 0;
#X connect 77 0 43 1;
#X connect 78 0 51 1;
#X connect 79 0 41 0;
#X connect 79 1 41 1;
#X connect 80 0 49 0;
#X connect 80 1 49 1;
#X connect 83 0 87 0;
#X connect 83 1 85 0;
#X connect 84 0 96 0;
#X connect 85 0 86 0;
#X connect 86 0 84 1;
#X connect 87 0 88 0;
#X connect 88 0 84 0;
#X connect 89 0 83 0;
#X connect 89 1 5 0;
#X connect 90 0 91 0;
#X connect 90 1 14 0;
#X connect 91 0 94 0;
#X connect 91 1 93 0;
#X connect 92 0 97 0;
#X connect 93 0 98 0;
#X connect 94 0 95 0;
#X connect 95 0 92 0;
#X connect 96 0 100 0;
#X connect 97 0 100 0;
#X connect 98 0 92 1;
#X connect 101 0 105 0;
#X connect 101 1 103 0;
#X connect 102 0 112 0;
#X connect 103 0 104 0;
#X connect 104 0 102 1;
#X connect 105 0 106 0;
#X connect 106 0 102 0;
#X connect 107 0 110 0;
#X connect 107 1 109 0;
#X connect 108 0 113 0;
#X connect 109 0 114 0;
#X connect 110 0 111 0;
#X connect 111 0 108 0;
#X connect 112 0 117 0;
#X connect 113 0 117 0;
#X connect 114 0 108 1;
#X connect 115 0 101 0;
#X connect 115 1 44 0;
#X connect 116 0 107 0;
#X connect 116 1 52 0;
