#N canvas 67 84 717 684 10;
#X declare -path pos_abs;
#X obj 83 12 inlet;
#X obj 128 12 declare -path pos_abs;
#X text 9 13 Trig value;
#X obj 161 165 r trigmutecolour;
#X msg 83 145 0;
#X obj 146 196 f;
#X obj 146 144 t b;
#X obj 83 87 t b;
#X obj 63 642 outlet;
#X obj 83 33 t f b, f 8;
#X text 258 15 MUTING SEQUENCERS FROM THE MIDI MIXER MEANS WE HAVE
TO TEST ON midi_mutes_LHS / RHS AND CHOOSE COLOURS APPROPRIATELY;
#X obj 129 598 mute_or_colour \$1 INVMOD16colour;
#X obj 128 436 mute_or_colour \$1 togcolour;
#X obj 128 414 mute_or_colour \$1 sust_start_colour;
#X obj 128 393 mute_or_colour \$1 sust_hold_colour;
#X obj 129 458 mute_or_colour \$1 MOD1colour;
#X obj 129 478 mute_or_colour \$1 MOD2colour;
#X obj 129 498 mute_or_colour \$1 MOD4colour;
#X obj 129 518 mute_or_colour \$1 MOD8colour;
#X obj 129 538 mute_or_colour \$1 MOD16colour;
#X obj 129 578 mute_or_colour \$1 INVMOD8colour;
#X obj 129 558 mute_or_colour \$1 INVMOD4colour;
#X obj 83 63 sel 0 1 2 3 4 5 6 7 8 9 10 11 12 13, f 75;
#X obj 128 371 mute_or_chance \$1;
#X connect 0 0 9 0;
#X connect 3 0 5 1;
#X connect 4 0 8 0;
#X connect 5 0 8 0;
#X connect 6 0 5 0;
#X connect 7 0 4 0;
#X connect 9 0 22 0;
#X connect 9 1 12 0;
#X connect 9 1 13 0;
#X connect 9 1 14 0;
#X connect 9 1 15 0;
#X connect 9 1 16 0;
#X connect 9 1 17 0;
#X connect 9 1 18 0;
#X connect 9 1 19 0;
#X connect 9 1 21 0;
#X connect 9 1 20 0;
#X connect 9 1 11 0;
#X connect 9 1 23 0;
#X connect 11 0 8 0;
#X connect 12 0 8 0;
#X connect 13 0 8 0;
#X connect 14 0 8 0;
#X connect 15 0 8 0;
#X connect 16 0 8 0;
#X connect 17 0 8 0;
#X connect 18 0 8 0;
#X connect 19 0 8 0;
#X connect 20 0 8 0;
#X connect 21 0 8 0;
#X connect 22 0 7 0;
#X connect 22 1 12 1;
#X connect 22 2 6 0;
#X connect 22 3 13 1;
#X connect 22 4 14 1;
#X connect 22 5 23 1;
#X connect 22 6 15 1;
#X connect 22 7 16 1;
#X connect 22 8 17 1;
#X connect 22 9 18 1;
#X connect 22 10 19 1;
#X connect 22 11 21 1;
#X connect 22 12 20 1;
#X connect 22 13 11 1;
#X connect 23 0 8 0;
