#N canvas 58 386 991 394 10;
#N canvas 744 397 546 371 chord_edit_arrays 0;
#N canvas 0 50 450 250 (subpatch) 0;
#X array chord_edit_2 8 float 3;
#A 0 1 0 0 1 0 1 0 1;
#X coords 0 2 8 -1 120 60 1 0 0;
#X restore 150 20 graph;
#N canvas 0 50 450 250 (subpatch) 0;
#X array chord_edit_1 8 float 3;
#A 0 1 0 0 1 0 1 0 1;
#X coords 0 2 8 -1 120 60 1 0 0;
#X restore 20 20 graph;
#N canvas 0 50 450 250 (subpatch) 0;
#X array chord_edit_4 8 float 3;
#A 0 1 0 0 1 0 1 0 1;
#X coords 0 2 8 -1 120 60 1 0 0;
#X restore 410 20 graph;
#N canvas 0 50 450 250 (subpatch) 0;
#X array chord_edit_3 8 float 3;
#A 0 1 0 0 1 0 1 0 1;
#X coords 0 2 8 -1 120 60 1 0 0;
#X restore 280 20 graph;
#N canvas 0 50 450 250 (subpatch) 0;
#X array chord_edit_6 8 float 3;
#A 0 1 0 0 1 0 1 0 1;
#X coords 0 2 8 -1 120 60 1 0 0;
#X restore 150 110 graph;
#N canvas 0 50 450 250 (subpatch) 0;
#X array chord_edit_5 8 float 3;
#A 0 1 0 0 1 0 1 0 1;
#X coords 0 2 8 -1 120 60 1 0 0;
#X restore 20 110 graph;
#N canvas 0 50 450 250 (subpatch) 0;
#X array chord_edit_10 8 float 3;
#A 0 1 0 0 1 0 1 0 1;
#X coords 0 2 8 -1 120 60 1 0 0;
#X restore 150 200 graph;
#N canvas 0 50 450 250 (subpatch) 0;
#X array chord_edit_9 8 float 3;
#A 0 1 0 0 1 0 1 0 1;
#X coords 0 2 8 -1 120 60 1 0 0;
#X restore 20 200 graph;
#N canvas 0 50 450 250 (subpatch) 0;
#X array chord_edit_12 8 float 3;
#A 0 1 0 0 1 0 1 0 1;
#X coords 0 2 8 -1 120 60 1 0 0;
#X restore 410 200 graph;
#N canvas 0 50 450 250 (subpatch) 0;
#X array chord_edit_11 8 float 3;
#A 0 1 0 0 1 0 1 0 1;
#X coords 0 2 8 -1 120 60 1 0 0;
#X restore 280 200 graph;
#N canvas 0 50 450 250 (subpatch) 0;
#X array chord_edit_14 8 float 3;
#A 0 1 0 0 1 0 1 0 1;
#X coords 0 2 8 -1 120 60 1 0 0;
#X restore 150 290 graph;
#N canvas 0 50 450 250 (subpatch) 0;
#X array chord_edit_15 8 float 3;
#A 0 1 0 0 1 0 1 0 1;
#X coords 0 2 8 -1 120 60 1 0 0;
#X restore 280 290 graph;
#N canvas 0 50 450 250 (subpatch) 0;
#X array chord_edit_7 8 float 3;
#A 0 1 0 0 1 0 1 0 1;
#X coords 0 2 8 -1 120 60 1 0 0;
#X restore 280 110 graph;
#X restore 17 152 pd chord_edit_arrays;
#X obj 17 108 route 19 29 39 49 59 69 79 89;
#X obj 17 86 spigot;
#X obj 50 64 r s\$1.\$2;
#X obj 112 86 route 19 29 39 49 59 69 79 89;
#X obj 112 64 spigot;
#X obj 145 42 r s\$1.\$2_2;
#X obj 339 108 route 19 29 39 49 59 69 79 89;
#X obj 339 86 spigot;
#X obj 372 64 r s\$1.\$2;
#X obj 434 86 route 19 29 39 49 59 69 79 89;
#X obj 437 65 spigot;
#X obj 467 42 r s\$1.\$2_2;
#N canvas 58 215 1541 769 front_end 1;
#X obj 38 90 tabread chord_edit_1;
#X obj 11 45 t f f;
#X obj 38 135 *;
#X obj 53 112 r chordedit_colour;
#X obj 11 171 pack f f;
#X obj 11 68 expr (( 8 - $f1 ) * 10 ) + 1;
#X obj 228 90 tabread chord_edit_1;
#X obj 201 45 t f f;
#X obj 228 135 *;
#X obj 243 112 r chordedit_colour;
#X obj 201 171 pack f f;
#X obj 201 68 expr (( 8 - $f1 ) * 10 ) + 1;
#X obj 11 194 s s16_m2a_tognote;
#X obj 201 194 s s16_m2a_tognote_2;
#X obj 391 45 t f f;
#X obj 418 135 *;
#X obj 433 112 r chordedit_colour;
#X obj 391 171 pack f f;
#X obj 581 45 t f f;
#X obj 608 135 *;
#X obj 623 112 r chordedit_colour;
#X obj 581 171 pack f f;
#X obj 391 194 s s16_m2a_tognote;
#X obj 581 194 s s16_m2a_tognote_2;
#X obj 418 90 tabread chord_edit_2;
#X obj 608 90 tabread chord_edit_2;
#X obj 781 45 t f f;
#X obj 808 135 *;
#X obj 823 112 r chordedit_colour;
#X obj 781 171 pack f f;
#X obj 971 45 t f f;
#X obj 998 135 *;
#X obj 1013 112 r chordedit_colour;
#X obj 971 171 pack f f;
#X obj 781 194 s s16_m2a_tognote;
#X obj 971 194 s s16_m2a_tognote_2;
#X obj 1161 45 t f f;
#X obj 1188 135 *;
#X obj 1203 112 r chordedit_colour;
#X obj 1161 171 pack f f;
#X obj 1351 45 t f f;
#X obj 1378 135 *;
#X obj 1393 112 r chordedit_colour;
#X obj 1351 171 pack f f;
#X obj 1161 194 s s16_m2a_tognote;
#X obj 1351 194 s s16_m2a_tognote_2;
#X obj 808 90 tabread chord_edit_3;
#X obj 998 90 tabread chord_edit_3;
#X obj 1188 90 tabread chord_edit_4;
#X obj 1378 90 tabread chord_edit_4;
#X obj 11 245 t f f;
#X obj 38 335 *;
#X obj 53 312 r chordedit_colour;
#X obj 11 371 pack f f;
#X obj 201 245 t f f;
#X obj 228 335 *;
#X obj 243 312 r chordedit_colour;
#X obj 201 371 pack f f;
#X obj 11 394 s s16_m2a_tognote;
#X obj 201 394 s s16_m2a_tognote_2;
#X obj 391 245 t f f;
#X obj 418 335 *;
#X obj 433 312 r chordedit_colour;
#X obj 391 371 pack f f;
#X obj 581 245 t f f;
#X obj 608 335 *;
#X obj 623 312 r chordedit_colour;
#X obj 581 371 pack f f;
#X obj 391 394 s s16_m2a_tognote;
#X obj 581 394 s s16_m2a_tognote_2;
#X obj 38 290 tabread chord_edit_5;
#X obj 228 290 tabread chord_edit_5;
#X obj 418 290 tabread chord_edit_6;
#X obj 608 290 tabread chord_edit_6;
#X obj 1161 245 t f f;
#X obj 1188 335 *;
#X obj 1203 312 r chordedit_colour;
#X obj 1161 371 pack f f;
#X obj 1188 290 tabread chord_edit_9;
#X obj 391 68 expr (( 8 - $f1 ) * 10 ) + 2;
#X obj 581 68 expr (( 8 - $f1 ) * 10 ) + 2;
#X obj 781 68 expr (( 8 - $f1 ) * 10 ) + 3;
#X obj 971 68 expr (( 8 - $f1 ) * 10 ) + 3;
#X obj 1351 67 expr (( 8 - $f1 ) * 10 ) + 4;
#X obj 1161 68 expr (( 8 - $f1 ) * 10 ) + 4;
#X obj 11 268 expr (( 8 - $f1 ) * 10 ) + 5;
#X obj 201 268 expr (( 8 - $f1 ) * 10 ) + 5;
#X obj 391 268 expr (( 8 - $f1 ) * 10 ) + 6;
#X obj 581 268 expr (( 8 - $f1 ) * 10 ) + 6;
#X obj 1161 268 expr (( 8 - $f1 ) * 10 ) + 1;
#X obj 1161 394 s s16_m2b_tognote;
#X obj 1351 245 t f f;
#X obj 1378 335 *;
#X obj 1393 312 r chordedit_colour;
#X obj 1351 371 pack f f;
#X obj 1378 290 tabread chord_edit_9;
#X obj 1351 268 expr (( 8 - $f1 ) * 10 ) + 1;
#X obj 1351 394 s s16_m2b_tognote_2;
#X obj 11 445 t f f;
#X obj 38 535 *;
#X obj 53 512 r chordedit_colour;
#X obj 11 571 pack f f;
#X obj 11 594 s s16_m2b_tognote;
#X obj 201 445 t f f;
#X obj 228 535 *;
#X obj 243 512 r chordedit_colour;
#X obj 201 571 pack f f;
#X obj 201 594 s s16_m2b_tognote_2;
#X obj 11 468 expr (( 8 - $f1 ) * 10 ) + 2;
#X obj 38 490 tabread chord_edit_10;
#X obj 201 468 expr (( 8 - $f1 ) * 10 ) + 2;
#X obj 228 490 tabread chord_edit_10;
#X obj 391 445 t f f;
#X obj 418 535 *;
#X obj 433 512 r chordedit_colour;
#X obj 391 571 pack f f;
#X obj 391 594 s s16_m2b_tognote;
#X obj 581 445 t f f;
#X obj 608 535 *;
#X obj 623 512 r chordedit_colour;
#X obj 581 571 pack f f;
#X obj 581 594 s s16_m2b_tognote_2;
#X obj 771 445 t f f;
#X obj 798 535 *;
#X obj 813 512 r chordedit_colour;
#X obj 771 571 pack f f;
#X obj 771 594 s s16_m2b_tognote;
#X obj 961 445 t f f;
#X obj 988 535 *;
#X obj 1003 512 r chordedit_colour;
#X obj 961 571 pack f f;
#X obj 961 594 s s16_m2b_tognote_2;
#X obj 418 490 tabread chord_edit_11;
#X obj 391 468 expr (( 8 - $f1 ) * 10 ) + 3;
#X obj 581 468 expr (( 8 - $f1 ) * 10 ) + 3;
#X obj 608 490 tabread chord_edit_11;
#X obj 798 490 tabread chord_edit_12;
#X obj 771 468 expr (( 8 - $f1 ) * 10 ) + 4;
#X obj 961 468 expr (( 8 - $f1 ) * 10 ) + 4;
#X obj 988 490 tabread chord_edit_12;
#X obj 1161 445 t f f;
#X obj 1188 535 *;
#X obj 1203 512 r chordedit_colour;
#X obj 1161 571 pack f f;
#X obj 1161 594 s s16_m2b_tognote;
#X obj 1351 445 t f f;
#X obj 1378 535 *;
#X obj 1393 512 r chordedit_colour;
#X obj 1351 571 pack f f;
#X obj 1351 594 s s16_m2b_tognote_2;
#X obj 1188 490 tabread chord_edit_15;
#X obj 1161 468 expr (( 8 - $f1 ) * 10 ) + 7;
#X obj 1351 468 expr (( 8 - $f1 ) * 10 ) + 7;
#X obj 1378 490 tabread chord_edit_15;
#X obj 771 245 t f f;
#X obj 798 335 *;
#X obj 813 312 r chordedit_colour;
#X obj 771 371 pack f f;
#X obj 961 245 t f f;
#X obj 988 335 *;
#X obj 1003 312 r chordedit_colour;
#X obj 961 371 pack f f;
#X obj 771 394 s s16_m2a_tognote;
#X obj 961 394 s s16_m2a_tognote_2;
#X obj 771 268 expr (( 8 - $f1 ) * 10 ) + 7;
#X obj 961 268 expr (( 8 - $f1 ) * 10 ) + 7;
#X obj 988 290 tabread chord_edit_7;
#X obj 798 290 tabread chord_edit_7;
#X obj 312 630 r s\$1.\$2;
#X obj 312 722 s s16_m2a_tognote;
#X obj 312 653 sel 1;
#X msg 312 676 18 0 28 0 38 0 48 0 58 0 68 0 78 0 88 0;
#X obj 312 699 zl iter 2;
#X obj 581 647 sel 1;
#X obj 581 705 zl iter 2;
#X msg 581 670 18 0 28 0 38 0 48 0 58 0 68 0 78 0 88 0 16 0 26 0 36
0 46 0 56 0 66 0 76 0 86 0 15 0 25 0 35 0 45 0 55 0 65 0 75 0 85 0
;
#X text 476 630 Off columns;
#X obj 18 692 counter 0 7;
#X obj 18 626 metro 20;
#X obj 18 661 spigot;
#X obj 93 627 r s\$1.\$2;
#X obj 93 661 sel 0 1;
#X msg 93 692 0;
#X obj 124 692 t b;
#X obj 149 692 counter 0 7;
#X obj 149 626 metro 20;
#X obj 149 661 spigot;
#X obj 224 661 sel 0 1;
#X msg 224 692 0;
#X obj 255 692 t b;
#X obj 224 627 r s\$1.\$2_2;
#X obj 18 715 s chordedit_fe_1;
#X obj 149 715 s chordedit_fe_2;
#X obj 11 21 r chordedit_fe_1;
#X obj 201 21 r chordedit_fe_2;
#X obj 581 22 r chordedit_fe_2;
#X obj 971 22 r chordedit_fe_2;
#X obj 391 22 r chordedit_fe_1;
#X obj 781 22 r chordedit_fe_1;
#X obj 1161 22 r chordedit_fe_1;
#X obj 1351 22 r chordedit_fe_2;
#X obj 11 222 r chordedit_fe_1;
#X obj 391 222 r chordedit_fe_1;
#X obj 771 222 r chordedit_fe_1;
#X obj 1161 222 r chordedit_fe_1;
#X obj 1161 422 r chordedit_fe_1;
#X obj 771 422 r chordedit_fe_1;
#X obj 391 422 r chordedit_fe_1;
#X obj 201 422 r chordedit_fe_2;
#X obj 11 422 r chordedit_fe_1;
#X obj 581 422 r chordedit_fe_2;
#X obj 961 422 r chordedit_fe_2;
#X obj 1351 422 r chordedit_fe_2;
#X obj 1351 222 r chordedit_fe_2;
#X obj 961 222 r chordedit_fe_2;
#X obj 581 222 r chordedit_fe_2;
#X obj 201 222 r chordedit_fe_2;
#X obj 371 630 r chordedit_fe_1;
#X obj 371 653 t b;
#X obj 651 647 t b;
#X obj 581 624 r s\$1.\$2;
#X obj 581 728 s s16_m2b_tognote;
#X obj 952 653 sel 1;
#X msg 952 676 18 0 28 0 38 0 48 0 58 0 68 0 78 0 88 0;
#X obj 952 699 zl iter 2;
#X obj 1221 647 sel 1;
#X obj 1221 705 zl iter 2;
#X msg 1221 670 18 0 28 0 38 0 48 0 58 0 68 0 78 0 88 0 16 0 26 0 36
0 46 0 56 0 66 0 76 0 86 0 15 0 25 0 35 0 45 0 55 0 65 0 75 0 85 0
;
#X text 1116 630 Off columns;
#X obj 1021 653 t b;
#X obj 1291 647 t b;
#X obj 1291 624 r chordedit_fe_2;
#X obj 651 624 r chordedit_fe_1;
#X obj 1021 630 r chordedit_fe_2;
#X obj 952 630 r s\$1.\$2_2;
#X obj 1221 624 r s\$1.\$2_2;
#X obj 1221 728 s s16_m2b_tognote_2;
#X obj 952 722 s s16_m2a_tognote_2;
#X connect 0 0 2 0;
#X connect 1 0 5 0;
#X connect 1 1 0 0;
#X connect 2 0 4 1;
#X connect 3 0 2 1;
#X connect 4 0 12 0;
#X connect 5 0 4 0;
#X connect 6 0 8 0;
#X connect 7 0 11 0;
#X connect 7 1 6 0;
#X connect 8 0 10 1;
#X connect 9 0 8 1;
#X connect 10 0 13 0;
#X connect 11 0 10 0;
#X connect 14 0 79 0;
#X connect 14 1 24 0;
#X connect 15 0 17 1;
#X connect 16 0 15 1;
#X connect 17 0 22 0;
#X connect 18 0 80 0;
#X connect 18 1 25 0;
#X connect 19 0 21 1;
#X connect 20 0 19 1;
#X connect 21 0 23 0;
#X connect 24 0 15 0;
#X connect 25 0 19 0;
#X connect 26 0 81 0;
#X connect 26 1 46 0;
#X connect 27 0 29 1;
#X connect 28 0 27 1;
#X connect 29 0 34 0;
#X connect 30 0 82 0;
#X connect 30 1 47 0;
#X connect 31 0 33 1;
#X connect 32 0 31 1;
#X connect 33 0 35 0;
#X connect 36 0 84 0;
#X connect 36 1 48 0;
#X connect 37 0 39 1;
#X connect 38 0 37 1;
#X connect 39 0 44 0;
#X connect 40 0 83 0;
#X connect 40 1 49 0;
#X connect 41 0 43 1;
#X connect 42 0 41 1;
#X connect 43 0 45 0;
#X connect 46 0 27 0;
#X connect 47 0 31 0;
#X connect 48 0 37 0;
#X connect 49 0 41 0;
#X connect 50 0 85 0;
#X connect 50 1 70 0;
#X connect 51 0 53 1;
#X connect 52 0 51 1;
#X connect 53 0 58 0;
#X connect 54 0 86 0;
#X connect 54 1 71 0;
#X connect 55 0 57 1;
#X connect 56 0 55 1;
#X connect 57 0 59 0;
#X connect 60 0 87 0;
#X connect 60 1 72 0;
#X connect 61 0 63 1;
#X connect 62 0 61 1;
#X connect 63 0 68 0;
#X connect 64 0 88 0;
#X connect 64 1 73 0;
#X connect 65 0 67 1;
#X connect 66 0 65 1;
#X connect 67 0 69 0;
#X connect 70 0 51 0;
#X connect 71 0 55 0;
#X connect 72 0 61 0;
#X connect 73 0 65 0;
#X connect 74 0 89 0;
#X connect 74 1 78 0;
#X connect 75 0 77 1;
#X connect 76 0 75 1;
#X connect 77 0 90 0;
#X connect 78 0 75 0;
#X connect 79 0 17 0;
#X connect 80 0 21 0;
#X connect 81 0 29 0;
#X connect 82 0 33 0;
#X connect 83 0 43 0;
#X connect 84 0 39 0;
#X connect 85 0 53 0;
#X connect 86 0 57 0;
#X connect 87 0 63 0;
#X connect 88 0 67 0;
#X connect 89 0 77 0;
#X connect 91 0 96 0;
#X connect 91 1 95 0;
#X connect 92 0 94 1;
#X connect 93 0 92 1;
#X connect 94 0 97 0;
#X connect 95 0 92 0;
#X connect 96 0 94 0;
#X connect 98 0 108 0;
#X connect 98 1 109 0;
#X connect 99 0 101 1;
#X connect 100 0 99 1;
#X connect 101 0 102 0;
#X connect 103 0 110 0;
#X connect 103 1 111 0;
#X connect 104 0 106 1;
#X connect 105 0 104 1;
#X connect 106 0 107 0;
#X connect 108 0 101 0;
#X connect 109 0 99 0;
#X connect 110 0 106 0;
#X connect 111 0 104 0;
#X connect 112 0 133 0;
#X connect 112 1 132 0;
#X connect 113 0 115 1;
#X connect 114 0 113 1;
#X connect 115 0 116 0;
#X connect 117 0 134 0;
#X connect 117 1 135 0;
#X connect 118 0 120 1;
#X connect 119 0 118 1;
#X connect 120 0 121 0;
#X connect 122 0 137 0;
#X connect 122 1 136 0;
#X connect 123 0 125 1;
#X connect 124 0 123 1;
#X connect 125 0 126 0;
#X connect 127 0 138 0;
#X connect 127 1 139 0;
#X connect 128 0 130 1;
#X connect 129 0 128 1;
#X connect 130 0 131 0;
#X connect 132 0 113 0;
#X connect 133 0 115 0;
#X connect 134 0 120 0;
#X connect 135 0 118 0;
#X connect 136 0 123 0;
#X connect 137 0 125 0;
#X connect 138 0 130 0;
#X connect 139 0 128 0;
#X connect 140 0 151 0;
#X connect 140 1 150 0;
#X connect 141 0 143 1;
#X connect 142 0 141 1;
#X connect 143 0 144 0;
#X connect 145 0 152 0;
#X connect 145 1 153 0;
#X connect 146 0 148 1;
#X connect 147 0 146 1;
#X connect 148 0 149 0;
#X connect 150 0 141 0;
#X connect 151 0 143 0;
#X connect 152 0 148 0;
#X connect 153 0 146 0;
#X connect 154 0 164 0;
#X connect 154 1 167 0;
#X connect 155 0 157 1;
#X connect 156 0 155 1;
#X connect 157 0 162 0;
#X connect 158 0 165 0;
#X connect 158 1 166 0;
#X connect 159 0 161 1;
#X connect 160 0 159 1;
#X connect 161 0 163 0;
#X connect 164 0 157 0;
#X connect 165 0 161 0;
#X connect 166 0 159 0;
#X connect 167 0 155 0;
#X connect 168 0 170 0;
#X connect 170 0 171 0;
#X connect 171 0 172 0;
#X connect 172 0 169 0;
#X connect 173 0 175 0;
#X connect 174 0 221 0;
#X connect 175 0 174 0;
#X connect 177 0 191 0;
#X connect 178 0 179 0;
#X connect 179 0 177 0;
#X connect 180 0 179 1;
#X connect 180 0 181 0;
#X connect 181 0 182 0;
#X connect 181 1 183 0;
#X connect 182 0 178 0;
#X connect 183 0 178 0;
#X connect 184 0 192 0;
#X connect 185 0 186 0;
#X connect 186 0 184 0;
#X connect 187 0 188 0;
#X connect 187 1 189 0;
#X connect 188 0 185 0;
#X connect 189 0 185 0;
#X connect 190 0 186 1;
#X connect 190 0 187 0;
#X connect 193 0 1 0;
#X connect 194 0 7 0;
#X connect 195 0 18 0;
#X connect 196 0 30 0;
#X connect 197 0 14 0;
#X connect 198 0 26 0;
#X connect 199 0 36 0;
#X connect 200 0 40 0;
#X connect 201 0 50 0;
#X connect 202 0 60 0;
#X connect 203 0 154 0;
#X connect 204 0 74 0;
#X connect 205 0 140 0;
#X connect 206 0 122 0;
#X connect 207 0 112 0;
#X connect 208 0 103 0;
#X connect 209 0 98 0;
#X connect 210 0 117 0;
#X connect 211 0 127 0;
#X connect 212 0 145 0;
#X connect 213 0 91 0;
#X connect 214 0 158 0;
#X connect 215 0 64 0;
#X connect 216 0 54 0;
#X connect 217 0 218 0;
#X connect 218 0 171 0;
#X connect 219 0 175 0;
#X connect 220 0 173 0;
#X connect 222 0 223 0;
#X connect 223 0 224 0;
#X connect 224 0 237 0;
#X connect 225 0 227 0;
#X connect 226 0 236 0;
#X connect 227 0 226 0;
#X connect 229 0 223 0;
#X connect 230 0 227 0;
#X connect 231 0 230 0;
#X connect 232 0 219 0;
#X connect 233 0 229 0;
#X connect 234 0 222 0;
#X connect 235 0 225 0;
#X restore 17 175 pd front_end;
#X obj 233 241 ../seq_abs/chord_editor 2 -1;
#X obj 278 263 ../seq_abs/chord_editor 3 -1;
#X obj 323 285 ../seq_abs/chord_editor 4 -1;
#X obj 368 307 ../seq_abs/chord_editor 5 -1;
#X obj 413 329 ../seq_abs/chord_editor 6 -1;
#X obj 188 219 ../seq_abs/chord_editor 1 -1;
#X obj 510 219 ../seq_abs/chord_editor 9 7;
#X obj 555 241 ../seq_abs/chord_editor 10 7;
#X obj 600 263 ../seq_abs/chord_editor 11 7;
#X obj 645 285 ../seq_abs/chord_editor 12 7;
#X text 711 307 no chords for TR8;
#X text 733 327 no chords for slicer / sampler;
#X obj 780 351 ../seq_abs/chord_editor 15 7;
#X obj 21 8 notein 17;
#X obj 335 15 notein 33;
#X obj 114 1 notein 113;
#X obj 439 -2 notein 129;
#X text 417 2 LP4;
#X text 92 1 LP3;
#X text 313 15 LP2;
#X text -1 10 LP1;
#X obj 605 147 % 10;
#X obj 605 168 pack f f;
#X obj 605 191 route 1 2 3 4 5 6 7 8;
#X obj 439 21 stripnote;
#X obj 605 124 t f f;
#X obj 252 143 % 10;
#X obj 252 164 pack f f;
#X obj 252 187 route 1 2 3 4 5 6 7 8;
#X obj 252 120 t f f;
#X obj 21 31 stripnote;
#X obj 118 21 stripnote;
#X obj 327 41 stripnote;
#X obj 445 350 ../seq_abs/chord_editor 7 -1;
#X obj 31 332 write_view_colour \$1 \$2 13;
#X connect 1 8 43 0;
#X connect 2 0 1 0;
#X connect 3 0 2 1;
#X connect 4 8 43 0;
#X connect 5 0 4 0;
#X connect 6 0 5 1;
#X connect 7 8 39 0;
#X connect 8 0 7 0;
#X connect 9 0 8 1;
#X connect 10 8 39 0;
#X connect 11 0 10 0;
#X connect 12 0 11 1;
#X connect 27 0 44 0;
#X connect 27 1 44 1;
#X connect 28 0 46 0;
#X connect 28 1 46 1;
#X connect 29 0 45 0;
#X connect 29 1 45 1;
#X connect 30 0 38 0;
#X connect 30 1 38 1;
#X connect 35 0 36 0;
#X connect 36 0 37 0;
#X connect 37 0 20 0;
#X connect 37 1 21 0;
#X connect 37 2 22 0;
#X connect 37 3 23 0;
#X connect 37 6 26 0;
#X connect 38 0 11 0;
#X connect 39 0 35 0;
#X connect 39 1 36 1;
#X connect 40 0 41 0;
#X connect 41 0 42 0;
#X connect 42 0 19 0;
#X connect 42 1 14 0;
#X connect 42 2 15 0;
#X connect 42 3 16 0;
#X connect 42 4 17 0;
#X connect 42 5 18 0;
#X connect 42 6 47 0;
#X connect 43 0 40 0;
#X connect 43 1 41 1;
#X connect 44 0 2 0;
#X connect 45 0 5 0;
#X connect 46 0 8 0;
