#N canvas 18 89 1174 688 10;
#X obj 50 136 spigot;
#X obj 5 28 notein 17;
#X obj 50 81 route 19 29 39 49 59 69 79 89;
#X obj 50 176 mod 10;
#N canvas 0 50 450 250 (subpatch) 0;
#X array seq_speeds 16 float 3;
#A 0 8 8 8 8 8 8 8 8 8 8 8 8 8 8 8 8;
#X coords 0 9 16 -1 200 140 1 0 0;
#X restore 752 226 graph;
#X obj 240 135 spigot;
#X obj 240 81 route 19 29 39 49 59 69 79 89;
#X obj 240 176 mod 10;
#X obj 430 134 spigot;
#X obj 430 80 route 19 29 39 49 59 69 79 89;
#X obj 430 175 mod 10;
#X obj 620 134 spigot;
#X obj 620 80 route 19 29 39 49 59 69 79 89;
#X obj 620 175 mod 10;
#X obj 195 28 notein 33;
#X obj 385 27 notein 113;
#X obj 575 27 notein 129;
#X obj 18 176 / 10;
#X obj 18 197 i;
#X obj 240 101 r s\$1.\$2;
#X obj 50 101 r s\$1.\$2;
#X obj 50 339 pack f f;
#X obj 396 175 / 10;
#X obj 396 196 i;
#X obj 239 338 pack f f;
#X obj 207 176 / 10;
#X obj 207 197 i;
#X obj 586 176 / 10;
#X obj 586 197 i;
#X obj 334 508 clock_divider 14;
#X msg 752 169 8 8 8 8 8 8 8 8 8 8 8 8 8 8 8 8;
#X obj 752 190 array set seq_speeds;
#X obj 752 141 r init_43_clock_div_view_defaults;
#N canvas 331 327 1299 688 front_end 0;
#X obj 6 42 bng 15 250 50 0 empty empty empty 17 7 0 10 -262144 -1
-1;
#X msg 26 40 0;
#X obj 278 383 pack f f;
#X obj 278 324 expr $f1 + $f2;
#X obj 103 13 loadbang;
#X obj 103 96 counter 15;
#X obj 103 178 moses 7.5;
#X obj 359 278 * 10;
#X obj 359 300 t f b;
#X obj 47 380 pack f f;
#X obj 152 283 * 10;
#X obj 152 305 t f b;
#X text 179 154 constantly poll the array and update the lights;
#N canvas 58 90 450 300 sd2 0;
#X msg 281 86 8;
#X obj 56 64 sel 8 9 10 11 12 13 14 15, f 37;
#X msg 56 86 1;
#X msg 88 86 2;
#X msg 120 86 3;
#X msg 152 86 4;
#X msg 185 86 5;
#X msg 217 86 6;
#X msg 249 86 7;
#X obj 55 39 inlet;
#X obj 139 148 outlet;
#X connect 0 0 10 0;
#X connect 1 0 2 0;
#X connect 1 1 3 0;
#X connect 1 2 4 0;
#X connect 1 3 5 0;
#X connect 1 4 6 0;
#X connect 1 5 7 0;
#X connect 1 6 8 0;
#X connect 1 7 0 0;
#X connect 2 0 10 0;
#X connect 3 0 10 0;
#X connect 4 0 10 0;
#X connect 5 0 10 0;
#X connect 6 0 10 0;
#X connect 7 0 10 0;
#X connect 8 0 10 0;
#X connect 9 0 1 0;
#X restore 278 300 pd sd2;
#X obj 47 402 s s\$1_m2a_tognote;
#X obj 278 466 s s\$1_m2b_tognote;
#N canvas 63 761 339 173 colour 0;
#X obj 14 15 inlet;
#X obj 103 124 outlet;
#X obj 14 38 sel 0 1 2 3 4 5 6 0, f 39;
#X msg 14 73 57;
#X msg 43 73 82;
#X msg 71 73 18;
#X msg 103 73 104;
#X msg 132 73 102;
#X msg 164 73 55;
#X msg 191 73 13;
#X connect 0 0 2 0;
#X connect 2 0 3 0;
#X connect 2 1 4 0;
#X connect 2 2 5 0;
#X connect 2 3 6 0;
#X connect 2 4 7 0;
#X connect 2 5 8 0;
#X connect 2 6 9 0;
#X connect 3 0 1 0;
#X connect 4 0 1 0;
#X connect 5 0 1 0;
#X connect 6 0 1 0;
#X connect 7 0 1 0;
#X connect 8 0 1 0;
#X connect 9 0 1 0;
#X restore 92 357 pd colour;
#N canvas 607 732 450 300 colour 0;
#X obj 103 87 inlet;
#X obj 192 186 outlet;
#X obj 103 110 sel 8 9 10 11 12 13 14, f 36;
#X text 82 31 72 61 65 8 19 4 82 3;
#X msg 103 135 72;
#X msg 132 135 61;
#X msg 160 135 65;
#X msg 192 135 8;
#X msg 221 135 19;
#X msg 253 135 4;
#X msg 283 135 82;
#X connect 0 0 2 0;
#X connect 2 0 4 0;
#X connect 2 1 5 0;
#X connect 2 2 6 0;
#X connect 2 3 7 0;
#X connect 2 4 8 0;
#X connect 2 5 9 0;
#X connect 2 6 10 0;
#X connect 4 0 1 0;
#X connect 5 0 1 0;
#X connect 6 0 1 0;
#X connect 7 0 1 0;
#X connect 8 0 1 0;
#X connect 9 0 1 0;
#X connect 10 0 1 0;
#X restore 323 349 pd colour;
#X obj 733 389 pack f f;
#X obj 733 339 expr $f1 + $f2;
#X obj 514 168 moses 7.5;
#X obj 814 293 * 10;
#X obj 814 315 t f b;
#X obj 481 391 pack f f;
#X obj 481 341 expr $f1 + $f2;
#X obj 562 295 * 10;
#X obj 562 317 t f b;
#N canvas 67 90 450 300 sd2 0;
#X msg 281 86 8;
#X obj 56 64 sel 8 9 10 11 12 13 14 15, f 37;
#X msg 56 86 1;
#X msg 88 86 2;
#X msg 120 86 3;
#X msg 152 86 4;
#X msg 185 86 5;
#X msg 217 86 6;
#X msg 249 86 7;
#X obj 55 39 inlet;
#X obj 139 148 outlet;
#X connect 0 0 10 0;
#X connect 1 0 2 0;
#X connect 1 1 3 0;
#X connect 1 2 4 0;
#X connect 1 3 5 0;
#X connect 1 4 6 0;
#X connect 1 5 7 0;
#X connect 1 6 8 0;
#X connect 1 7 0 0;
#X connect 2 0 10 0;
#X connect 3 0 10 0;
#X connect 4 0 10 0;
#X connect 5 0 10 0;
#X connect 6 0 10 0;
#X connect 7 0 10 0;
#X connect 8 0 10 0;
#X connect 9 0 1 0;
#X restore 733 312 pd sd2;
#N canvas 91 557 450 300 sd1 0;
#X msg 281 86 8;
#X msg 56 86 1;
#X msg 88 86 2;
#X msg 120 86 3;
#X msg 152 86 4;
#X msg 185 86 5;
#X msg 217 86 6;
#X msg 249 86 7;
#X obj 55 39 inlet;
#X obj 139 148 outlet;
#X obj 56 64 sel 0 1 2 3 4 5 6 7, f 37;
#X connect 0 0 9 0;
#X connect 1 0 9 0;
#X connect 2 0 9 0;
#X connect 3 0 9 0;
#X connect 4 0 9 0;
#X connect 5 0 9 0;
#X connect 6 0 9 0;
#X connect 7 0 9 0;
#X connect 8 0 10 0;
#X connect 10 0 1 0;
#X connect 10 1 2 0;
#X connect 10 2 3 0;
#X connect 10 3 4 0;
#X connect 10 4 5 0;
#X connect 10 5 6 0;
#X connect 10 6 7 0;
#X connect 10 7 0 0;
#X restore 481 314 pd sd1;
#X obj 481 413 s s\$1_m2a_tognote_2;
#X obj 733 460 s s\$1_m2b_tognote_2;
#X obj 562 274 tabread seq_speeds;
#X obj 814 270 tabread seq_speeds;
#X obj 359 257 tabread seq_speeds;
#X obj 152 258 tabread seq_speeds;
#N canvas 159 406 348 183 colour 0;
#X obj 14 15 inlet;
#X obj 103 124 outlet;
#X obj 14 38 sel 0 1 2 3 4 5 6 0, f 39;
#X msg 14 73 57;
#X msg 43 73 82;
#X msg 71 73 18;
#X msg 103 73 104;
#X msg 132 73 102;
#X msg 164 73 55;
#X msg 191 73 13;
#X connect 0 0 2 0;
#X connect 2 0 3 0;
#X connect 2 1 4 0;
#X connect 2 2 5 0;
#X connect 2 3 6 0;
#X connect 2 4 7 0;
#X connect 2 5 8 0;
#X connect 2 6 9 0;
#X connect 3 0 1 0;
#X connect 4 0 1 0;
#X connect 5 0 1 0;
#X connect 6 0 1 0;
#X connect 7 0 1 0;
#X connect 8 0 1 0;
#X connect 9 0 1 0;
#X restore 527 367 pd colour;
#N canvas 207 414 450 300 colour 0;
#X obj 103 87 inlet;
#X obj 192 186 outlet;
#X obj 103 110 sel 8 9 10 11 12 13 14, f 36;
#X text 82 31 72 61 65 8 19 4 82 3;
#X msg 103 135 72;
#X msg 132 135 61;
#X msg 160 135 65;
#X msg 192 135 8;
#X msg 221 135 19;
#X msg 253 135 4;
#X msg 283 135 82;
#X connect 0 0 2 0;
#X connect 2 0 4 0;
#X connect 2 1 5 0;
#X connect 2 2 6 0;
#X connect 2 3 7 0;
#X connect 2 4 8 0;
#X connect 2 5 9 0;
#X connect 2 6 10 0;
#X connect 4 0 1 0;
#X connect 5 0 1 0;
#X connect 6 0 1 0;
#X connect 7 0 1 0;
#X connect 8 0 1 0;
#X connect 9 0 1 0;
#X connect 10 0 1 0;
#X restore 779 364 pd colour;
#X obj 275 211 route 15;
#X obj 688 213 route 15;
#X obj 700 70 CLOCK_DIV_reset_colours \$1 \$2 3;
#X obj 514 141 spigot;
#X obj 547 118 r s\$1.\$2_2;
#X obj 174 49 sel 0 1;
#X msg 174 76 0;
#X obj 205 76 t b;
#X obj 174 15 r s\$1.\$2;
#X obj 103 141 spigot;
#X obj 136 117 r s\$1.\$2;
#X obj 11 120 s clockdiv_fe;
#X obj 103 37 metro 20;
#X obj 514 13 loadbang;
#X obj 585 49 sel 0 1;
#X msg 585 76 0;
#X obj 616 76 t b;
#X obj 514 37 metro 20;
#X obj 585 15 r s\$1.\$2_2;
#X obj 431 120 s clockdiv_fe_2;
#X obj 502 87 counter 15;
#N canvas 58 89 604 226 off_rows 0;
#X obj 14 76 zl iter 2;
#X obj 14 152 s s\$1_m2a_tognote;
#X obj 14 175 s s\$1_m2b_tognote;
#X obj 304 151 s s\$1_m2a_tognote_2;
#X obj 304 174 s s\$1_m2b_tognote_2;
#X obj 14 127 spigot;
#X obj 53 101 r s\$1.\$2;
#X obj 348 100 r s\$1.\$2_2;
#X obj 304 127 spigot;
#X obj 304 76 zl iter 2;
#X obj 304 15 r clockdiv_fe_2;
#X obj 14 15 r clockdiv_fe;
#X msg 14 41 51 0 52 0 53 0 54 0 55 0 56 0 57 0 58 0;
#X msg 304 41 51 0 52 0 53 0 54 0 55 0 56 0 57 0 58 0;
#X connect 0 0 5 0;
#X connect 5 0 1 0;
#X connect 5 0 2 0;
#X connect 6 0 5 1;
#X connect 7 0 8 1;
#X connect 8 0 4 0;
#X connect 8 0 3 0;
#X connect 9 0 8 0;
#X connect 10 0 13 0;
#X connect 11 0 12 0;
#X restore 701 44 pd off_rows;
#X obj 103 202 route 7;
#X obj 113 227 t f f f;
#X obj 320 233 t f f f;
#X obj 733 237 t f f f;
#X obj 535 248 t f f f;
#X obj 476 204 route 7;
#X obj 214 305 t b;
#X msg 214 327 0;
#X obj 214 349 tabread local_off;
#X obj 47 330 expr $f1 + $f2 + 1;
#X obj 214 371 sel 0 1;
#X msg 214 393 88 60;
#X msg 234 413 88 45;
#X obj 670 315 t b;
#X msg 670 337 0;
#X obj 670 359 tabread local_off;
#X obj 670 381 sel 0 1;
#X msg 670 403 88 60;
#X msg 690 423 88 45;
#X floatatom 623 405 5 0 0 0 - - -;
#X connect 0 0 49 0;
#X connect 1 0 5 2;
#X connect 1 0 49 0;
#X connect 2 0 15 0;
#X connect 3 0 2 0;
#X connect 4 0 49 0;
#X connect 5 0 46 0;
#X connect 6 0 59 0;
#X connect 6 1 37 0;
#X connect 7 0 8 0;
#X connect 8 0 3 1;
#X connect 9 0 14 0;
#X connect 10 0 11 0;
#X connect 11 0 68 1;
#X connect 13 0 3 0;
#X connect 16 0 9 1;
#X connect 17 0 2 1;
#X connect 18 0 30 0;
#X connect 19 0 18 0;
#X connect 20 0 64 0;
#X connect 20 1 38 0;
#X connect 21 0 22 0;
#X connect 22 0 19 1;
#X connect 23 0 29 0;
#X connect 24 0 23 0;
#X connect 25 0 26 0;
#X connect 26 0 24 1;
#X connect 27 0 19 0;
#X connect 28 0 24 0;
#X connect 31 0 25 0;
#X connect 32 0 21 0;
#X connect 33 0 7 0;
#X connect 34 0 10 0;
#X connect 35 0 23 1;
#X connect 36 0 18 1;
#X connect 37 0 65 0;
#X connect 37 1 61 0;
#X connect 38 0 72 0;
#X connect 38 1 62 0;
#X connect 40 0 20 0;
#X connect 41 0 40 1;
#X connect 42 0 43 0;
#X connect 42 1 44 0;
#X connect 43 0 49 0;
#X connect 44 0 49 0;
#X connect 45 0 42 0;
#X connect 46 0 6 0;
#X connect 47 0 46 1;
#X connect 49 0 5 0;
#X connect 49 0 48 0;
#X connect 50 0 54 0;
#X connect 51 0 52 0;
#X connect 51 1 53 0;
#X connect 52 0 54 0;
#X connect 53 0 54 0;
#X connect 54 0 56 0;
#X connect 54 0 57 0;
#X connect 55 0 51 0;
#X connect 57 0 40 0;
#X connect 59 1 60 0;
#X connect 60 0 68 0;
#X connect 60 1 16 0;
#X connect 60 2 34 0;
#X connect 61 0 13 0;
#X connect 61 1 17 0;
#X connect 61 2 33 0;
#X connect 62 0 27 0;
#X connect 62 1 36 0;
#X connect 62 2 32 0;
#X connect 63 0 28 0;
#X connect 63 1 35 0;
#X connect 63 2 31 0;
#X connect 64 1 63 0;
#X connect 65 0 66 0;
#X connect 66 0 67 0;
#X connect 67 0 69 0;
#X connect 68 0 9 0;
#X connect 69 0 70 0;
#X connect 69 1 71 0;
#X connect 70 0 15 0;
#X connect 71 0 15 0;
#X connect 72 0 73 0;
#X connect 73 0 74 0;
#X connect 74 0 75 0;
#X connect 74 0 78 0;
#X connect 75 0 76 0;
#X connect 75 1 77 0;
#X connect 76 0 30 0;
#X connect 77 0 30 0;
#X restore 752 371 pd front_end;
#X obj 430 100 r s\$1.\$2_2;
#X obj 620 100 r s\$1.\$2_2;
#X obj 5 53 moses 20;
#X obj 195 53 moses 20;
#X obj 385 53 moses 20;
#X obj 575 53 moses 20;
#X obj 50 399 clock_divider 0;
#X obj 66 419 clock_divider 1;
#X obj 83 439 clock_divider 2;
#X obj 99 459 clock_divider 3;
#X obj 115 479 clock_divider 4;
#X obj 132 499 clock_divider 5;
#X obj 254 408 clock_divider 9;
#X obj 270 428 clock_divider 10;
#X obj 286 448 clock_divider 11;
#X obj 302 468 clock_divider 12;
#X obj 318 488 clock_divider 13;
#X obj 239 388 clock_divider 8;
#X text 507 441 test for being in the view;
#X obj 501 481 tgl 15 0 empty empty empty 17 7 0 10 -262144 -1 -1 0
1;
#X obj 596 501 tgl 15 0 empty empty empty 17 7 0 10 -262144 -1 -1 0
1;
#X obj 501 548 expr $f1 + $f2;
#X obj 501 570 == 2;
#X obj 501 591 tgl 15 0 empty empty empty 17 7 0 10 -262144 -1 -1 0
1;
#X obj 501 528 bondo, f 14;
#X obj 596 481 == 16;
#X obj 501 611 s s16.global;
#X obj 501 461 r is_global_1;
#X obj 596 461 r selected_seq_1;
#X text 729 439 test for being in the view;
#X obj 723 479 tgl 15 0 empty empty empty 17 7 0 10 -262144 -1 -1 1
1;
#X obj 818 499 tgl 15 0 empty empty empty 17 7 0 10 -262144 -1 -1 0
1;
#X obj 723 546 expr $f1 + $f2;
#X obj 723 568 == 2;
#X obj 723 589 tgl 15 0 empty empty empty 17 7 0 10 -262144 -1 -1 0
1;
#X obj 723 526 bondo, f 14;
#X obj 818 479 == 16;
#X obj 723 459 r is_global_2;
#X obj 818 459 r selected_seq_2;
#X obj 723 609 s s16.global_2;
#X obj 441 350 DENV_TOGGLE \$1 \$2 1 71 102, f 39;
#X obj 441 329 MW_TOGGLE \$1 \$2 2 0 12 9, f 39;
#X obj 142 519 clock_divider 6;
#X obj 50 360 route 1 2 3 4 5 6 7;
#X obj 441 308 CC_SMOOTHING_TOGGLE \$1 \$2 3 71 78, f 39;
#X obj 239 359 route 1 2 3 4 5 6 7;
#X obj 984 42 notein 33;
#X obj 1054 42 notein 129;
#X obj 984 65 stripnote;
#X obj 1054 65 stripnote;
#X obj 1054 88 sel 88;
#X obj 984 88 sel 88;
#N canvas 72 198 661 399 chordprogressiontoggle 0;
#X obj 8 97 route 19 29 39 49 59 69 79 89;
#X obj 268 91 route 19 29 39 49 59 69 79 89;
#X obj 58 207 route 19 29 39 49 59 69 79 89;
#X obj 318 201 route 19 29 39 49 59 69 79 89;
#X obj 58 184 stripnote;
#X obj 318 179 stripnote;
#X obj 8 75 stripnote;
#X obj 268 69 stripnote;
#X obj 8 32 notein 17;
#X obj 268 25 notein 33;
#X obj 58 143 notein 113;
#X obj 317 137 notein 129;
#X obj 8 52 pack f f, f 9;
#X obj 58 163 pack f f, f 10;
#X obj 268 45 pack f f, f 9;
#X obj 317 157 pack f f, f 10;
#X obj 47 309 s cp_toggle_otherviewLHS;
#X obj 442 308 s cp_toggle_otherviewRHS;
#N canvas 817 120 874 471 frontend 0;
#X obj 67 236 tabread cp_toggle;
#X obj 181 214 counter 9 15;
#X obj 197 235 tabread cp_toggle;
#X obj 181 364 pack f f;
#X obj 51 413 s s16_m2a_tognote;
#X obj 181 413 s s16_m2b_tognote;
#X obj 51 364 pack f f;
#X obj 454 242 tabread cp_toggle;
#X obj 568 219 counter 9 15;
#X obj 584 241 tabread cp_toggle;
#X obj 438 419 s s16_m2a_tognote_2;
#X obj 568 419 s s16_m2b_tognote_2;
#X obj 197 258 sel 0 1 2 3;
#X obj 67 258 sel 0 1 2 3;
#X obj 568 368 pack f f;
#X obj 438 368 pack f f;
#X obj 584 262 sel 0 1 2 3;
#X obj 454 262 sel 0 1 2 3;
#X obj 333 249 zl iter 2;
#X obj 350 306 spigot;
#X obj 376 273 r s\$1.\$2_2;
#X obj 333 373 spigot;
#X obj 359 340 r s\$1.\$2;
#X obj 711 248 zl iter 2;
#X obj 728 305 spigot;
#X obj 754 272 r s\$1.\$2_2;
#X obj 711 372 spigot;
#X obj 737 339 r s\$1.\$2;
#X obj 51 168 spigot;
#X obj 438 104 spigot;
#X obj 471 73 r s\$1.\$2_2;
#X obj 84 144 r s\$1.\$2;
#X obj 333 104 spigot;
#X obj 366 73 r s\$1.\$2;
#X obj 333 50 r chord_root_fe;
#X msg 711 189 78 0 68 0 58 0 48 0 18 0;
#X obj 51 213 counter 1 7;
#X obj 438 219 counter 1 7;
#X msg 333 190 78 0 68 0 58 0 48 0 18 0;
#X obj 51 123 r clockdiv_fe;
#X obj 51 281 expr $f1 + 50;
#X obj 181 310 expr $f1 + 42;
#X obj 438 316 expr $f1 + 50;
#X obj 568 287 expr $f1 + 42;
#X obj 156 338 55;
#X obj 96 338 6;
#X obj 226 338 6;
#X obj 483 342 6;
#X obj 613 342 6;
#X obj 129 338 50;
#X obj 259 338 50;
#X obj 516 342 50;
#X obj 646 342 50;
#X obj 673 342 55;
#X obj 543 342 55;
#X obj 286 338 55;
#X obj 67 338 0;
#X obj 197 338 0;
#X obj 454 342 0;
#X obj 584 342 0;
#X obj 438 50 r clockdiv_fe_2;
#X connect 0 0 13 0;
#X connect 1 0 2 0;
#X connect 1 0 41 0;
#X connect 2 0 12 0;
#X connect 3 0 5 0;
#X connect 6 0 4 0;
#X connect 7 0 17 0;
#X connect 8 0 9 0;
#X connect 8 0 43 0;
#X connect 9 0 16 0;
#X connect 12 0 57 0;
#X connect 12 1 46 0;
#X connect 12 2 50 0;
#X connect 12 3 55 0;
#X connect 13 0 56 0;
#X connect 13 1 45 0;
#X connect 13 2 49 0;
#X connect 13 3 44 0;
#X connect 14 0 11 0;
#X connect 15 0 10 0;
#X connect 16 0 59 0;
#X connect 16 1 48 0;
#X connect 16 2 52 0;
#X connect 16 3 53 0;
#X connect 17 0 58 0;
#X connect 17 1 47 0;
#X connect 17 2 51 0;
#X connect 17 3 54 0;
#X connect 18 0 19 0;
#X connect 18 0 21 0;
#X connect 19 0 10 0;
#X connect 20 0 19 1;
#X connect 21 0 4 0;
#X connect 22 0 21 1;
#X connect 23 0 24 0;
#X connect 23 0 26 0;
#X connect 24 0 11 0;
#X connect 25 0 24 1;
#X connect 26 0 5 0;
#X connect 27 0 26 1;
#X connect 28 0 1 0;
#X connect 28 0 36 0;
#X connect 29 0 35 0;
#X connect 29 0 8 0;
#X connect 29 0 37 0;
#X connect 29 0 38 0;
#X connect 30 0 29 1;
#X connect 31 0 28 1;
#X connect 32 0 35 0;
#X connect 32 0 38 0;
#X connect 33 0 32 1;
#X connect 35 0 23 0;
#X connect 36 0 0 0;
#X connect 36 0 40 0;
#X connect 37 0 7 0;
#X connect 37 0 42 0;
#X connect 38 0 18 0;
#X connect 39 0 28 0;
#X connect 40 0 6 0;
#X connect 41 0 3 0;
#X connect 42 0 15 0;
#X connect 43 0 14 0;
#X connect 44 0 6 1;
#X connect 45 0 6 1;
#X connect 46 0 3 1;
#X connect 47 0 15 1;
#X connect 48 0 14 1;
#X connect 49 0 6 1;
#X connect 50 0 3 1;
#X connect 51 0 15 1;
#X connect 52 0 14 1;
#X connect 53 0 14 1;
#X connect 54 0 15 1;
#X connect 55 0 3 1;
#X connect 56 0 6 1;
#X connect 57 0 3 1;
#X connect 58 0 15 1;
#X connect 59 0 14 1;
#X connect 60 0 29 0;
#X restore 501 46 pd frontend;
#X obj 58 269 spigot;
#X obj 229 268 spigot;
#X obj 91 247 r s\$1.\$2;
#X obj 262 246 r s\$1.\$2_2;
#X obj 348 266 spigot;
#X obj 519 265 spigot;
#X obj 381 244 r s\$1.\$2;
#X obj 552 243 r s\$1.\$2_2;
#X obj 169 156 - 40;
#X obj 457 162 - 40;
#X obj 489 228 - 40;
#X obj 231 238 - 40;
#X connect 0 8 27 0;
#X connect 1 8 28 0;
#X connect 2 8 30 0;
#X connect 3 8 29 0;
#X connect 4 0 2 0;
#X connect 5 0 3 0;
#X connect 6 0 0 0;
#X connect 7 0 1 0;
#X connect 8 0 12 0;
#X connect 8 1 12 1;
#X connect 9 0 14 0;
#X connect 9 1 14 1;
#X connect 10 0 13 0;
#X connect 10 1 13 1;
#X connect 11 0 15 0;
#X connect 11 1 15 1;
#X connect 12 0 6 0;
#X connect 13 0 4 0;
#X connect 14 0 7 0;
#X connect 15 0 5 0;
#X connect 19 0 16 0;
#X connect 20 0 16 0;
#X connect 21 0 19 1;
#X connect 22 0 20 1;
#X connect 23 0 17 0;
#X connect 24 0 17 0;
#X connect 25 0 23 1;
#X connect 26 0 24 1;
#X connect 27 0 19 0;
#X connect 28 0 23 0;
#X connect 29 0 24 0;
#X connect 30 0 20 0;
#X restore 752 397 pd chordprogressiontoggle;
#X obj 984 203 ../seq_abs/122_midiout 4;
#X obj 441 286 AUTODROP_TOGGLE \$1 \$2 4 0 126;
#X obj 1017 121 r s16.global;
#X obj 1066 142 r s16.global_2;
#X obj 984 163 spigot;
#X obj 1034 163 spigot;
#X connect 0 0 17 0;
#X connect 0 0 3 0;
#X connect 1 0 36 0;
#X connect 2 8 0 0;
#X connect 3 0 21 0;
#X connect 5 0 25 0;
#X connect 5 0 7 0;
#X connect 6 8 5 0;
#X connect 7 0 24 0;
#X connect 8 0 22 0;
#X connect 8 0 10 0;
#X connect 9 8 8 0;
#X connect 10 0 21 0;
#X connect 11 0 27 0;
#X connect 11 0 13 0;
#X connect 12 8 11 0;
#X connect 13 0 24 0;
#X connect 14 0 37 0;
#X connect 15 0 38 0;
#X connect 16 0 39 0;
#X connect 17 0 18 0;
#X connect 18 0 21 1;
#X connect 19 0 5 1;
#X connect 20 0 0 1;
#X connect 21 0 77 0;
#X connect 22 0 23 0;
#X connect 23 0 21 1;
#X connect 24 0 79 0;
#X connect 25 0 26 0;
#X connect 26 0 24 1;
#X connect 27 0 28 0;
#X connect 28 0 24 1;
#X connect 30 0 31 0;
#X connect 32 0 30 0;
#X connect 34 0 8 1;
#X connect 35 0 11 1;
#X connect 36 1 2 0;
#X connect 37 1 6 0;
#X connect 38 1 9 0;
#X connect 39 1 12 0;
#X connect 53 0 58 0;
#X connect 54 0 58 1;
#X connect 55 0 56 0;
#X connect 56 0 57 0;
#X connect 57 0 60 0;
#X connect 58 0 55 0;
#X connect 58 1 55 1;
#X connect 59 0 54 0;
#X connect 61 0 53 0;
#X connect 62 0 59 0;
#X connect 64 0 69 0;
#X connect 65 0 69 1;
#X connect 66 0 67 0;
#X connect 67 0 68 0;
#X connect 68 0 73 0;
#X connect 69 0 66 0;
#X connect 69 1 66 1;
#X connect 70 0 65 0;
#X connect 71 0 64 0;
#X connect 72 0 70 0;
#X connect 77 0 40 0;
#X connect 77 1 41 0;
#X connect 77 2 42 0;
#X connect 77 3 43 0;
#X connect 77 4 44 0;
#X connect 77 5 45 0;
#X connect 77 6 76 0;
#X connect 79 0 51 0;
#X connect 79 1 46 0;
#X connect 79 2 47 0;
#X connect 79 3 48 0;
#X connect 79 4 49 0;
#X connect 79 5 50 0;
#X connect 79 6 29 0;
#X connect 80 0 82 0;
#X connect 80 1 82 1;
#X connect 81 0 83 0;
#X connect 81 1 83 1;
#X connect 82 0 85 0;
#X connect 83 0 84 0;
#X connect 84 0 92 0;
#X connect 85 0 91 0;
#X connect 89 0 91 1;
#X connect 90 0 92 1;
#X connect 91 0 87 0;
#X connect 92 0 87 0;
