#N canvas 58 170 1862 993 12;
#X obj 279 144 / 10;
#X obj 279 166 i;
#X obj 339 144 % 10;
#X obj 279 187 - 1;
#X obj 279 121 t f f, f 9;
#X obj 339 165 + 7;
#X obj 39 144 / 10;
#X obj 39 166 i;
#X obj 85 143 % 10;
#X obj 39 187 - 1;
#X obj 39 95 spigot;
#X obj 279 98 spigot;
#X obj 39 18 notein 17;
#X obj 279 18 notein 33;
#X obj 85 164 - 1;
#X obj 39 121 t f f, f 7;
#X obj 39 41 route 19 29 39 49 59 69 79 89;
#X obj 279 41 route 19 29 39 49 59 69 79 89;
#N canvas 0 50 450 250 (subpatch) 0;
#X array swing_level 16 float 3;
#A 0 0 0 0 0 0 0 0 0 0 0 0 0 0 0 0 0;
#X coords 0 7 16 0 200 140 1 0 0;
#X restore 37 273 graph;
#N canvas 0 95 3840 2003 front_end 0;
#X obj 163 39 bng 15 250 50 0 empty empty empty 17 7 0 10 -262144 -1
-1;
#X msg 196 37 0;
#X obj 385 386 pack f f;
#X obj 385 361 spigot;
#X obj 163 57 loadbang;
#X obj 163 103 counter 15;
#X obj 163 145 moses 7.5;
#X obj 508 270 * 10;
#X obj 508 247 + 1;
#X obj 130 388 pack f f;
#X obj 130 365 spigot;
#X obj 225 272 * 10;
#X obj 225 253 + 1;
#X obj 59 382 pack f f;
#X obj 59 358 spigot;
#X obj 313 356 spigot;
#X obj 313 378 pack f f;
#X obj 313 434 route 8 9 10 11 12 13 14 15;
#X text 344 63 constantly poll the array and update the lights;
#X obj 59 434 route 0 1 2 3 4 5 6 7, f 27;
#X obj 164 81 metro 10;
#N canvas 67 148 528 681 sd_col1a 0;
#X obj 60 125 sel 11 21 31 41 51 61 71 81;
#X obj 60 172 zl iter 2;
#X msg 60 152 81 0 71 0 61 0 51 0 41 0 31 0 21 0;
#X obj 83 212 zl iter 2;
#X msg 83 192 81 0 71 0 61 0 51 0 41 0 31 0 11 0;
#X obj 102 263 zl iter 2;
#X msg 102 243 81 0 71 0 61 0 51 0 41 0 21 0 11 0;
#X obj 130 313 zl iter 2;
#X msg 130 293 81 0 71 0 61 0 51 0 31 0 21 0 11 0;
#X obj 157 358 zl iter 2;
#X msg 157 338 81 0 71 0 61 0 41 0 31 0 21 0 11 0;
#X obj 183 402 zl iter 2;
#X msg 183 382 81 0 71 0 51 0 41 0 31 0 21 0 11 0;
#X obj 213 445 zl iter 2;
#X msg 213 425 81 0 61 0 51 0 41 0 31 0 21 0 11 0;
#X obj 231 492 zl iter 2;
#X msg 231 473 71 0 61 0 51 0 41 0 31 0 21 0 11 0;
#X obj 64 87 inlet;
#X obj 69 598 outlet;
#X connect 0 0 2 0;
#X connect 0 1 4 0;
#X connect 0 2 6 0;
#X connect 0 3 8 0;
#X connect 0 4 10 0;
#X connect 0 5 12 0;
#X connect 0 6 14 0;
#X connect 0 7 16 0;
#X connect 1 0 18 0;
#X connect 2 0 1 0;
#X connect 3 0 18 0;
#X connect 4 0 3 0;
#X connect 5 0 18 0;
#X connect 6 0 5 0;
#X connect 7 0 18 0;
#X connect 8 0 7 0;
#X connect 9 0 18 0;
#X connect 10 0 9 0;
#X connect 11 0 18 0;
#X connect 12 0 11 0;
#X connect 13 0 18 0;
#X connect 14 0 13 0;
#X connect 15 0 18 0;
#X connect 16 0 15 0;
#X connect 17 0 0 0;
#X restore 59 458 pd sd_col1a;
#N canvas 67 98 1222 681 sd_col2a 0;
#X obj 60 172 zl iter 2;
#X obj 83 212 zl iter 2;
#X obj 102 263 zl iter 2;
#X obj 130 313 zl iter 2;
#X obj 157 358 zl iter 2;
#X obj 183 402 zl iter 2;
#X obj 213 445 zl iter 2;
#X obj 231 492 zl iter 2;
#X obj 64 87 inlet;
#X obj 60 125 sel 12 22 32 42 52 62 72 82;
#X msg 60 152 82 0 72 0 62 0 52 0 42 0 32 0 22 0;
#X msg 82 192 82 0 72 0 62 0 52 0 42 0 32 0 12 0;
#X msg 100 243 82 0 72 0 62 0 52 0 42 0 22 0 12 0;
#X msg 130 290 82 0 72 0 62 0 52 0 32 0 22 0 12 0;
#X msg 155 338 82 0 72 0 62 0 42 0 32 0 22 0 12 0;
#X msg 180 382 82 0 72 0 52 0 42 0 32 0 22 0 12 0;
#X msg 212 425 82 0 62 0 52 0 42 0 32 0 22 0 12 0;
#X msg 229 472 72 0 62 0 52 0 42 0 32 0 22 0 12 0;
#X obj 69 598 outlet;
#X connect 0 0 18 0;
#X connect 1 0 18 0;
#X connect 2 0 18 0;
#X connect 3 0 18 0;
#X connect 4 0 18 0;
#X connect 5 0 18 0;
#X connect 6 0 18 0;
#X connect 7 0 18 0;
#X connect 8 0 9 0;
#X connect 9 0 10 0;
#X connect 9 1 11 0;
#X connect 9 2 12 0;
#X connect 9 3 13 0;
#X connect 9 4 14 0;
#X connect 9 5 15 0;
#X connect 9 6 16 0;
#X connect 9 7 17 0;
#X connect 10 0 0 0;
#X connect 11 0 1 0;
#X connect 12 0 2 0;
#X connect 13 0 3 0;
#X connect 14 0 4 0;
#X connect 15 0 5 0;
#X connect 16 0 6 0;
#X connect 17 0 7 0;
#X restore 75 482 pd sd_col2a;
#N canvas 67 82 767 818 sd_col3a 0;
#X obj 60 172 zl iter 2;
#X obj 83 212 zl iter 2;
#X obj 102 263 zl iter 2;
#X obj 130 313 zl iter 2;
#X obj 157 358 zl iter 2;
#X obj 183 402 zl iter 2;
#X obj 213 445 zl iter 2;
#X obj 231 492 zl iter 2;
#X obj 64 87 inlet;
#X obj 60 125 sel 13 23 33 43 53 63 73 83;
#X msg 60 152 83 0 73 0 63 0 53 0 43 0 33 0 23 0;
#X msg 82 192 83 0 73 0 63 0 53 0 43 0 33 0 13 0;
#X msg 100 243 83 0 73 0 63 0 53 0 43 0 23 0 13 0;
#X msg 130 290 83 0 73 0 63 0 53 0 33 0 23 0 13 0;
#X msg 155 338 83 0 73 0 63 0 43 0 33 0 23 0 13 0;
#X msg 180 382 83 0 73 0 53 0 43 0 33 0 23 0 13 0;
#X msg 212 425 83 0 63 0 53 0 43 0 33 0 23 0 13 0;
#X msg 229 472 73 0 63 0 53 0 43 0 33 0 23 0 13 0;
#X obj 69 598 outlet;
#X connect 0 0 18 0;
#X connect 1 0 18 0;
#X connect 2 0 18 0;
#X connect 3 0 18 0;
#X connect 4 0 18 0;
#X connect 5 0 18 0;
#X connect 6 0 18 0;
#X connect 7 0 18 0;
#X connect 8 0 9 0;
#X connect 9 0 10 0;
#X connect 9 1 11 0;
#X connect 9 2 12 0;
#X connect 9 3 13 0;
#X connect 9 4 14 0;
#X connect 9 5 15 0;
#X connect 9 6 16 0;
#X connect 9 7 17 0;
#X connect 10 0 0 0;
#X connect 11 0 1 0;
#X connect 12 0 2 0;
#X connect 13 0 3 0;
#X connect 14 0 4 0;
#X connect 15 0 5 0;
#X connect 16 0 6 0;
#X connect 17 0 7 0;
#X restore 93 504 pd sd_col3a;
#N canvas 67 104 1222 681 sd_col4a 0;
#X obj 60 172 zl iter 2;
#X obj 83 212 zl iter 2;
#X obj 102 263 zl iter 2;
#X obj 130 313 zl iter 2;
#X obj 157 358 zl iter 2;
#X obj 183 402 zl iter 2;
#X obj 213 445 zl iter 2;
#X obj 231 492 zl iter 2;
#X obj 64 87 inlet;
#X obj 60 125 sel 14 24 34 44 54 64 74 84;
#X msg 60 152 84 0 74 0 64 0 54 0 44 0 34 0 24 0;
#X msg 82 192 84 0 74 0 64 0 54 0 44 0 34 0 14 0;
#X msg 99 243 84 0 74 0 64 0 54 0 44 0 24 0 14 0;
#X msg 130 290 84 0 74 0 64 0 54 0 34 0 24 0 14 0;
#X msg 154 338 84 0 74 0 64 0 44 0 34 0 24 0 14 0;
#X msg 180 382 84 0 74 0 54 0 44 0 34 0 24 0 14 0;
#X msg 213 425 84 0 64 0 54 0 44 0 34 0 24 0 14 0;
#X msg 229 472 74 0 64 0 54 0 44 0 34 0 24 0 14 0;
#X obj 69 598 outlet;
#X connect 0 0 18 0;
#X connect 1 0 18 0;
#X connect 2 0 18 0;
#X connect 3 0 18 0;
#X connect 4 0 18 0;
#X connect 5 0 18 0;
#X connect 6 0 18 0;
#X connect 7 0 18 0;
#X connect 8 0 9 0;
#X connect 9 0 10 0;
#X connect 9 1 11 0;
#X connect 9 2 12 0;
#X connect 9 3 13 0;
#X connect 9 4 14 0;
#X connect 9 5 15 0;
#X connect 9 6 16 0;
#X connect 9 7 17 0;
#X connect 10 0 0 0;
#X connect 11 0 1 0;
#X connect 12 0 2 0;
#X connect 13 0 3 0;
#X connect 14 0 4 0;
#X connect 15 0 5 0;
#X connect 16 0 6 0;
#X connect 17 0 7 0;
#X restore 115 524 pd sd_col4a;
#N canvas 67 126 474 681 sd_col8a 0;
#X obj 60 172 zl iter 2;
#X obj 83 212 zl iter 2;
#X obj 102 263 zl iter 2;
#X obj 130 313 zl iter 2;
#X obj 157 358 zl iter 2;
#X obj 183 402 zl iter 2;
#X obj 213 445 zl iter 2;
#X obj 231 492 zl iter 2;
#X obj 64 87 inlet;
#X obj 60 125 sel 18 28 38 48 58 68 78 88;
#X msg 61 152 88 0 78 0 68 0 58 0 48 0 38 0 28 0;
#X msg 82 192 88 0 78 0 68 0 58 0 48 0 38 0 18 0;
#X msg 98 243 88 0 78 0 68 0 58 0 48 0 28 0 18 0;
#X msg 130 290 88 0 78 0 68 0 58 0 38 0 28 0 18 0;
#X msg 153 338 88 0 78 0 68 0 48 0 38 0 28 0 18 0;
#X msg 180 382 88 0 78 0 58 0 48 0 38 0 28 0 18 0;
#X msg 213 425 88 0 68 0 58 0 48 0 38 0 28 0 18 0;
#X msg 229 472 78 0 68 0 58 0 48 0 38 0 28 0 18 0;
#X obj 69 598 outlet;
#X connect 0 0 18 0;
#X connect 1 0 18 0;
#X connect 2 0 18 0;
#X connect 3 0 18 0;
#X connect 4 0 18 0;
#X connect 5 0 18 0;
#X connect 6 0 18 0;
#X connect 7 0 18 0;
#X connect 8 0 9 0;
#X connect 9 0 10 0;
#X connect 9 1 11 0;
#X connect 9 2 12 0;
#X connect 9 3 13 0;
#X connect 9 4 14 0;
#X connect 9 5 15 0;
#X connect 9 6 16 0;
#X connect 9 7 17 0;
#X connect 10 0 0 0;
#X connect 11 0 1 0;
#X connect 12 0 2 0;
#X connect 13 0 3 0;
#X connect 14 0 4 0;
#X connect 15 0 5 0;
#X connect 16 0 6 0;
#X connect 17 0 7 0;
#X restore 211 525 pd sd_col8a;
#N canvas 67 116 1222 681 sd_col7a 0;
#X obj 60 172 zl iter 2;
#X obj 83 212 zl iter 2;
#X obj 102 263 zl iter 2;
#X obj 130 313 zl iter 2;
#X obj 157 358 zl iter 2;
#X obj 183 402 zl iter 2;
#X obj 213 445 zl iter 2;
#X obj 231 492 zl iter 2;
#X obj 64 87 inlet;
#X obj 60 125 sel 17 27 37 47 57 67 77 87;
#X msg 61 152 87 0 77 0 67 0 57 0 47 0 37 0 27 0;
#X msg 82 192 87 0 77 0 67 0 57 0 47 0 37 0 17 0;
#X msg 99 243 87 0 77 0 67 0 57 0 47 0 27 0 17 0;
#X msg 130 290 87 0 77 0 67 0 57 0 37 0 27 0 17 0;
#X msg 153 338 87 0 77 0 67 0 47 0 37 0 27 0 17 0;
#X msg 180 382 87 0 77 0 57 0 47 0 37 0 27 0 17 0;
#X msg 213 425 87 0 67 0 57 0 47 0 37 0 27 0 17 0;
#X msg 229 472 77 0 67 0 57 0 47 0 37 0 27 0 17 0;
#X obj 69 598 outlet;
#X connect 0 0 18 0;
#X connect 1 0 18 0;
#X connect 2 0 18 0;
#X connect 3 0 18 0;
#X connect 4 0 18 0;
#X connect 5 0 18 0;
#X connect 6 0 18 0;
#X connect 7 0 18 0;
#X connect 8 0 9 0;
#X connect 9 0 10 0;
#X connect 9 1 11 0;
#X connect 9 2 12 0;
#X connect 9 3 13 0;
#X connect 9 4 14 0;
#X connect 9 5 15 0;
#X connect 9 6 16 0;
#X connect 9 7 17 0;
#X connect 10 0 0 0;
#X connect 11 0 1 0;
#X connect 12 0 2 0;
#X connect 13 0 3 0;
#X connect 14 0 4 0;
#X connect 15 0 5 0;
#X connect 16 0 6 0;
#X connect 17 0 7 0;
#X restore 195 504 pd sd_col7a;
#N canvas 67 112 512 681 sd_col6a 0;
#X obj 60 172 zl iter 2;
#X obj 83 212 zl iter 2;
#X obj 102 263 zl iter 2;
#X obj 130 313 zl iter 2;
#X obj 157 358 zl iter 2;
#X obj 183 402 zl iter 2;
#X obj 213 445 zl iter 2;
#X obj 231 492 zl iter 2;
#X obj 64 87 inlet;
#X obj 60 125 sel 16 26 36 46 56 66 76 86;
#X msg 61 152 86 0 76 0 66 0 56 0 46 0 36 0 26 0;
#X msg 82 192 86 0 76 0 66 0 56 0 46 0 36 0 16 0;
#X msg 99 243 86 0 76 0 66 0 56 0 46 0 26 0 16 0;
#X msg 130 290 86 0 76 0 66 0 56 0 36 0 26 0 16 0;
#X msg 153 338 86 0 76 0 66 0 46 0 36 0 26 0 16 0;
#X msg 180 382 86 0 76 0 56 0 46 0 36 0 26 0 16 0;
#X msg 213 425 86 0 66 0 56 0 46 0 36 0 26 0 16 0;
#X msg 229 472 76 0 66 0 56 0 46 0 36 0 26 0 16 0;
#X obj 69 598 outlet;
#X connect 0 0 18 0;
#X connect 1 0 18 0;
#X connect 2 0 18 0;
#X connect 3 0 18 0;
#X connect 4 0 18 0;
#X connect 5 0 18 0;
#X connect 6 0 18 0;
#X connect 7 0 18 0;
#X connect 8 0 9 0;
#X connect 9 0 10 0;
#X connect 9 1 11 0;
#X connect 9 2 12 0;
#X connect 9 3 13 0;
#X connect 9 4 14 0;
#X connect 9 5 15 0;
#X connect 9 6 16 0;
#X connect 9 7 17 0;
#X connect 10 0 0 0;
#X connect 11 0 1 0;
#X connect 12 0 2 0;
#X connect 13 0 3 0;
#X connect 14 0 4 0;
#X connect 15 0 5 0;
#X connect 16 0 6 0;
#X connect 17 0 7 0;
#X restore 173 482 pd sd_col6a;
#N canvas 67 106 486 681 sd_col5a 0;
#X obj 60 172 zl iter 2;
#X obj 83 212 zl iter 2;
#X obj 102 263 zl iter 2;
#X obj 130 313 zl iter 2;
#X obj 157 358 zl iter 2;
#X obj 183 402 zl iter 2;
#X obj 213 445 zl iter 2;
#X obj 231 492 zl iter 2;
#X obj 64 87 inlet;
#X obj 60 125 sel 15 25 35 45 55 65 75 85;
#X msg 61 152 85 0 75 0 65 0 55 0 45 0 35 0 25 0;
#X msg 82 192 85 0 75 0 65 0 55 0 45 0 35 0 15 0;
#X msg 99 243 85 0 75 0 65 0 55 0 45 0 25 0 15 0;
#X msg 130 290 85 0 75 0 65 0 55 0 35 0 25 0 15 0;
#X msg 153 338 85 0 75 0 65 0 45 0 35 0 25 0 15 0;
#X msg 180 382 85 0 75 0 55 0 45 0 35 0 25 0 15 0;
#X msg 213 425 85 0 65 0 55 0 45 0 35 0 25 0 15 0;
#X msg 229 472 75 0 65 0 55 0 45 0 35 0 25 0 15 0;
#X obj 69 598 outlet;
#X connect 0 0 18 0;
#X connect 1 0 18 0;
#X connect 2 0 18 0;
#X connect 3 0 18 0;
#X connect 4 0 18 0;
#X connect 5 0 18 0;
#X connect 6 0 18 0;
#X connect 7 0 18 0;
#X connect 8 0 9 0;
#X connect 9 0 10 0;
#X connect 9 1 11 0;
#X connect 9 2 12 0;
#X connect 9 3 13 0;
#X connect 9 4 14 0;
#X connect 9 5 15 0;
#X connect 9 6 16 0;
#X connect 9 7 17 0;
#X connect 10 0 0 0;
#X connect 11 0 1 0;
#X connect 12 0 2 0;
#X connect 13 0 3 0;
#X connect 14 0 4 0;
#X connect 15 0 5 0;
#X connect 16 0 6 0;
#X connect 17 0 7 0;
#X restore 156 458 pd sd_col5a;
#N canvas 67 88 502 681 sd_col1b 0;
#X obj 60 125 sel 11 21 31 41 51 61 71 81;
#X obj 60 172 zl iter 2;
#X msg 60 152 81 0 71 0 61 0 51 0 41 0 31 0 21 0;
#X obj 83 212 zl iter 2;
#X msg 83 192 81 0 71 0 61 0 51 0 41 0 31 0 11 0;
#X obj 102 263 zl iter 2;
#X msg 102 243 81 0 71 0 61 0 51 0 41 0 21 0 11 0;
#X obj 130 313 zl iter 2;
#X msg 130 293 81 0 71 0 61 0 51 0 31 0 21 0 11 0;
#X obj 157 358 zl iter 2;
#X msg 157 338 81 0 71 0 61 0 41 0 31 0 21 0 11 0;
#X obj 183 402 zl iter 2;
#X msg 183 382 81 0 71 0 51 0 41 0 31 0 21 0 11 0;
#X obj 213 445 zl iter 2;
#X msg 213 425 81 0 61 0 51 0 41 0 31 0 21 0 11 0;
#X obj 231 492 zl iter 2;
#X msg 231 473 71 0 61 0 51 0 41 0 31 0 21 0 11 0;
#X obj 64 87 inlet;
#X obj 70 599 outlet;
#X connect 0 0 2 0;
#X connect 0 1 4 0;
#X connect 0 2 6 0;
#X connect 0 3 8 0;
#X connect 0 4 10 0;
#X connect 0 5 12 0;
#X connect 0 6 14 0;
#X connect 0 7 16 0;
#X connect 1 0 18 0;
#X connect 2 0 1 0;
#X connect 3 0 18 0;
#X connect 4 0 3 0;
#X connect 5 0 18 0;
#X connect 6 0 5 0;
#X connect 7 0 18 0;
#X connect 8 0 7 0;
#X connect 9 0 18 0;
#X connect 10 0 9 0;
#X connect 11 0 18 0;
#X connect 12 0 11 0;
#X connect 13 0 18 0;
#X connect 14 0 13 0;
#X connect 15 0 18 0;
#X connect 16 0 15 0;
#X connect 17 0 0 0;
#X restore 313 460 pd sd_col1b;
#N canvas 67 98 516 681 sd_col2b 0;
#X obj 60 172 zl iter 2;
#X obj 83 212 zl iter 2;
#X obj 102 263 zl iter 2;
#X obj 130 313 zl iter 2;
#X obj 157 358 zl iter 2;
#X obj 183 402 zl iter 2;
#X obj 213 445 zl iter 2;
#X obj 231 492 zl iter 2;
#X obj 64 87 inlet;
#X obj 60 125 sel 12 22 32 42 52 62 72 82;
#X msg 60 152 82 0 72 0 62 0 52 0 42 0 32 0 22 0;
#X msg 82 192 82 0 72 0 62 0 52 0 42 0 32 0 12 0;
#X msg 100 243 82 0 72 0 62 0 52 0 42 0 22 0 12 0;
#X msg 130 290 82 0 72 0 62 0 52 0 32 0 22 0 12 0;
#X msg 155 338 82 0 72 0 62 0 42 0 32 0 22 0 12 0;
#X msg 180 382 82 0 72 0 52 0 42 0 32 0 22 0 12 0;
#X msg 212 425 82 0 62 0 52 0 42 0 32 0 22 0 12 0;
#X msg 229 472 72 0 62 0 52 0 42 0 32 0 22 0 12 0;
#X obj 69 598 outlet;
#X connect 0 0 18 0;
#X connect 1 0 18 0;
#X connect 2 0 18 0;
#X connect 3 0 18 0;
#X connect 4 0 18 0;
#X connect 5 0 18 0;
#X connect 6 0 18 0;
#X connect 7 0 18 0;
#X connect 8 0 9 0;
#X connect 9 0 10 0;
#X connect 9 1 11 0;
#X connect 9 2 12 0;
#X connect 9 3 13 0;
#X connect 9 4 14 0;
#X connect 9 5 15 0;
#X connect 9 6 16 0;
#X connect 9 7 17 0;
#X connect 10 0 0 0;
#X connect 11 0 1 0;
#X connect 12 0 2 0;
#X connect 13 0 3 0;
#X connect 14 0 4 0;
#X connect 15 0 5 0;
#X connect 16 0 6 0;
#X connect 17 0 7 0;
#X restore 335 484 pd sd_col2b;
#N canvas 67 100 502 681 sd_col3b 0;
#X obj 60 172 zl iter 2;
#X obj 83 212 zl iter 2;
#X obj 102 263 zl iter 2;
#X obj 130 313 zl iter 2;
#X obj 157 358 zl iter 2;
#X obj 183 402 zl iter 2;
#X obj 213 445 zl iter 2;
#X obj 231 492 zl iter 2;
#X obj 64 87 inlet;
#X obj 60 125 sel 13 23 33 43 53 63 73 83;
#X msg 60 152 83 0 73 0 63 0 53 0 43 0 33 0 23 0;
#X msg 82 192 83 0 73 0 63 0 53 0 43 0 33 0 13 0;
#X msg 100 243 83 0 73 0 63 0 53 0 43 0 23 0 13 0;
#X msg 130 290 83 0 73 0 63 0 53 0 33 0 23 0 13 0;
#X msg 155 338 83 0 73 0 63 0 43 0 33 0 23 0 13 0;
#X msg 180 382 83 0 73 0 53 0 43 0 33 0 23 0 13 0;
#X msg 212 425 83 0 63 0 53 0 43 0 33 0 23 0 13 0;
#X msg 229 472 73 0 63 0 53 0 43 0 33 0 23 0 13 0;
#X obj 69 598 outlet;
#X connect 0 0 18 0;
#X connect 1 0 18 0;
#X connect 2 0 18 0;
#X connect 3 0 18 0;
#X connect 4 0 18 0;
#X connect 5 0 18 0;
#X connect 6 0 18 0;
#X connect 7 0 18 0;
#X connect 8 0 9 0;
#X connect 9 0 10 0;
#X connect 9 1 11 0;
#X connect 9 2 12 0;
#X connect 9 3 13 0;
#X connect 9 4 14 0;
#X connect 9 5 15 0;
#X connect 9 6 16 0;
#X connect 9 7 17 0;
#X connect 10 0 0 0;
#X connect 11 0 1 0;
#X connect 12 0 2 0;
#X connect 13 0 3 0;
#X connect 14 0 4 0;
#X connect 15 0 5 0;
#X connect 16 0 6 0;
#X connect 17 0 7 0;
#X restore 358 506 pd sd_col3b;
#N canvas 67 116 1222 681 sd_col4b 0;
#X obj 60 172 zl iter 2;
#X obj 83 212 zl iter 2;
#X obj 102 263 zl iter 2;
#X obj 130 313 zl iter 2;
#X obj 157 358 zl iter 2;
#X obj 183 402 zl iter 2;
#X obj 213 445 zl iter 2;
#X obj 231 492 zl iter 2;
#X obj 64 87 inlet;
#X obj 60 125 sel 14 24 34 44 54 64 74 84;
#X msg 60 152 84 0 74 0 64 0 54 0 44 0 34 0 24 0;
#X msg 82 192 84 0 74 0 64 0 54 0 44 0 34 0 14 0;
#X msg 99 243 84 0 74 0 64 0 54 0 44 0 24 0 14 0;
#X msg 130 290 84 0 74 0 64 0 54 0 34 0 24 0 14 0;
#X msg 154 338 84 0 74 0 64 0 44 0 34 0 24 0 14 0;
#X msg 180 382 84 0 74 0 54 0 44 0 34 0 24 0 14 0;
#X msg 213 425 84 0 64 0 54 0 44 0 34 0 24 0 14 0;
#X msg 229 472 74 0 64 0 54 0 44 0 34 0 24 0 14 0;
#X obj 68 598 outlet;
#X connect 0 0 18 0;
#X connect 1 0 18 0;
#X connect 2 0 18 0;
#X connect 3 0 18 0;
#X connect 4 0 18 0;
#X connect 5 0 18 0;
#X connect 6 0 18 0;
#X connect 7 0 18 0;
#X connect 8 0 9 0;
#X connect 9 0 10 0;
#X connect 9 1 11 0;
#X connect 9 2 12 0;
#X connect 9 3 13 0;
#X connect 9 4 14 0;
#X connect 9 5 15 0;
#X connect 9 6 16 0;
#X connect 9 7 17 0;
#X connect 10 0 0 0;
#X connect 11 0 1 0;
#X connect 12 0 2 0;
#X connect 13 0 3 0;
#X connect 14 0 4 0;
#X connect 15 0 5 0;
#X connect 16 0 6 0;
#X connect 17 0 7 0;
#X restore 378 528 pd sd_col4b;
#N canvas 67 132 492 681 sd_col8b 0;
#X obj 60 172 zl iter 2;
#X obj 83 212 zl iter 2;
#X obj 102 263 zl iter 2;
#X obj 130 313 zl iter 2;
#X obj 157 358 zl iter 2;
#X obj 183 402 zl iter 2;
#X obj 213 445 zl iter 2;
#X obj 231 492 zl iter 2;
#X obj 64 87 inlet;
#X obj 60 125 sel 18 28 38 48 58 68 78 88;
#X msg 61 152 88 0 78 0 68 0 58 0 48 0 38 0 28 0;
#X msg 82 192 88 0 78 0 68 0 58 0 48 0 38 0 18 0;
#X msg 98 243 88 0 78 0 68 0 58 0 48 0 28 0 18 0;
#X msg 130 290 88 0 78 0 68 0 58 0 38 0 28 0 18 0;
#X msg 153 338 88 0 78 0 68 0 48 0 38 0 28 0 18 0;
#X msg 180 382 88 0 78 0 58 0 48 0 38 0 28 0 18 0;
#X msg 213 425 88 0 68 0 58 0 48 0 38 0 28 0 18 0;
#X msg 229 472 78 0 68 0 58 0 48 0 38 0 28 0 18 0;
#X obj 69 598 outlet;
#X connect 0 0 18 0;
#X connect 1 0 18 0;
#X connect 2 0 18 0;
#X connect 3 0 18 0;
#X connect 4 0 18 0;
#X connect 5 0 18 0;
#X connect 6 0 18 0;
#X connect 7 0 18 0;
#X connect 8 0 9 0;
#X connect 9 0 10 0;
#X connect 9 1 11 0;
#X connect 9 2 12 0;
#X connect 9 3 13 0;
#X connect 9 4 14 0;
#X connect 9 5 15 0;
#X connect 9 6 16 0;
#X connect 9 7 17 0;
#X connect 10 0 0 0;
#X connect 11 0 1 0;
#X connect 12 0 2 0;
#X connect 13 0 3 0;
#X connect 14 0 4 0;
#X connect 15 0 5 0;
#X connect 16 0 6 0;
#X connect 17 0 7 0;
#X restore 480 526 pd sd_col8b;
#N canvas 67 128 1222 681 sd_col7b 0;
#X obj 60 172 zl iter 2;
#X obj 83 212 zl iter 2;
#X obj 102 263 zl iter 2;
#X obj 130 313 zl iter 2;
#X obj 157 358 zl iter 2;
#X obj 183 402 zl iter 2;
#X obj 213 445 zl iter 2;
#X obj 231 492 zl iter 2;
#X obj 64 87 inlet;
#X obj 60 125 sel 17 27 37 47 57 67 77 87;
#X msg 61 152 87 0 77 0 67 0 57 0 47 0 37 0 27 0;
#X msg 82 192 87 0 77 0 67 0 57 0 47 0 37 0 17 0;
#X msg 99 243 87 0 77 0 67 0 57 0 47 0 27 0 17 0;
#X msg 130 290 87 0 77 0 67 0 57 0 37 0 27 0 17 0;
#X msg 153 338 87 0 77 0 67 0 47 0 37 0 27 0 17 0;
#X msg 180 382 87 0 77 0 57 0 47 0 37 0 27 0 17 0;
#X msg 213 425 87 0 67 0 57 0 47 0 37 0 27 0 17 0;
#X msg 229 472 77 0 67 0 57 0 47 0 37 0 27 0 17 0;
#X obj 69 598 outlet;
#X connect 0 0 18 0;
#X connect 1 0 18 0;
#X connect 2 0 18 0;
#X connect 3 0 18 0;
#X connect 4 0 18 0;
#X connect 5 0 18 0;
#X connect 6 0 18 0;
#X connect 7 0 18 0;
#X connect 8 0 9 0;
#X connect 9 0 10 0;
#X connect 9 1 11 0;
#X connect 9 2 12 0;
#X connect 9 3 13 0;
#X connect 9 4 14 0;
#X connect 9 5 15 0;
#X connect 9 6 16 0;
#X connect 9 7 17 0;
#X connect 10 0 0 0;
#X connect 11 0 1 0;
#X connect 12 0 2 0;
#X connect 13 0 3 0;
#X connect 14 0 4 0;
#X connect 15 0 5 0;
#X connect 16 0 6 0;
#X connect 17 0 7 0;
#X restore 462 506 pd sd_col7b;
#N canvas 67 118 1222 681 sd_col6b 0;
#X obj 60 172 zl iter 2;
#X obj 83 212 zl iter 2;
#X obj 102 263 zl iter 2;
#X obj 130 313 zl iter 2;
#X obj 157 358 zl iter 2;
#X obj 183 402 zl iter 2;
#X obj 213 445 zl iter 2;
#X obj 231 492 zl iter 2;
#X obj 64 87 inlet;
#X obj 60 125 sel 16 26 36 46 56 66 76 86;
#X msg 61 152 86 0 76 0 66 0 56 0 46 0 36 0 26 0;
#X msg 82 192 86 0 76 0 66 0 56 0 46 0 36 0 16 0;
#X msg 99 243 86 0 76 0 66 0 56 0 46 0 26 0 16 0;
#X msg 130 290 86 0 76 0 66 0 56 0 36 0 26 0 16 0;
#X msg 153 338 86 0 76 0 66 0 46 0 36 0 26 0 16 0;
#X msg 180 382 86 0 76 0 56 0 46 0 36 0 26 0 16 0;
#X msg 213 425 86 0 66 0 56 0 46 0 36 0 26 0 16 0;
#X msg 229 472 76 0 66 0 56 0 46 0 36 0 26 0 16 0;
#X obj 70 598 outlet;
#X connect 0 0 18 0;
#X connect 1 0 18 0;
#X connect 2 0 18 0;
#X connect 3 0 18 0;
#X connect 4 0 18 0;
#X connect 5 0 18 0;
#X connect 6 0 18 0;
#X connect 7 0 18 0;
#X connect 8 0 9 0;
#X connect 9 0 10 0;
#X connect 9 1 11 0;
#X connect 9 2 12 0;
#X connect 9 3 13 0;
#X connect 9 4 14 0;
#X connect 9 5 15 0;
#X connect 9 6 16 0;
#X connect 9 7 17 0;
#X connect 10 0 0 0;
#X connect 11 0 1 0;
#X connect 12 0 2 0;
#X connect 13 0 3 0;
#X connect 14 0 4 0;
#X connect 15 0 5 0;
#X connect 16 0 6 0;
#X connect 17 0 7 0;
#X restore 432 484 pd sd_col6b;
#N canvas 67 112 508 681 sd_col5b 0;
#X obj 60 172 zl iter 2;
#X obj 83 212 zl iter 2;
#X obj 102 263 zl iter 2;
#X obj 130 313 zl iter 2;
#X obj 157 358 zl iter 2;
#X obj 183 402 zl iter 2;
#X obj 213 445 zl iter 2;
#X obj 231 492 zl iter 2;
#X obj 64 87 inlet;
#X obj 60 125 sel 15 25 35 45 55 65 75 85;
#X msg 61 152 85 0 75 0 65 0 55 0 45 0 35 0 25 0;
#X msg 82 192 85 0 75 0 65 0 55 0 45 0 35 0 15 0;
#X msg 99 243 85 0 75 0 65 0 55 0 45 0 25 0 15 0;
#X msg 130 290 85 0 75 0 65 0 55 0 35 0 25 0 15 0;
#X msg 153 338 85 0 75 0 65 0 45 0 35 0 25 0 15 0;
#X msg 180 382 85 0 75 0 55 0 45 0 35 0 25 0 15 0;
#X msg 213 425 85 0 65 0 55 0 45 0 35 0 25 0 15 0;
#X msg 229 472 75 0 65 0 55 0 45 0 35 0 25 0 15 0;
#X obj 69 598 outlet;
#X connect 0 0 18 0;
#X connect 1 0 18 0;
#X connect 2 0 18 0;
#X connect 3 0 18 0;
#X connect 4 0 18 0;
#X connect 5 0 18 0;
#X connect 6 0 18 0;
#X connect 7 0 18 0;
#X connect 8 0 9 0;
#X connect 9 0 10 0;
#X connect 9 1 11 0;
#X connect 9 2 12 0;
#X connect 9 3 13 0;
#X connect 9 4 14 0;
#X connect 9 5 15 0;
#X connect 9 6 16 0;
#X connect 9 7 17 0;
#X connect 10 0 0 0;
#X connect 11 0 1 0;
#X connect 12 0 2 0;
#X connect 13 0 3 0;
#X connect 14 0 4 0;
#X connect 15 0 5 0;
#X connect 16 0 6 0;
#X connect 17 0 7 0;
#X restore 413 459 pd sd_col5b;
#X obj 59 555 s s\$1_m2a_tognote;
#X obj 335 552 s s\$1_m2b_tognote;
#X obj 130 410 s s\$1_m2a_tognote;
#X obj 385 407 s s\$1_m2b_tognote;
#X obj 704 39 bng 15 250 50 0 empty empty empty 17 7 0 10 -262144 -1
-1;
#X msg 737 37 0;
#X obj 926 386 pack f f;
#X obj 926 361 spigot;
#X obj 704 57 loadbang;
#X obj 704 103 counter 15;
#X obj 704 145 moses 7.5;
#X obj 1049 270 * 10;
#X obj 1049 251 + 1;
#X obj 671 388 pack f f;
#X obj 671 365 spigot;
#X obj 766 276 * 10;
#X obj 766 253 + 1;
#X obj 600 382 pack f f;
#X obj 600 358 spigot;
#X obj 854 356 spigot;
#X obj 854 378 pack f f;
#X obj 854 434 route 8 9 10 11 12 13 14 15;
#X text 885 63 constantly poll the array and update the lights;
#X obj 600 434 route 0 1 2 3 4 5 6 7, f 27;
#X obj 705 81 metro 10;
#N canvas 67 98 528 681 sd_col1a 0;
#X obj 60 125 sel 11 21 31 41 51 61 71 81;
#X obj 60 172 zl iter 2;
#X msg 60 152 81 0 71 0 61 0 51 0 41 0 31 0 21 0;
#X obj 83 212 zl iter 2;
#X msg 83 192 81 0 71 0 61 0 51 0 41 0 31 0 11 0;
#X obj 102 263 zl iter 2;
#X msg 102 243 81 0 71 0 61 0 51 0 41 0 21 0 11 0;
#X obj 130 313 zl iter 2;
#X msg 130 293 81 0 71 0 61 0 51 0 31 0 21 0 11 0;
#X obj 157 358 zl iter 2;
#X msg 157 338 81 0 71 0 61 0 41 0 31 0 21 0 11 0;
#X obj 183 402 zl iter 2;
#X msg 183 382 81 0 71 0 51 0 41 0 31 0 21 0 11 0;
#X obj 213 445 zl iter 2;
#X msg 213 425 81 0 61 0 51 0 41 0 31 0 21 0 11 0;
#X obj 231 492 zl iter 2;
#X msg 231 473 71 0 61 0 51 0 41 0 31 0 21 0 11 0;
#X obj 64 87 inlet;
#X obj 69 598 outlet;
#X connect 0 0 2 0;
#X connect 0 1 4 0;
#X connect 0 2 6 0;
#X connect 0 3 8 0;
#X connect 0 4 10 0;
#X connect 0 5 12 0;
#X connect 0 6 14 0;
#X connect 0 7 16 0;
#X connect 1 0 18 0;
#X connect 2 0 1 0;
#X connect 3 0 18 0;
#X connect 4 0 3 0;
#X connect 5 0 18 0;
#X connect 6 0 5 0;
#X connect 7 0 18 0;
#X connect 8 0 7 0;
#X connect 9 0 18 0;
#X connect 10 0 9 0;
#X connect 11 0 18 0;
#X connect 12 0 11 0;
#X connect 13 0 18 0;
#X connect 14 0 13 0;
#X connect 15 0 18 0;
#X connect 16 0 15 0;
#X connect 17 0 0 0;
#X restore 600 458 pd sd_col1a;
#N canvas 67 98 1222 681 sd_col2a 0;
#X obj 60 172 zl iter 2;
#X obj 83 212 zl iter 2;
#X obj 102 263 zl iter 2;
#X obj 130 313 zl iter 2;
#X obj 157 358 zl iter 2;
#X obj 183 402 zl iter 2;
#X obj 213 445 zl iter 2;
#X obj 231 492 zl iter 2;
#X obj 64 87 inlet;
#X obj 60 125 sel 12 22 32 42 52 62 72 82;
#X msg 60 152 82 0 72 0 62 0 52 0 42 0 32 0 22 0;
#X msg 82 192 82 0 72 0 62 0 52 0 42 0 32 0 12 0;
#X msg 100 243 82 0 72 0 62 0 52 0 42 0 22 0 12 0;
#X msg 130 290 82 0 72 0 62 0 52 0 32 0 22 0 12 0;
#X msg 155 338 82 0 72 0 62 0 42 0 32 0 22 0 12 0;
#X msg 180 382 82 0 72 0 52 0 42 0 32 0 22 0 12 0;
#X msg 212 425 82 0 62 0 52 0 42 0 32 0 22 0 12 0;
#X msg 229 472 72 0 62 0 52 0 42 0 32 0 22 0 12 0;
#X obj 69 598 outlet;
#X connect 0 0 18 0;
#X connect 1 0 18 0;
#X connect 2 0 18 0;
#X connect 3 0 18 0;
#X connect 4 0 18 0;
#X connect 5 0 18 0;
#X connect 6 0 18 0;
#X connect 7 0 18 0;
#X connect 8 0 9 0;
#X connect 9 0 10 0;
#X connect 9 1 11 0;
#X connect 9 2 12 0;
#X connect 9 3 13 0;
#X connect 9 4 14 0;
#X connect 9 5 15 0;
#X connect 9 6 16 0;
#X connect 9 7 17 0;
#X connect 10 0 0 0;
#X connect 11 0 1 0;
#X connect 12 0 2 0;
#X connect 13 0 3 0;
#X connect 14 0 4 0;
#X connect 15 0 5 0;
#X connect 16 0 6 0;
#X connect 17 0 7 0;
#X restore 616 482 pd sd_col2a;
#N canvas 67 82 767 818 sd_col3a 0;
#X obj 60 172 zl iter 2;
#X obj 83 212 zl iter 2;
#X obj 102 263 zl iter 2;
#X obj 130 313 zl iter 2;
#X obj 157 358 zl iter 2;
#X obj 183 402 zl iter 2;
#X obj 213 445 zl iter 2;
#X obj 231 492 zl iter 2;
#X obj 64 87 inlet;
#X obj 60 125 sel 13 23 33 43 53 63 73 83;
#X msg 60 152 83 0 73 0 63 0 53 0 43 0 33 0 23 0;
#X msg 82 192 83 0 73 0 63 0 53 0 43 0 33 0 13 0;
#X msg 100 243 83 0 73 0 63 0 53 0 43 0 23 0 13 0;
#X msg 130 290 83 0 73 0 63 0 53 0 33 0 23 0 13 0;
#X msg 155 338 83 0 73 0 63 0 43 0 33 0 23 0 13 0;
#X msg 180 382 83 0 73 0 53 0 43 0 33 0 23 0 13 0;
#X msg 212 425 83 0 63 0 53 0 43 0 33 0 23 0 13 0;
#X msg 229 472 73 0 63 0 53 0 43 0 33 0 23 0 13 0;
#X obj 69 598 outlet;
#X connect 0 0 18 0;
#X connect 1 0 18 0;
#X connect 2 0 18 0;
#X connect 3 0 18 0;
#X connect 4 0 18 0;
#X connect 5 0 18 0;
#X connect 6 0 18 0;
#X connect 7 0 18 0;
#X connect 8 0 9 0;
#X connect 9 0 10 0;
#X connect 9 1 11 0;
#X connect 9 2 12 0;
#X connect 9 3 13 0;
#X connect 9 4 14 0;
#X connect 9 5 15 0;
#X connect 9 6 16 0;
#X connect 9 7 17 0;
#X connect 10 0 0 0;
#X connect 11 0 1 0;
#X connect 12 0 2 0;
#X connect 13 0 3 0;
#X connect 14 0 4 0;
#X connect 15 0 5 0;
#X connect 16 0 6 0;
#X connect 17 0 7 0;
#X restore 634 504 pd sd_col3a;
#N canvas 67 104 1222 681 sd_col4a 0;
#X obj 60 172 zl iter 2;
#X obj 83 212 zl iter 2;
#X obj 102 263 zl iter 2;
#X obj 130 313 zl iter 2;
#X obj 157 358 zl iter 2;
#X obj 183 402 zl iter 2;
#X obj 213 445 zl iter 2;
#X obj 231 492 zl iter 2;
#X obj 64 87 inlet;
#X obj 60 125 sel 14 24 34 44 54 64 74 84;
#X msg 60 152 84 0 74 0 64 0 54 0 44 0 34 0 24 0;
#X msg 82 192 84 0 74 0 64 0 54 0 44 0 34 0 14 0;
#X msg 99 243 84 0 74 0 64 0 54 0 44 0 24 0 14 0;
#X msg 130 290 84 0 74 0 64 0 54 0 34 0 24 0 14 0;
#X msg 154 338 84 0 74 0 64 0 44 0 34 0 24 0 14 0;
#X msg 180 382 84 0 74 0 54 0 44 0 34 0 24 0 14 0;
#X msg 213 425 84 0 64 0 54 0 44 0 34 0 24 0 14 0;
#X msg 229 472 74 0 64 0 54 0 44 0 34 0 24 0 14 0;
#X obj 69 598 outlet;
#X connect 0 0 18 0;
#X connect 1 0 18 0;
#X connect 2 0 18 0;
#X connect 3 0 18 0;
#X connect 4 0 18 0;
#X connect 5 0 18 0;
#X connect 6 0 18 0;
#X connect 7 0 18 0;
#X connect 8 0 9 0;
#X connect 9 0 10 0;
#X connect 9 1 11 0;
#X connect 9 2 12 0;
#X connect 9 3 13 0;
#X connect 9 4 14 0;
#X connect 9 5 15 0;
#X connect 9 6 16 0;
#X connect 9 7 17 0;
#X connect 10 0 0 0;
#X connect 11 0 1 0;
#X connect 12 0 2 0;
#X connect 13 0 3 0;
#X connect 14 0 4 0;
#X connect 15 0 5 0;
#X connect 16 0 6 0;
#X connect 17 0 7 0;
#X restore 656 524 pd sd_col4a;
#N canvas 67 126 474 681 sd_col8a 0;
#X obj 60 172 zl iter 2;
#X obj 83 212 zl iter 2;
#X obj 102 263 zl iter 2;
#X obj 130 313 zl iter 2;
#X obj 157 358 zl iter 2;
#X obj 183 402 zl iter 2;
#X obj 213 445 zl iter 2;
#X obj 231 492 zl iter 2;
#X obj 64 87 inlet;
#X obj 60 125 sel 18 28 38 48 58 68 78 88;
#X msg 61 152 88 0 78 0 68 0 58 0 48 0 38 0 28 0;
#X msg 82 192 88 0 78 0 68 0 58 0 48 0 38 0 18 0;
#X msg 98 243 88 0 78 0 68 0 58 0 48 0 28 0 18 0;
#X msg 130 290 88 0 78 0 68 0 58 0 38 0 28 0 18 0;
#X msg 153 338 88 0 78 0 68 0 48 0 38 0 28 0 18 0;
#X msg 180 382 88 0 78 0 58 0 48 0 38 0 28 0 18 0;
#X msg 213 425 88 0 68 0 58 0 48 0 38 0 28 0 18 0;
#X msg 229 472 78 0 68 0 58 0 48 0 38 0 28 0 18 0;
#X obj 69 598 outlet;
#X connect 0 0 18 0;
#X connect 1 0 18 0;
#X connect 2 0 18 0;
#X connect 3 0 18 0;
#X connect 4 0 18 0;
#X connect 5 0 18 0;
#X connect 6 0 18 0;
#X connect 7 0 18 0;
#X connect 8 0 9 0;
#X connect 9 0 10 0;
#X connect 9 1 11 0;
#X connect 9 2 12 0;
#X connect 9 3 13 0;
#X connect 9 4 14 0;
#X connect 9 5 15 0;
#X connect 9 6 16 0;
#X connect 9 7 17 0;
#X connect 10 0 0 0;
#X connect 11 0 1 0;
#X connect 12 0 2 0;
#X connect 13 0 3 0;
#X connect 14 0 4 0;
#X connect 15 0 5 0;
#X connect 16 0 6 0;
#X connect 17 0 7 0;
#X restore 752 525 pd sd_col8a;
#N canvas 67 116 1222 681 sd_col7a 0;
#X obj 60 172 zl iter 2;
#X obj 83 212 zl iter 2;
#X obj 102 263 zl iter 2;
#X obj 130 313 zl iter 2;
#X obj 157 358 zl iter 2;
#X obj 183 402 zl iter 2;
#X obj 213 445 zl iter 2;
#X obj 231 492 zl iter 2;
#X obj 64 87 inlet;
#X obj 60 125 sel 17 27 37 47 57 67 77 87;
#X msg 61 152 87 0 77 0 67 0 57 0 47 0 37 0 27 0;
#X msg 82 192 87 0 77 0 67 0 57 0 47 0 37 0 17 0;
#X msg 99 243 87 0 77 0 67 0 57 0 47 0 27 0 17 0;
#X msg 130 290 87 0 77 0 67 0 57 0 37 0 27 0 17 0;
#X msg 153 338 87 0 77 0 67 0 47 0 37 0 27 0 17 0;
#X msg 180 382 87 0 77 0 57 0 47 0 37 0 27 0 17 0;
#X msg 213 425 87 0 67 0 57 0 47 0 37 0 27 0 17 0;
#X msg 229 472 77 0 67 0 57 0 47 0 37 0 27 0 17 0;
#X obj 69 598 outlet;
#X connect 0 0 18 0;
#X connect 1 0 18 0;
#X connect 2 0 18 0;
#X connect 3 0 18 0;
#X connect 4 0 18 0;
#X connect 5 0 18 0;
#X connect 6 0 18 0;
#X connect 7 0 18 0;
#X connect 8 0 9 0;
#X connect 9 0 10 0;
#X connect 9 1 11 0;
#X connect 9 2 12 0;
#X connect 9 3 13 0;
#X connect 9 4 14 0;
#X connect 9 5 15 0;
#X connect 9 6 16 0;
#X connect 9 7 17 0;
#X connect 10 0 0 0;
#X connect 11 0 1 0;
#X connect 12 0 2 0;
#X connect 13 0 3 0;
#X connect 14 0 4 0;
#X connect 15 0 5 0;
#X connect 16 0 6 0;
#X connect 17 0 7 0;
#X restore 736 504 pd sd_col7a;
#N canvas 67 112 512 681 sd_col6a 0;
#X obj 60 172 zl iter 2;
#X obj 83 212 zl iter 2;
#X obj 102 263 zl iter 2;
#X obj 130 313 zl iter 2;
#X obj 157 358 zl iter 2;
#X obj 183 402 zl iter 2;
#X obj 213 445 zl iter 2;
#X obj 231 492 zl iter 2;
#X obj 64 87 inlet;
#X obj 60 125 sel 16 26 36 46 56 66 76 86;
#X msg 61 152 86 0 76 0 66 0 56 0 46 0 36 0 26 0;
#X msg 82 192 86 0 76 0 66 0 56 0 46 0 36 0 16 0;
#X msg 99 243 86 0 76 0 66 0 56 0 46 0 26 0 16 0;
#X msg 130 290 86 0 76 0 66 0 56 0 36 0 26 0 16 0;
#X msg 153 338 86 0 76 0 66 0 46 0 36 0 26 0 16 0;
#X msg 180 382 86 0 76 0 56 0 46 0 36 0 26 0 16 0;
#X msg 213 425 86 0 66 0 56 0 46 0 36 0 26 0 16 0;
#X msg 229 472 76 0 66 0 56 0 46 0 36 0 26 0 16 0;
#X obj 69 598 outlet;
#X connect 0 0 18 0;
#X connect 1 0 18 0;
#X connect 2 0 18 0;
#X connect 3 0 18 0;
#X connect 4 0 18 0;
#X connect 5 0 18 0;
#X connect 6 0 18 0;
#X connect 7 0 18 0;
#X connect 8 0 9 0;
#X connect 9 0 10 0;
#X connect 9 1 11 0;
#X connect 9 2 12 0;
#X connect 9 3 13 0;
#X connect 9 4 14 0;
#X connect 9 5 15 0;
#X connect 9 6 16 0;
#X connect 9 7 17 0;
#X connect 10 0 0 0;
#X connect 11 0 1 0;
#X connect 12 0 2 0;
#X connect 13 0 3 0;
#X connect 14 0 4 0;
#X connect 15 0 5 0;
#X connect 16 0 6 0;
#X connect 17 0 7 0;
#X restore 714 482 pd sd_col6a;
#N canvas 67 106 486 681 sd_col5a 0;
#X obj 60 172 zl iter 2;
#X obj 83 212 zl iter 2;
#X obj 102 263 zl iter 2;
#X obj 130 313 zl iter 2;
#X obj 157 358 zl iter 2;
#X obj 183 402 zl iter 2;
#X obj 213 445 zl iter 2;
#X obj 231 492 zl iter 2;
#X obj 64 87 inlet;
#X obj 60 125 sel 15 25 35 45 55 65 75 85;
#X msg 61 152 85 0 75 0 65 0 55 0 45 0 35 0 25 0;
#X msg 82 192 85 0 75 0 65 0 55 0 45 0 35 0 15 0;
#X msg 99 243 85 0 75 0 65 0 55 0 45 0 25 0 15 0;
#X msg 130 290 85 0 75 0 65 0 55 0 35 0 25 0 15 0;
#X msg 153 338 85 0 75 0 65 0 45 0 35 0 25 0 15 0;
#X msg 180 382 85 0 75 0 55 0 45 0 35 0 25 0 15 0;
#X msg 213 425 85 0 65 0 55 0 45 0 35 0 25 0 15 0;
#X msg 229 472 75 0 65 0 55 0 45 0 35 0 25 0 15 0;
#X obj 69 598 outlet;
#X connect 0 0 18 0;
#X connect 1 0 18 0;
#X connect 2 0 18 0;
#X connect 3 0 18 0;
#X connect 4 0 18 0;
#X connect 5 0 18 0;
#X connect 6 0 18 0;
#X connect 7 0 18 0;
#X connect 8 0 9 0;
#X connect 9 0 10 0;
#X connect 9 1 11 0;
#X connect 9 2 12 0;
#X connect 9 3 13 0;
#X connect 9 4 14 0;
#X connect 9 5 15 0;
#X connect 9 6 16 0;
#X connect 9 7 17 0;
#X connect 10 0 0 0;
#X connect 11 0 1 0;
#X connect 12 0 2 0;
#X connect 13 0 3 0;
#X connect 14 0 4 0;
#X connect 15 0 5 0;
#X connect 16 0 6 0;
#X connect 17 0 7 0;
#X restore 697 458 pd sd_col5a;
#N canvas 67 88 502 681 sd_col1b 0;
#X obj 60 125 sel 11 21 31 41 51 61 71 81;
#X obj 60 172 zl iter 2;
#X msg 60 152 81 0 71 0 61 0 51 0 41 0 31 0 21 0;
#X obj 83 212 zl iter 2;
#X msg 83 192 81 0 71 0 61 0 51 0 41 0 31 0 11 0;
#X obj 102 263 zl iter 2;
#X msg 102 243 81 0 71 0 61 0 51 0 41 0 21 0 11 0;
#X obj 130 313 zl iter 2;
#X msg 130 293 81 0 71 0 61 0 51 0 31 0 21 0 11 0;
#X obj 157 358 zl iter 2;
#X msg 157 338 81 0 71 0 61 0 41 0 31 0 21 0 11 0;
#X obj 183 402 zl iter 2;
#X msg 183 382 81 0 71 0 51 0 41 0 31 0 21 0 11 0;
#X obj 213 445 zl iter 2;
#X msg 213 425 81 0 61 0 51 0 41 0 31 0 21 0 11 0;
#X obj 231 492 zl iter 2;
#X msg 231 473 71 0 61 0 51 0 41 0 31 0 21 0 11 0;
#X obj 64 87 inlet;
#X obj 70 599 outlet;
#X connect 0 0 2 0;
#X connect 0 1 4 0;
#X connect 0 2 6 0;
#X connect 0 3 8 0;
#X connect 0 4 10 0;
#X connect 0 5 12 0;
#X connect 0 6 14 0;
#X connect 0 7 16 0;
#X connect 1 0 18 0;
#X connect 2 0 1 0;
#X connect 3 0 18 0;
#X connect 4 0 3 0;
#X connect 5 0 18 0;
#X connect 6 0 5 0;
#X connect 7 0 18 0;
#X connect 8 0 7 0;
#X connect 9 0 18 0;
#X connect 10 0 9 0;
#X connect 11 0 18 0;
#X connect 12 0 11 0;
#X connect 13 0 18 0;
#X connect 14 0 13 0;
#X connect 15 0 18 0;
#X connect 16 0 15 0;
#X connect 17 0 0 0;
#X restore 854 460 pd sd_col1b;
#N canvas 67 98 516 681 sd_col2b 0;
#X obj 60 172 zl iter 2;
#X obj 83 212 zl iter 2;
#X obj 102 263 zl iter 2;
#X obj 130 313 zl iter 2;
#X obj 157 358 zl iter 2;
#X obj 183 402 zl iter 2;
#X obj 213 445 zl iter 2;
#X obj 231 492 zl iter 2;
#X obj 64 87 inlet;
#X obj 60 125 sel 12 22 32 42 52 62 72 82;
#X msg 60 152 82 0 72 0 62 0 52 0 42 0 32 0 22 0;
#X msg 82 192 82 0 72 0 62 0 52 0 42 0 32 0 12 0;
#X msg 100 243 82 0 72 0 62 0 52 0 42 0 22 0 12 0;
#X msg 130 290 82 0 72 0 62 0 52 0 32 0 22 0 12 0;
#X msg 155 338 82 0 72 0 62 0 42 0 32 0 22 0 12 0;
#X msg 180 382 82 0 72 0 52 0 42 0 32 0 22 0 12 0;
#X msg 212 425 82 0 62 0 52 0 42 0 32 0 22 0 12 0;
#X msg 229 472 72 0 62 0 52 0 42 0 32 0 22 0 12 0;
#X obj 69 598 outlet;
#X connect 0 0 18 0;
#X connect 1 0 18 0;
#X connect 2 0 18 0;
#X connect 3 0 18 0;
#X connect 4 0 18 0;
#X connect 5 0 18 0;
#X connect 6 0 18 0;
#X connect 7 0 18 0;
#X connect 8 0 9 0;
#X connect 9 0 10 0;
#X connect 9 1 11 0;
#X connect 9 2 12 0;
#X connect 9 3 13 0;
#X connect 9 4 14 0;
#X connect 9 5 15 0;
#X connect 9 6 16 0;
#X connect 9 7 17 0;
#X connect 10 0 0 0;
#X connect 11 0 1 0;
#X connect 12 0 2 0;
#X connect 13 0 3 0;
#X connect 14 0 4 0;
#X connect 15 0 5 0;
#X connect 16 0 6 0;
#X connect 17 0 7 0;
#X restore 873 484 pd sd_col2b;
#N canvas 67 100 502 681 sd_col3b 0;
#X obj 60 172 zl iter 2;
#X obj 83 212 zl iter 2;
#X obj 102 263 zl iter 2;
#X obj 130 313 zl iter 2;
#X obj 157 358 zl iter 2;
#X obj 183 402 zl iter 2;
#X obj 213 445 zl iter 2;
#X obj 231 492 zl iter 2;
#X obj 64 87 inlet;
#X obj 60 125 sel 13 23 33 43 53 63 73 83;
#X msg 60 152 83 0 73 0 63 0 53 0 43 0 33 0 23 0;
#X msg 82 192 83 0 73 0 63 0 53 0 43 0 33 0 13 0;
#X msg 100 243 83 0 73 0 63 0 53 0 43 0 23 0 13 0;
#X msg 130 290 83 0 73 0 63 0 53 0 33 0 23 0 13 0;
#X msg 155 338 83 0 73 0 63 0 43 0 33 0 23 0 13 0;
#X msg 180 382 83 0 73 0 53 0 43 0 33 0 23 0 13 0;
#X msg 212 425 83 0 63 0 53 0 43 0 33 0 23 0 13 0;
#X msg 229 472 73 0 63 0 53 0 43 0 33 0 23 0 13 0;
#X obj 69 598 outlet;
#X connect 0 0 18 0;
#X connect 1 0 18 0;
#X connect 2 0 18 0;
#X connect 3 0 18 0;
#X connect 4 0 18 0;
#X connect 5 0 18 0;
#X connect 6 0 18 0;
#X connect 7 0 18 0;
#X connect 8 0 9 0;
#X connect 9 0 10 0;
#X connect 9 1 11 0;
#X connect 9 2 12 0;
#X connect 9 3 13 0;
#X connect 9 4 14 0;
#X connect 9 5 15 0;
#X connect 9 6 16 0;
#X connect 9 7 17 0;
#X connect 10 0 0 0;
#X connect 11 0 1 0;
#X connect 12 0 2 0;
#X connect 13 0 3 0;
#X connect 14 0 4 0;
#X connect 15 0 5 0;
#X connect 16 0 6 0;
#X connect 17 0 7 0;
#X restore 893 506 pd sd_col3b;
#N canvas 67 116 1222 681 sd_col4b 0;
#X obj 60 172 zl iter 2;
#X obj 83 212 zl iter 2;
#X obj 102 263 zl iter 2;
#X obj 130 313 zl iter 2;
#X obj 157 358 zl iter 2;
#X obj 183 402 zl iter 2;
#X obj 213 445 zl iter 2;
#X obj 231 492 zl iter 2;
#X obj 64 87 inlet;
#X obj 60 125 sel 14 24 34 44 54 64 74 84;
#X msg 60 152 84 0 74 0 64 0 54 0 44 0 34 0 24 0;
#X msg 82 192 84 0 74 0 64 0 54 0 44 0 34 0 14 0;
#X msg 99 243 84 0 74 0 64 0 54 0 44 0 24 0 14 0;
#X msg 130 290 84 0 74 0 64 0 54 0 34 0 24 0 14 0;
#X msg 154 338 84 0 74 0 64 0 44 0 34 0 24 0 14 0;
#X msg 180 382 84 0 74 0 54 0 44 0 34 0 24 0 14 0;
#X msg 213 425 84 0 64 0 54 0 44 0 34 0 24 0 14 0;
#X msg 229 472 74 0 64 0 54 0 44 0 34 0 24 0 14 0;
#X obj 68 598 outlet;
#X connect 0 0 18 0;
#X connect 1 0 18 0;
#X connect 2 0 18 0;
#X connect 3 0 18 0;
#X connect 4 0 18 0;
#X connect 5 0 18 0;
#X connect 6 0 18 0;
#X connect 7 0 18 0;
#X connect 8 0 9 0;
#X connect 9 0 10 0;
#X connect 9 1 11 0;
#X connect 9 2 12 0;
#X connect 9 3 13 0;
#X connect 9 4 14 0;
#X connect 9 5 15 0;
#X connect 9 6 16 0;
#X connect 9 7 17 0;
#X connect 10 0 0 0;
#X connect 11 0 1 0;
#X connect 12 0 2 0;
#X connect 13 0 3 0;
#X connect 14 0 4 0;
#X connect 15 0 5 0;
#X connect 16 0 6 0;
#X connect 17 0 7 0;
#X restore 916 528 pd sd_col4b;
#N canvas 67 132 492 681 sd_col8b 0;
#X obj 60 172 zl iter 2;
#X obj 83 212 zl iter 2;
#X obj 102 263 zl iter 2;
#X obj 130 313 zl iter 2;
#X obj 157 358 zl iter 2;
#X obj 183 402 zl iter 2;
#X obj 213 445 zl iter 2;
#X obj 231 492 zl iter 2;
#X obj 64 87 inlet;
#X obj 60 125 sel 18 28 38 48 58 68 78 88;
#X msg 61 152 88 0 78 0 68 0 58 0 48 0 38 0 28 0;
#X msg 82 192 88 0 78 0 68 0 58 0 48 0 38 0 18 0;
#X msg 98 243 88 0 78 0 68 0 58 0 48 0 28 0 18 0;
#X msg 130 290 88 0 78 0 68 0 58 0 38 0 28 0 18 0;
#X msg 153 338 88 0 78 0 68 0 48 0 38 0 28 0 18 0;
#X msg 180 382 88 0 78 0 58 0 48 0 38 0 28 0 18 0;
#X msg 213 425 88 0 68 0 58 0 48 0 38 0 28 0 18 0;
#X msg 229 472 78 0 68 0 58 0 48 0 38 0 28 0 18 0;
#X obj 69 598 outlet;
#X connect 0 0 18 0;
#X connect 1 0 18 0;
#X connect 2 0 18 0;
#X connect 3 0 18 0;
#X connect 4 0 18 0;
#X connect 5 0 18 0;
#X connect 6 0 18 0;
#X connect 7 0 18 0;
#X connect 8 0 9 0;
#X connect 9 0 10 0;
#X connect 9 1 11 0;
#X connect 9 2 12 0;
#X connect 9 3 13 0;
#X connect 9 4 14 0;
#X connect 9 5 15 0;
#X connect 9 6 16 0;
#X connect 9 7 17 0;
#X connect 10 0 0 0;
#X connect 11 0 1 0;
#X connect 12 0 2 0;
#X connect 13 0 3 0;
#X connect 14 0 4 0;
#X connect 15 0 5 0;
#X connect 16 0 6 0;
#X connect 17 0 7 0;
#X restore 1021 526 pd sd_col8b;
#N canvas 67 128 1222 681 sd_col7b 0;
#X obj 60 172 zl iter 2;
#X obj 83 212 zl iter 2;
#X obj 102 263 zl iter 2;
#X obj 130 313 zl iter 2;
#X obj 157 358 zl iter 2;
#X obj 183 402 zl iter 2;
#X obj 213 445 zl iter 2;
#X obj 231 492 zl iter 2;
#X obj 64 87 inlet;
#X obj 60 125 sel 17 27 37 47 57 67 77 87;
#X msg 61 152 87 0 77 0 67 0 57 0 47 0 37 0 27 0;
#X msg 82 192 87 0 77 0 67 0 57 0 47 0 37 0 17 0;
#X msg 99 243 87 0 77 0 67 0 57 0 47 0 27 0 17 0;
#X msg 130 290 87 0 77 0 67 0 57 0 37 0 27 0 17 0;
#X msg 153 338 87 0 77 0 67 0 47 0 37 0 27 0 17 0;
#X msg 180 382 87 0 77 0 57 0 47 0 37 0 27 0 17 0;
#X msg 213 425 87 0 67 0 57 0 47 0 37 0 27 0 17 0;
#X msg 229 472 77 0 67 0 57 0 47 0 37 0 27 0 17 0;
#X obj 69 598 outlet;
#X connect 0 0 18 0;
#X connect 1 0 18 0;
#X connect 2 0 18 0;
#X connect 3 0 18 0;
#X connect 4 0 18 0;
#X connect 5 0 18 0;
#X connect 6 0 18 0;
#X connect 7 0 18 0;
#X connect 8 0 9 0;
#X connect 9 0 10 0;
#X connect 9 1 11 0;
#X connect 9 2 12 0;
#X connect 9 3 13 0;
#X connect 9 4 14 0;
#X connect 9 5 15 0;
#X connect 9 6 16 0;
#X connect 9 7 17 0;
#X connect 10 0 0 0;
#X connect 11 0 1 0;
#X connect 12 0 2 0;
#X connect 13 0 3 0;
#X connect 14 0 4 0;
#X connect 15 0 5 0;
#X connect 16 0 6 0;
#X connect 17 0 7 0;
#X restore 1003 506 pd sd_col7b;
#N canvas 67 118 1222 681 sd_col6b 0;
#X obj 60 172 zl iter 2;
#X obj 83 212 zl iter 2;
#X obj 102 263 zl iter 2;
#X obj 130 313 zl iter 2;
#X obj 157 358 zl iter 2;
#X obj 183 402 zl iter 2;
#X obj 213 445 zl iter 2;
#X obj 231 492 zl iter 2;
#X obj 64 87 inlet;
#X obj 60 125 sel 16 26 36 46 56 66 76 86;
#X msg 61 152 86 0 76 0 66 0 56 0 46 0 36 0 26 0;
#X msg 82 192 86 0 76 0 66 0 56 0 46 0 36 0 16 0;
#X msg 99 243 86 0 76 0 66 0 56 0 46 0 26 0 16 0;
#X msg 130 290 86 0 76 0 66 0 56 0 36 0 26 0 16 0;
#X msg 153 338 86 0 76 0 66 0 46 0 36 0 26 0 16 0;
#X msg 180 382 86 0 76 0 56 0 46 0 36 0 26 0 16 0;
#X msg 213 425 86 0 66 0 56 0 46 0 36 0 26 0 16 0;
#X msg 229 472 76 0 66 0 56 0 46 0 36 0 26 0 16 0;
#X obj 70 598 outlet;
#X connect 0 0 18 0;
#X connect 1 0 18 0;
#X connect 2 0 18 0;
#X connect 3 0 18 0;
#X connect 4 0 18 0;
#X connect 5 0 18 0;
#X connect 6 0 18 0;
#X connect 7 0 18 0;
#X connect 8 0 9 0;
#X connect 9 0 10 0;
#X connect 9 1 11 0;
#X connect 9 2 12 0;
#X connect 9 3 13 0;
#X connect 9 4 14 0;
#X connect 9 5 15 0;
#X connect 9 6 16 0;
#X connect 9 7 17 0;
#X connect 10 0 0 0;
#X connect 11 0 1 0;
#X connect 12 0 2 0;
#X connect 13 0 3 0;
#X connect 14 0 4 0;
#X connect 15 0 5 0;
#X connect 16 0 6 0;
#X connect 17 0 7 0;
#X restore 970 484 pd sd_col6b;
#N canvas 67 112 508 681 sd_col5b 0;
#X obj 60 172 zl iter 2;
#X obj 83 212 zl iter 2;
#X obj 102 263 zl iter 2;
#X obj 130 313 zl iter 2;
#X obj 157 358 zl iter 2;
#X obj 183 402 zl iter 2;
#X obj 213 445 zl iter 2;
#X obj 231 492 zl iter 2;
#X obj 64 87 inlet;
#X obj 60 125 sel 15 25 35 45 55 65 75 85;
#X msg 61 152 85 0 75 0 65 0 55 0 45 0 35 0 25 0;
#X msg 82 192 85 0 75 0 65 0 55 0 45 0 35 0 15 0;
#X msg 99 243 85 0 75 0 65 0 55 0 45 0 25 0 15 0;
#X msg 130 290 85 0 75 0 65 0 55 0 35 0 25 0 15 0;
#X msg 153 338 85 0 75 0 65 0 45 0 35 0 25 0 15 0;
#X msg 180 382 85 0 75 0 55 0 45 0 35 0 25 0 15 0;
#X msg 213 425 85 0 65 0 55 0 45 0 35 0 25 0 15 0;
#X msg 229 472 75 0 65 0 55 0 45 0 35 0 25 0 15 0;
#X obj 69 598 outlet;
#X connect 0 0 18 0;
#X connect 1 0 18 0;
#X connect 2 0 18 0;
#X connect 3 0 18 0;
#X connect 4 0 18 0;
#X connect 5 0 18 0;
#X connect 6 0 18 0;
#X connect 7 0 18 0;
#X connect 8 0 9 0;
#X connect 9 0 10 0;
#X connect 9 1 11 0;
#X connect 9 2 12 0;
#X connect 9 3 13 0;
#X connect 9 4 14 0;
#X connect 9 5 15 0;
#X connect 9 6 16 0;
#X connect 9 7 17 0;
#X connect 10 0 0 0;
#X connect 11 0 1 0;
#X connect 12 0 2 0;
#X connect 13 0 3 0;
#X connect 14 0 4 0;
#X connect 15 0 5 0;
#X connect 16 0 6 0;
#X connect 17 0 7 0;
#X restore 954 459 pd sd_col5b;
#X obj 873 552 s s\$1_m2b_tognote_2;
#X obj 600 555 s s\$1_m2a_tognote_2;
#X obj 671 410 s s\$1_m2a_tognote_2;
#X obj 926 407 s s\$1_m2b_tognote_2;
#X obj 169 341 r s\$1.\$2;
#X obj 424 339 r s\$1.\$2;
#X obj 710 341 r s\$1.\$2_2;
#X obj 965 338 r s\$1.\$2_2;
#X obj 225 226 tabread swing_level;
#X obj 508 224 tabread swing_level;
#X obj 766 226 tabread swing_level;
#X obj 1049 224 tabread swing_level;
#X obj 385 316 expr $f1 - 7 + $f2;
#X obj 926 316 expr $f1 - 7 + $f2;
#X obj 671 318 expr $f1 + 1 + $f2;
#X obj 130 318 expr $f1 + 1 + $f2;
#X obj 833 168 t f f f;
#N canvas 4 103 586 485 colour 0;
#X obj 27 44 tabread swing_fine;
#X obj 27 69 moses 1;
#X obj 73 95 moses 43;
#X obj 126 121 moses 85;
#X obj 27 93 t b;
#X obj 73 119 t b;
#X obj 126 145 t b;
#X obj 179 145 t b;
#X msg 27 117 88;
#X msg 73 143 89;
#X msg 126 169 90;
#X msg 179 169 91;
#X obj 27 13 inlet;
#X obj 28 209 outlet;
#X connect 0 0 1 0;
#X connect 1 0 4 0;
#X connect 1 1 2 0;
#X connect 2 0 5 0;
#X connect 2 1 3 0;
#X connect 3 0 6 0;
#X connect 3 1 7 0;
#X connect 4 0 8 0;
#X connect 5 0 9 0;
#X connect 6 0 10 0;
#X connect 7 0 11 0;
#X connect 8 0 13 0;
#X connect 9 0 13 0;
#X connect 10 0 13 0;
#X connect 11 0 13 0;
#X connect 12 0 0 0;
#X restore 979 360 pd colour;
#N canvas 4 103 586 485 colour 0;
#X obj 27 44 tabread swing_fine;
#X obj 27 69 moses 1;
#X obj 73 95 moses 43;
#X obj 126 121 moses 85;
#X obj 27 93 t b;
#X obj 73 119 t b;
#X obj 126 145 t b;
#X obj 179 145 t b;
#X msg 27 117 88;
#X msg 73 143 89;
#X msg 126 169 90;
#X msg 179 169 91;
#X obj 27 13 inlet;
#X obj 28 209 outlet;
#X connect 0 0 1 0;
#X connect 1 0 4 0;
#X connect 1 1 2 0;
#X connect 2 0 5 0;
#X connect 2 1 3 0;
#X connect 3 0 6 0;
#X connect 3 1 7 0;
#X connect 4 0 8 0;
#X connect 5 0 9 0;
#X connect 6 0 10 0;
#X connect 7 0 11 0;
#X connect 8 0 13 0;
#X connect 9 0 13 0;
#X connect 10 0 13 0;
#X connect 11 0 13 0;
#X connect 12 0 0 0;
#X restore 726 363 pd colour;
#X obj 704 172 t f f f;
#X obj 163 172 t f f f;
#X obj 385 198 t f f f;
#N canvas 4 103 586 485 colour 0;
#X obj 27 44 tabread swing_fine;
#X obj 27 69 moses 1;
#X obj 73 95 moses 43;
#X obj 126 121 moses 85;
#X obj 27 93 t b;
#X obj 73 119 t b;
#X obj 126 145 t b;
#X obj 179 145 t b;
#X msg 27 117 88;
#X msg 73 143 89;
#X msg 126 169 90;
#X msg 179 169 91;
#X obj 27 13 inlet;
#X obj 28 209 outlet;
#X connect 0 0 1 0;
#X connect 1 0 4 0;
#X connect 1 1 2 0;
#X connect 2 0 5 0;
#X connect 2 1 3 0;
#X connect 3 0 6 0;
#X connect 3 1 7 0;
#X connect 4 0 8 0;
#X connect 5 0 9 0;
#X connect 6 0 10 0;
#X connect 7 0 11 0;
#X connect 8 0 13 0;
#X connect 9 0 13 0;
#X connect 10 0 13 0;
#X connect 11 0 13 0;
#X connect 12 0 0 0;
#X restore 438 363 pd colour;
#N canvas 4 103 586 485 colour 0;
#X obj 27 44 tabread swing_fine;
#X obj 27 69 moses 1;
#X obj 73 95 moses 43;
#X obj 126 121 moses 85;
#X obj 27 93 t b;
#X obj 73 119 t b;
#X obj 126 145 t b;
#X obj 179 145 t b;
#X msg 27 117 88;
#X msg 73 143 89;
#X msg 126 169 90;
#X msg 179 169 91;
#X obj 27 13 inlet;
#X obj 28 209 outlet;
#X connect 0 0 1 0;
#X connect 1 0 4 0;
#X connect 1 1 2 0;
#X connect 2 0 5 0;
#X connect 2 1 3 0;
#X connect 3 0 6 0;
#X connect 3 1 7 0;
#X connect 4 0 8 0;
#X connect 5 0 9 0;
#X connect 6 0 10 0;
#X connect 7 0 11 0;
#X connect 8 0 13 0;
#X connect 9 0 13 0;
#X connect 10 0 13 0;
#X connect 11 0 13 0;
#X connect 12 0 0 0;
#X restore 185 366 pd colour;
#X connect 0 0 20 0;
#X connect 1 0 5 2;
#X connect 1 0 20 0;
#X connect 2 0 40 0;
#X connect 3 0 2 0;
#X connect 3 0 16 1;
#X connect 4 0 20 0;
#X connect 5 0 6 0;
#X connect 5 0 14 0;
#X connect 5 0 15 0;
#X connect 6 0 98 0;
#X connect 6 1 99 0;
#X connect 7 0 90 1;
#X connect 8 0 7 0;
#X connect 9 0 39 0;
#X connect 10 0 13 1;
#X connect 10 0 9 0;
#X connect 11 0 93 1;
#X connect 12 0 11 0;
#X connect 13 0 19 0;
#X connect 14 0 13 0;
#X connect 15 0 16 0;
#X connect 16 0 17 0;
#X connect 17 0 29 0;
#X connect 17 1 30 0;
#X connect 17 2 31 0;
#X connect 17 3 32 0;
#X connect 17 4 36 0;
#X connect 17 5 35 0;
#X connect 17 6 34 0;
#X connect 17 7 33 0;
#X connect 19 0 21 0;
#X connect 19 1 22 0;
#X connect 19 2 23 0;
#X connect 19 3 24 0;
#X connect 19 4 28 0;
#X connect 19 5 27 0;
#X connect 19 6 26 0;
#X connect 19 7 25 0;
#X connect 20 0 5 0;
#X connect 21 0 37 0;
#X connect 22 0 37 0;
#X connect 23 0 37 0;
#X connect 24 0 37 0;
#X connect 25 0 37 0;
#X connect 26 0 37 0;
#X connect 27 0 37 0;
#X connect 28 0 37 0;
#X connect 29 0 38 0;
#X connect 30 0 38 0;
#X connect 31 0 38 0;
#X connect 32 0 38 0;
#X connect 33 0 38 0;
#X connect 34 0 38 0;
#X connect 35 0 38 0;
#X connect 36 0 38 0;
#X connect 41 0 61 0;
#X connect 42 0 46 2;
#X connect 42 0 61 0;
#X connect 43 0 81 0;
#X connect 44 0 43 0;
#X connect 44 0 57 1;
#X connect 45 0 61 0;
#X connect 46 0 47 0;
#X connect 46 0 55 0;
#X connect 46 0 56 0;
#X connect 47 0 97 0;
#X connect 47 1 94 0;
#X connect 48 0 91 1;
#X connect 49 0 48 0;
#X connect 50 0 80 0;
#X connect 51 0 54 1;
#X connect 51 0 50 0;
#X connect 52 0 92 1;
#X connect 53 0 52 0;
#X connect 54 0 60 0;
#X connect 55 0 54 0;
#X connect 56 0 57 0;
#X connect 57 0 58 0;
#X connect 58 0 70 0;
#X connect 58 1 71 0;
#X connect 58 2 72 0;
#X connect 58 3 73 0;
#X connect 58 4 77 0;
#X connect 58 5 76 0;
#X connect 58 6 75 0;
#X connect 58 7 74 0;
#X connect 60 0 62 0;
#X connect 60 1 63 0;
#X connect 60 2 64 0;
#X connect 60 3 65 0;
#X connect 60 4 69 0;
#X connect 60 5 68 0;
#X connect 60 6 67 0;
#X connect 60 7 66 0;
#X connect 61 0 46 0;
#X connect 62 0 79 0;
#X connect 63 0 79 0;
#X connect 64 0 79 0;
#X connect 65 0 79 0;
#X connect 66 0 79 0;
#X connect 67 0 79 0;
#X connect 68 0 79 0;
#X connect 69 0 79 0;
#X connect 70 0 78 0;
#X connect 71 0 78 0;
#X connect 72 0 78 0;
#X connect 73 0 78 0;
#X connect 74 0 78 0;
#X connect 75 0 78 0;
#X connect 76 0 78 0;
#X connect 77 0 78 0;
#X connect 82 0 10 1;
#X connect 82 0 14 1;
#X connect 83 0 3 1;
#X connect 83 0 15 1;
#X connect 84 0 51 1;
#X connect 84 0 55 1;
#X connect 85 0 44 1;
#X connect 85 0 56 1;
#X connect 86 0 12 0;
#X connect 87 0 8 0;
#X connect 88 0 53 0;
#X connect 89 0 49 0;
#X connect 90 0 3 0;
#X connect 91 0 44 0;
#X connect 92 0 51 0;
#X connect 93 0 10 0;
#X connect 94 0 91 0;
#X connect 94 1 89 0;
#X connect 94 2 95 0;
#X connect 95 0 43 1;
#X connect 96 0 50 1;
#X connect 97 0 92 0;
#X connect 97 1 88 0;
#X connect 97 2 96 0;
#X connect 98 0 93 0;
#X connect 98 1 86 0;
#X connect 98 2 101 0;
#X connect 99 0 90 0;
#X connect 99 1 87 0;
#X connect 99 2 100 0;
#X connect 100 0 2 1;
#X connect 101 0 9 1;
#X restore 451 271 pd front_end;
#X text 559 271 Polls this array and sends to Launchpads;
#X obj 712 144 / 10;
#X obj 712 166 i;
#X obj 772 144 % 10;
#X obj 712 187 - 1;
#X obj 712 121 t f f, f 9;
#X obj 772 165 + 7;
#X obj 495 144 / 10;
#X obj 495 166 i;
#X obj 541 143 % 10;
#X obj 495 187 - 1;
#X obj 495 95 spigot;
#X obj 712 98 spigot;
#X obj 541 164 - 1;
#X obj 495 121 t f f, f 7;
#X obj 495 41 route 19 29 39 49 59 69 79 89;
#X obj 712 41 route 19 29 39 49 59 69 79 89;
#X obj 495 18 notein 113;
#X obj 712 18 notein 129;
#X text 14 18 LP1;
#X text 254 18 LP2;
#X text 687 18 LP4;
#X text 470 18 LP3;
#X obj 78 65 r s\$1.\$2;
#X obj 318 68 r s\$1.\$2;
#X obj 534 65 r s\$1.\$2_2;
#X obj 751 68 r s\$1.\$2_2;
#X obj 39 208 tabwrite swing_level;
#X obj 279 208 tabwrite swing_level;
#X obj 495 208 tabwrite swing_level;
#X obj 712 208 tabwrite swing_level;
#X obj 450 298 write_view_colour \$1 \$2 88;
#N canvas 0 50 450 250 (subpatch) 0;
#X array swing_fine 16 float 3;
#A 0 0 0 0 0 0 0 0 0 0 0 0 0 0 0 0 0;
#X coords 0 40 16 0 200 140 1 0 0;
#X restore 241 273 graph;
#N canvas 760 115 1160 965 fine_swing 0;
#X obj 77 477 pack f f;
#X obj 77 530 tabwrite swing_fine;
#X obj 175 99 r sel_swing_1;
#X obj 154 150 f;
#X obj 155 180 spigot;
#X obj 200 150 r s\$1.\$2;
#X obj 214 180 ../TOG_INV;
#X obj 115 410 spigot;
#X obj 136 215 r selected_seq_1;
#X obj 77 110 t f b b, f 10;
#X obj 115 381 f;
#X obj 307 477 pack f f;
#X obj 384 150 f;
#X obj 385 180 spigot;
#X obj 444 180 ../TOG_INV;
#X obj 345 410 spigot;
#X obj 307 110 t f b b, f 10;
#X obj 345 381 f;
#X obj 405 102 r sel_swing_2;
#X obj 366 215 r selected_seq_2;
#X obj 430 150 r s\$1.\$2_2;
#X obj 307 52 r swing_ms_u1.3_2;
#X obj 321 76 r swing_ms_u2.4_2;
#X obj 77 52 r swing_ms_u1.3_1;
#X obj 91 76 r swing_ms_u2.4_1;
#X obj 136 240 - 1;
#X obj 366 240 - 1;
#X obj 366 276 list-lastx 2;
#X obj 366 300 unpack f f;
#X obj 366 325 sel 16;
#X obj 366 352 f, f 10;
#X msg 264 238 1;
#X obj 264 216 ../LOAD 5 5;
#X obj 136 276 list-lastx 2;
#X obj 136 300 unpack f f;
#X obj 136 325 sel 16;
#X obj 136 352 f, f 10;
#X floatatom 615 156 5 0 0 0 - - -;
#X connect 0 0 1 0;
#X connect 2 0 3 1;
#X connect 3 0 4 0;
#X connect 4 0 0 1;
#X connect 5 0 4 1;
#X connect 5 0 6 0;
#X connect 6 0 7 1;
#X connect 7 0 0 1;
#X connect 8 0 25 0;
#X connect 9 0 0 0;
#X connect 9 1 10 0;
#X connect 9 2 3 0;
#X connect 10 0 7 0;
#X connect 11 0 1 0;
#X connect 12 0 13 0;
#X connect 13 0 11 1;
#X connect 14 0 15 1;
#X connect 15 0 11 1;
#X connect 16 0 11 0;
#X connect 16 1 17 0;
#X connect 16 2 12 0;
#X connect 17 0 15 0;
#X connect 18 0 12 1;
#X connect 18 0 37 0;
#X connect 19 0 26 0;
#X connect 20 0 13 1;
#X connect 20 0 14 0;
#X connect 21 0 16 0;
#X connect 22 0 16 0;
#X connect 23 0 9 0;
#X connect 24 0 9 0;
#X connect 25 0 33 0;
#X connect 26 0 27 0;
#X connect 27 0 28 0;
#X connect 28 0 29 0;
#X connect 28 1 30 1;
#X connect 29 0 30 0;
#X connect 30 0 17 1;
#X connect 31 0 27 0;
#X connect 31 0 33 0;
#X connect 32 0 31 0;
#X connect 33 0 34 0;
#X connect 34 0 35 0;
#X connect 34 1 36 1;
#X connect 35 0 36 0;
#X connect 36 0 10 1;
#X restore 457 355 pd fine_swing;
#X obj 664 241 s sel_swing_2;
#X obj 213 233 s sel_swing_1;
#X obj 190 162 - 1;
#X obj 137 138 route 16;
#X obj 137 116 r selected_seq_1;
#X obj 640 162 - 1;
#X obj 587 138 route 16;
#X obj 587 116 r selected_seq_2;
#X connect 0 0 1 0;
#X connect 1 0 3 0;
#X connect 2 0 5 0;
#X connect 3 0 48 0;
#X connect 4 0 0 0;
#X connect 4 1 2 0;
#X connect 5 0 48 1;
#X connect 5 0 55 0;
#X connect 6 0 7 0;
#X connect 7 0 9 0;
#X connect 8 0 14 0;
#X connect 9 0 47 0;
#X connect 10 0 15 0;
#X connect 11 0 4 0;
#X connect 12 0 16 0;
#X connect 13 0 17 0;
#X connect 14 0 47 1;
#X connect 14 0 55 0;
#X connect 15 0 6 0;
#X connect 15 1 8 0;
#X connect 16 8 10 0;
#X connect 17 8 11 0;
#X connect 21 0 22 0;
#X connect 22 0 24 0;
#X connect 23 0 26 0;
#X connect 24 0 50 0;
#X connect 25 0 21 0;
#X connect 25 1 23 0;
#X connect 26 0 50 1;
#X connect 26 0 54 0;
#X connect 27 0 28 0;
#X connect 28 0 30 0;
#X connect 29 0 33 0;
#X connect 30 0 49 0;
#X connect 31 0 34 0;
#X connect 32 0 25 0;
#X connect 33 0 49 1;
#X connect 33 0 54 0;
#X connect 34 0 27 0;
#X connect 34 1 29 0;
#X connect 35 8 31 0;
#X connect 36 8 32 0;
#X connect 37 0 35 0;
#X connect 38 0 36 0;
#X connect 43 0 10 1;
#X connect 44 0 11 1;
#X connect 45 0 31 1;
#X connect 46 0 32 1;
#X connect 56 0 55 0;
#X connect 57 1 56 0;
#X connect 58 0 57 0;
#X connect 59 0 54 0;
#X connect 60 1 59 0;
#X connect 61 0 60 0;
