#N canvas 358 168 892 689 10;
#X obj 22 59 sel 1;
#X obj 462 59 sel 1;
#X msg 462 80 81 0 82 0 83 0 84 0 85 0 86 0 87 0 88 0 71 0 72 0 73
0 74 0 75 0 76 0 77 0 78 0 61 0 62 0 63 0 64 0 65 0 66 0 67 0 68 0
51 0 52 0 53 0 54 0 55 0 56 0 57 0 58 0 41 0 42 0 43 0 44 0 45 0 46
0 47 0 48 0 31 0 32 0 33 0 34 0 35 0 36 0 37 0 38 0 21 0 22 0 23 0
24 0 25 0 26 0 27 0 28 0 11 0 12 0 13 0 14 0 15 0 16 0 17 0 18 0,
f 40;
#X obj 462 179 zl iter 2;
#X msg 22 80 81 0 82 0 83 0 84 0 85 0 86 0 87 0 88 0 71 0 72 0 73 0
74 0 75 0 76 0 77 0 78 0 61 0 62 0 63 0 64 0 65 0 66 0 67 0 68 0 51
0 52 0 53 0 54 0 55 0 56 0 57 0 58 0 41 0 42 0 43 0 44 0 45 0 46 0
47 0 48 0 31 0 32 0 33 0 34 0 35 0 36 0 37 0 38 0 21 0 22 0 23 0 24
0 25 0 26 0 27 0 28 0 11 0 12 0 13 0 14 0 15 0 16 0 17 0 18 0, f 40
;
#X obj 22 356 s s1_m2a_tognote;
#X obj 53 378 s s1_m2b_tognote;
#X obj 462 38 r s\$1.\$2_2;
#X obj 22 38 r s\$1.\$2;
#X obj 495 222 sel LHS RHS;
#X obj 462 330 s s1_m2a_tognote_2;
#X obj 493 352 s s1_m2b_tognote_2;
#X msg 495 243 1;
#X msg 526 243 1;
#X obj 462 287 spigot;
#X obj 493 307 spigot;
#X obj 22 182 zl iter 2;
#X obj 55 225 sel LHS RHS;
#X msg 55 246 1;
#X msg 86 246 1;
#X obj 22 290 spigot;
#X obj 53 310 spigot;
#X obj 55 204 symbol \$3;
#X obj 139 224 sel LHS RHS;
#X msg 139 245 1;
#X msg 170 245 1;
#X obj 106 289 spigot;
#X obj 137 309 spigot;
#X obj 139 203 symbol \$4;
#X obj 106 336 s s1_m2a_tognote;
#X obj 136 358 s s1_m2b_tognote;
#X obj 495 201 symbol \$3;
#X obj 615 222 sel LHS RHS;
#X obj 582 330 s s1_m2a_tognote_2;
#X obj 613 352 s s1_m2b_tognote_2;
#X msg 615 243 1;
#X msg 646 243 1;
#X obj 582 287 spigot;
#X obj 613 307 spigot;
#X obj 615 201 symbol \$4;
#X text 217 210 it could be one or both of RHS and LHS;
#X obj 274 34 loadbang;
#X obj 356 32 bng 15 250 50 0 empty empty empty 17 7 0 10 -262144 -1
-1;
#X obj 349 439 expr $f1 + $f2;
#X obj 322 326 delay 110;
#X obj 280 340 bng 15 250 50 0 empty empty empty 17 7 0 10 -262144
-1 -1;
#X obj 349 393 f;
#X obj 376 392 f;
#X obj 322 352 t b b;
#X obj 349 414 bondo;
#X obj 349 460 == 2;
#X obj 285 480 spigot;
#X obj 285 541 \$1;
#X obj 285 562 - 1;
#X obj 285 603 +, f 6;
#X obj 318 582 \$2;
#X obj 285 434 loadbang;
#X obj 287 665 tabwrite view_colours;
#X obj 285 520 t b b, f 6;
#X obj 285 583 * 10;
#X obj 285 500 delay;
#X obj 285 624 t b f;
#X obj 285 459 delay 500;
#X msg 286 646 71;
#X connect 0 0 4 0;
#X connect 1 0 2 0;
#X connect 2 0 3 0;
#X connect 3 0 14 0;
#X connect 3 0 15 0;
#X connect 3 0 37 0;
#X connect 3 0 38 0;
#X connect 4 0 16 0;
#X connect 7 0 1 0;
#X connect 8 0 0 0;
#X connect 9 0 12 0;
#X connect 9 1 13 0;
#X connect 12 0 14 1;
#X connect 12 0 46 1;
#X connect 13 0 15 1;
#X connect 13 0 46 1;
#X connect 14 0 10 0;
#X connect 15 0 11 0;
#X connect 16 0 20 0;
#X connect 16 0 21 0;
#X connect 16 0 26 0;
#X connect 16 0 27 0;
#X connect 17 0 18 0;
#X connect 17 1 19 0;
#X connect 18 0 20 1;
#X connect 19 0 21 1;
#X connect 20 0 5 0;
#X connect 21 0 6 0;
#X connect 22 0 17 0;
#X connect 23 0 24 0;
#X connect 23 1 25 0;
#X connect 24 0 26 1;
#X connect 25 0 27 1;
#X connect 26 0 29 0;
#X connect 27 0 30 0;
#X connect 28 0 23 0;
#X connect 31 0 9 0;
#X connect 32 0 35 0;
#X connect 32 1 36 0;
#X connect 35 0 37 1;
#X connect 35 0 47 1;
#X connect 36 0 38 1;
#X connect 36 0 47 1;
#X connect 37 0 33 0;
#X connect 38 0 34 0;
#X connect 39 0 32 0;
#X connect 41 0 22 0;
#X connect 41 0 28 0;
#X connect 41 0 31 0;
#X connect 41 0 39 0;
#X connect 41 0 44 0;
#X connect 42 0 28 0;
#X connect 42 0 39 0;
#X connect 42 0 31 0;
#X connect 42 0 22 0;
#X connect 43 0 50 0;
#X connect 44 0 48 0;
#X connect 45 0 48 0;
#X connect 46 0 49 0;
#X connect 47 0 49 1;
#X connect 48 0 47 0;
#X connect 48 1 46 0;
#X connect 49 0 43 0;
#X connect 49 1 43 1;
#X connect 50 0 51 1;
#X connect 51 0 60 0;
#X connect 52 0 53 0;
#X connect 53 0 59 0;
#X connect 54 0 61 0;
#X connect 55 0 54 1;
#X connect 56 0 62 0;
#X connect 58 0 52 0;
#X connect 58 1 55 0;
#X connect 59 0 54 0;
#X connect 60 0 58 0;
#X connect 61 0 63 0;
#X connect 61 1 57 1;
#X connect 62 0 51 0;
#X connect 63 0 57 0;
