#N canvas 286 265 969 455 10;
#X obj 280 164 / 10;
#X obj 280 186 i;
#X obj 340 164 % 10;
#X obj 280 207 - 1;
#X obj 280 141 t f f, f 9;
#X obj 340 185 + 7;
#X obj 50 166 / 10;
#X obj 50 188 i;
#X obj 96 165 % 10;
#X obj 50 209 - 1;
#X obj 50 117 spigot;
#X obj 280 118 spigot;
#X obj 50 40 notein 17;
#X obj 280 38 notein 33;
#X obj 96 186 - 1;
#X obj 50 143 t f f, f 7;
#X obj 50 63 route 19 29 39 49 59 69 79 89;
#X obj 280 61 route 19 29 39 49 59 69 79 89;
#X obj 280 232 tabwrite \$1_cc\$2;
#X obj 50 230 tabwrite \$1_cc\$2;
#X obj 50 83 r s\$1.\$2;
#X obj 280 84 r s\$1.\$2;
#X obj 48 399 ../seq_abs/CC_ARRAYS \$1 \$2 \$3 \$4 \$5 \$6 \$7 \$8
\$9 \$10;
#X obj 48 375 ../seq_abs/CC_SEQUENCING \$1 \$2 \$3 \$4 \$5 \$6 \$7
\$8 \$9 \$10;
#X msg 121 135 set \$1;
#X obj 47 324 CC_SELECTOR \$1 \$2 \$3 \$4 \$5 \$6 \$7 \$8 \$9 \$10
\$11;
#X obj 48 351 CC_muting \$1 \$2 \$11;
#N canvas 83 144 1270 610 front_end 0;
#X obj 286 30 bng 15 250 50 0 empty empty empty 17 7 0 10 -262144 -1
-1;
#X msg 326 28 0;
#X obj 358 405 pack f f;
#X obj 358 379 spigot;
#X obj 358 335 expr $f1 + $f2;
#X obj 286 48 loadbang;
#X obj 103 134 moses 7.5;
#X obj 453 289 * 10;
#X obj 453 270 + 1;
#X obj 103 404 pack f f;
#X obj 103 381 spigot;
#X obj 198 291 * 10;
#X obj 198 272 + 1;
#X obj 32 403 pack f f;
#X obj 32 379 spigot;
#X obj 286 387 spigot;
#X obj 286 409 pack f f;
#X obj 286 453 route 8 9 10 11 12 13 14 15;
#X text 350 48 constantly poll the array and update the lights;
#X obj 32 453 route 0 1 2 3 4 5 6 7, f 27;
#X obj 103 333 expr $f1 + $f2;
#X obj 286 94 counter 0 15;
#X obj 358 193 t f f;
#X obj 103 160 t f f;
#X obj 288 72 metro 10;
#N canvas 93 589 450 300 seq_CC_LHS 0;
#X msg 281 86 8;
#X msg 56 86 1;
#X msg 88 86 2;
#X msg 120 86 3;
#X msg 152 86 4;
#X msg 185 86 5;
#X msg 217 86 6;
#X msg 249 86 7;
#X obj 55 39 inlet;
#X obj 139 148 outlet;
#X obj 56 64 sel 0 1 2 3 4 5 6 7, f 37;
#X connect 0 0 9 0;
#X connect 1 0 9 0;
#X connect 2 0 9 0;
#X connect 3 0 9 0;
#X connect 4 0 9 0;
#X connect 5 0 9 0;
#X connect 6 0 9 0;
#X connect 7 0 9 0;
#X connect 8 0 10 0;
#X connect 10 0 1 0;
#X connect 10 1 2 0;
#X connect 10 2 3 0;
#X connect 10 3 4 0;
#X connect 10 4 5 0;
#X connect 10 5 6 0;
#X connect 10 6 7 0;
#X connect 10 7 0 0;
#X restore 103 305 pd seq_CC_LHS;
#N canvas 66 94 450 300 seq_CC_RHS 0;
#X msg 281 86 8;
#X obj 56 64 sel 8 9 10 11 12 13 14 15, f 37;
#X msg 56 86 1;
#X msg 88 86 2;
#X msg 120 86 3;
#X msg 152 86 4;
#X msg 185 86 5;
#X msg 217 86 6;
#X msg 249 86 7;
#X obj 55 39 inlet;
#X obj 139 148 outlet;
#X connect 0 0 10 0;
#X connect 1 0 2 0;
#X connect 1 1 3 0;
#X connect 1 2 4 0;
#X connect 1 3 5 0;
#X connect 1 4 6 0;
#X connect 1 5 7 0;
#X connect 1 6 8 0;
#X connect 1 7 0 0;
#X connect 2 0 10 0;
#X connect 3 0 10 0;
#X connect 4 0 10 0;
#X connect 5 0 10 0;
#X connect 6 0 10 0;
#X connect 7 0 10 0;
#X connect 8 0 10 0;
#X connect 9 0 1 0;
#X restore 358 308 pd seq_CC_RHS;
#N canvas 63 124 472 681 col1a 0;
#X obj 60 125 sel 11 21 31 41 51 61 71 81;
#X obj 60 172 zl iter 2;
#X msg 60 152 81 0 71 0 61 0 51 0 41 0 31 0 21 0;
#X obj 83 212 zl iter 2;
#X msg 83 192 81 0 71 0 61 0 51 0 41 0 31 0 11 0;
#X obj 102 263 zl iter 2;
#X msg 102 243 81 0 71 0 61 0 51 0 41 0 21 0 11 0;
#X obj 130 313 zl iter 2;
#X msg 130 293 81 0 71 0 61 0 51 0 31 0 21 0 11 0;
#X obj 157 358 zl iter 2;
#X msg 157 338 81 0 71 0 61 0 41 0 31 0 21 0 11 0;
#X obj 183 402 zl iter 2;
#X msg 183 382 81 0 71 0 51 0 41 0 31 0 21 0 11 0;
#X obj 213 445 zl iter 2;
#X msg 213 425 81 0 61 0 51 0 41 0 31 0 21 0 11 0;
#X obj 231 492 zl iter 2;
#X msg 231 473 71 0 61 0 51 0 41 0 31 0 21 0 11 0;
#X obj 64 87 inlet;
#X obj 69 598 s s\$1_m2a_tognote;
#X connect 0 0 2 0;
#X connect 0 1 4 0;
#X connect 0 2 6 0;
#X connect 0 3 8 0;
#X connect 0 4 10 0;
#X connect 0 5 12 0;
#X connect 0 6 14 0;
#X connect 0 7 16 0;
#X connect 1 0 18 0;
#X connect 2 0 1 0;
#X connect 3 0 18 0;
#X connect 4 0 3 0;
#X connect 5 0 18 0;
#X connect 6 0 5 0;
#X connect 7 0 18 0;
#X connect 8 0 7 0;
#X connect 9 0 18 0;
#X connect 10 0 9 0;
#X connect 11 0 18 0;
#X connect 12 0 11 0;
#X connect 13 0 18 0;
#X connect 14 0 13 0;
#X connect 15 0 18 0;
#X connect 16 0 15 0;
#X connect 17 0 0 0;
#X restore 31 477 pd col1a;
#N canvas 66 106 464 681 col2a 0;
#X obj 60 172 zl iter 2;
#X obj 83 212 zl iter 2;
#X obj 102 263 zl iter 2;
#X obj 130 313 zl iter 2;
#X obj 157 358 zl iter 2;
#X obj 183 402 zl iter 2;
#X obj 213 445 zl iter 2;
#X obj 231 492 zl iter 2;
#X obj 64 87 inlet;
#X obj 60 125 sel 12 22 32 42 52 62 72 82;
#X msg 60 152 82 0 72 0 62 0 52 0 42 0 32 0 22 0;
#X msg 82 192 82 0 72 0 62 0 52 0 42 0 32 0 12 0;
#X msg 100 243 82 0 72 0 62 0 52 0 42 0 22 0 12 0;
#X msg 130 290 82 0 72 0 62 0 52 0 32 0 22 0 12 0;
#X msg 155 338 82 0 72 0 62 0 42 0 32 0 22 0 12 0;
#X msg 180 382 82 0 72 0 52 0 42 0 32 0 22 0 12 0;
#X msg 212 425 82 0 62 0 52 0 42 0 32 0 22 0 12 0;
#X msg 229 472 72 0 62 0 52 0 42 0 32 0 22 0 12 0;
#X obj 69 598 s s\$1_m2a_tognote;
#X connect 0 0 18 0;
#X connect 1 0 18 0;
#X connect 2 0 18 0;
#X connect 3 0 18 0;
#X connect 4 0 18 0;
#X connect 5 0 18 0;
#X connect 6 0 18 0;
#X connect 7 0 18 0;
#X connect 8 0 9 0;
#X connect 9 0 10 0;
#X connect 9 1 11 0;
#X connect 9 2 12 0;
#X connect 9 3 13 0;
#X connect 9 4 14 0;
#X connect 9 5 15 0;
#X connect 9 6 16 0;
#X connect 9 7 17 0;
#X connect 10 0 0 0;
#X connect 11 0 1 0;
#X connect 12 0 2 0;
#X connect 13 0 3 0;
#X connect 14 0 4 0;
#X connect 15 0 5 0;
#X connect 16 0 6 0;
#X connect 17 0 7 0;
#X restore 48 501 pd col2a;
#N canvas 66 112 479 681 col3a 0;
#X obj 60 172 zl iter 2;
#X obj 83 212 zl iter 2;
#X obj 102 263 zl iter 2;
#X obj 130 313 zl iter 2;
#X obj 157 358 zl iter 2;
#X obj 183 402 zl iter 2;
#X obj 213 445 zl iter 2;
#X obj 231 492 zl iter 2;
#X obj 64 87 inlet;
#X obj 60 125 sel 13 23 33 43 53 63 73 83;
#X msg 60 152 83 0 73 0 63 0 53 0 43 0 33 0 23 0;
#X msg 82 192 83 0 73 0 63 0 53 0 43 0 33 0 13 0;
#X msg 100 243 83 0 73 0 63 0 53 0 43 0 23 0 13 0;
#X msg 130 290 83 0 73 0 63 0 53 0 33 0 23 0 13 0;
#X msg 155 338 83 0 73 0 63 0 43 0 33 0 23 0 13 0;
#X msg 180 382 83 0 73 0 53 0 43 0 33 0 23 0 13 0;
#X msg 212 425 83 0 63 0 53 0 43 0 33 0 23 0 13 0;
#X msg 229 472 73 0 63 0 53 0 43 0 33 0 23 0 13 0;
#X obj 69 598 s s\$1_m2a_tognote;
#X connect 0 0 18 0;
#X connect 1 0 18 0;
#X connect 2 0 18 0;
#X connect 3 0 18 0;
#X connect 4 0 18 0;
#X connect 5 0 18 0;
#X connect 6 0 18 0;
#X connect 7 0 18 0;
#X connect 8 0 9 0;
#X connect 9 0 10 0;
#X connect 9 1 11 0;
#X connect 9 2 12 0;
#X connect 9 3 13 0;
#X connect 9 4 14 0;
#X connect 9 5 15 0;
#X connect 9 6 16 0;
#X connect 9 7 17 0;
#X connect 10 0 0 0;
#X connect 11 0 1 0;
#X connect 12 0 2 0;
#X connect 13 0 3 0;
#X connect 14 0 4 0;
#X connect 15 0 5 0;
#X connect 16 0 6 0;
#X connect 17 0 7 0;
#X restore 68 523 pd col3a;
#N canvas 0 93 1920 987 col4a 0;
#X obj 60 172 zl iter 2;
#X obj 83 212 zl iter 2;
#X obj 102 263 zl iter 2;
#X obj 130 313 zl iter 2;
#X obj 157 358 zl iter 2;
#X obj 183 402 zl iter 2;
#X obj 213 445 zl iter 2;
#X obj 231 492 zl iter 2;
#X obj 64 87 inlet;
#X obj 60 125 sel 14 24 34 44 54 64 74 84;
#X msg 60 152 84 0 74 0 64 0 54 0 44 0 34 0 24 0;
#X msg 82 192 84 0 74 0 64 0 54 0 44 0 34 0 14 0;
#X msg 99 243 84 0 74 0 64 0 54 0 44 0 24 0 14 0;
#X msg 130 290 84 0 74 0 64 0 54 0 34 0 24 0 14 0;
#X msg 154 338 84 0 74 0 64 0 44 0 34 0 24 0 14 0;
#X msg 180 382 84 0 74 0 54 0 44 0 34 0 24 0 14 0;
#X msg 213 425 84 0 64 0 54 0 44 0 34 0 24 0 14 0;
#X msg 229 472 74 0 64 0 54 0 44 0 34 0 24 0 14 0;
#X obj 69 598 s s\$1_m2a_tognote;
#X connect 0 0 18 0;
#X connect 1 0 18 0;
#X connect 2 0 18 0;
#X connect 3 0 18 0;
#X connect 4 0 18 0;
#X connect 5 0 18 0;
#X connect 6 0 18 0;
#X connect 7 0 18 0;
#X connect 8 0 9 0;
#X connect 9 0 10 0;
#X connect 9 1 11 0;
#X connect 9 2 12 0;
#X connect 9 3 13 0;
#X connect 9 4 14 0;
#X connect 9 5 15 0;
#X connect 9 6 16 0;
#X connect 9 7 17 0;
#X connect 10 0 0 0;
#X connect 11 0 1 0;
#X connect 12 0 2 0;
#X connect 13 0 3 0;
#X connect 14 0 4 0;
#X connect 15 0 5 0;
#X connect 16 0 6 0;
#X connect 17 0 7 0;
#X restore 88 543 pd col4a;
#N canvas 65 124 543 681 col5a 0;
#X obj 60 172 zl iter 2;
#X obj 83 212 zl iter 2;
#X obj 102 263 zl iter 2;
#X obj 130 313 zl iter 2;
#X obj 157 358 zl iter 2;
#X obj 183 402 zl iter 2;
#X obj 213 445 zl iter 2;
#X obj 231 492 zl iter 2;
#X obj 64 87 inlet;
#X obj 60 125 sel 15 25 35 45 55 65 75 85;
#X msg 61 152 85 0 75 0 65 0 55 0 45 0 35 0 25 0;
#X msg 82 192 85 0 75 0 65 0 55 0 45 0 35 0 15 0;
#X msg 99 243 85 0 75 0 65 0 55 0 45 0 25 0 15 0;
#X msg 130 290 85 0 75 0 65 0 55 0 35 0 25 0 15 0;
#X msg 153 338 85 0 75 0 65 0 45 0 35 0 25 0 15 0;
#X msg 180 382 85 0 75 0 55 0 45 0 35 0 25 0 15 0;
#X msg 213 425 85 0 65 0 55 0 45 0 35 0 25 0 15 0;
#X msg 229 472 75 0 65 0 55 0 45 0 35 0 25 0 15 0;
#X obj 69 598 s s\$1_m2a_tognote;
#X connect 0 0 18 0;
#X connect 1 0 18 0;
#X connect 2 0 18 0;
#X connect 3 0 18 0;
#X connect 4 0 18 0;
#X connect 5 0 18 0;
#X connect 6 0 18 0;
#X connect 7 0 18 0;
#X connect 8 0 9 0;
#X connect 9 0 10 0;
#X connect 9 1 11 0;
#X connect 9 2 12 0;
#X connect 9 3 13 0;
#X connect 9 4 14 0;
#X connect 9 5 15 0;
#X connect 9 6 16 0;
#X connect 9 7 17 0;
#X connect 10 0 0 0;
#X connect 11 0 1 0;
#X connect 12 0 2 0;
#X connect 13 0 3 0;
#X connect 14 0 4 0;
#X connect 15 0 5 0;
#X connect 16 0 6 0;
#X connect 17 0 7 0;
#X restore 129 477 pd col5a;
#N canvas 162 123 452 704 col6a 0;
#X obj 60 172 zl iter 2;
#X obj 83 212 zl iter 2;
#X obj 102 263 zl iter 2;
#X obj 130 313 zl iter 2;
#X obj 157 358 zl iter 2;
#X obj 183 402 zl iter 2;
#X obj 213 445 zl iter 2;
#X obj 231 492 zl iter 2;
#X obj 64 87 inlet;
#X obj 60 125 sel 16 26 36 46 56 66 76 86;
#X msg 61 152 86 0 76 0 66 0 56 0 46 0 36 0 26 0;
#X msg 82 192 86 0 76 0 66 0 56 0 46 0 36 0 16 0;
#X msg 99 243 86 0 76 0 66 0 56 0 46 0 26 0 16 0;
#X msg 130 290 86 0 76 0 66 0 56 0 36 0 26 0 16 0;
#X msg 153 338 86 0 76 0 66 0 46 0 36 0 26 0 16 0;
#X msg 180 382 86 0 76 0 56 0 46 0 36 0 26 0 16 0;
#X msg 213 425 86 0 66 0 56 0 46 0 36 0 26 0 16 0;
#X msg 229 472 76 0 66 0 56 0 46 0 36 0 26 0 16 0;
#X obj 68 597 s s\$1_m2a_tognote;
#X connect 0 0 18 0;
#X connect 1 0 18 0;
#X connect 2 0 18 0;
#X connect 3 0 18 0;
#X connect 4 0 18 0;
#X connect 5 0 18 0;
#X connect 6 0 18 0;
#X connect 7 0 18 0;
#X connect 8 0 9 0;
#X connect 9 0 10 0;
#X connect 9 1 11 0;
#X connect 9 2 12 0;
#X connect 9 3 13 0;
#X connect 9 4 14 0;
#X connect 9 5 15 0;
#X connect 9 6 16 0;
#X connect 9 7 17 0;
#X connect 10 0 0 0;
#X connect 11 0 1 0;
#X connect 12 0 2 0;
#X connect 13 0 3 0;
#X connect 14 0 4 0;
#X connect 15 0 5 0;
#X connect 16 0 6 0;
#X connect 17 0 7 0;
#X restore 146 501 pd col6a;
#N canvas 66 136 451 681 col7a 0;
#X obj 60 172 zl iter 2;
#X obj 83 212 zl iter 2;
#X obj 102 263 zl iter 2;
#X obj 130 313 zl iter 2;
#X obj 157 358 zl iter 2;
#X obj 183 402 zl iter 2;
#X obj 213 445 zl iter 2;
#X obj 231 492 zl iter 2;
#X obj 64 87 inlet;
#X obj 60 125 sel 17 27 37 47 57 67 77 87;
#X msg 61 152 87 0 77 0 67 0 57 0 47 0 37 0 27 0;
#X msg 82 192 87 0 77 0 67 0 57 0 47 0 37 0 17 0;
#X msg 99 243 87 0 77 0 67 0 57 0 47 0 27 0 17 0;
#X msg 130 290 87 0 77 0 67 0 57 0 37 0 27 0 17 0;
#X msg 153 338 87 0 77 0 67 0 47 0 37 0 27 0 17 0;
#X msg 180 382 87 0 77 0 57 0 47 0 37 0 27 0 17 0;
#X msg 213 425 87 0 67 0 57 0 47 0 37 0 27 0 17 0;
#X msg 229 472 77 0 67 0 57 0 47 0 37 0 27 0 17 0;
#X obj 69 598 s s\$1_m2a_tognote;
#X connect 0 0 18 0;
#X connect 1 0 18 0;
#X connect 2 0 18 0;
#X connect 3 0 18 0;
#X connect 4 0 18 0;
#X connect 5 0 18 0;
#X connect 6 0 18 0;
#X connect 7 0 18 0;
#X connect 8 0 9 0;
#X connect 9 0 10 0;
#X connect 9 1 11 0;
#X connect 9 2 12 0;
#X connect 9 3 13 0;
#X connect 9 4 14 0;
#X connect 9 5 15 0;
#X connect 9 6 16 0;
#X connect 9 7 17 0;
#X connect 10 0 0 0;
#X connect 11 0 1 0;
#X connect 12 0 2 0;
#X connect 13 0 3 0;
#X connect 14 0 4 0;
#X connect 15 0 5 0;
#X connect 16 0 6 0;
#X connect 17 0 7 0;
#X restore 171 523 pd col7a;
#N canvas 66 142 456 681 col8a 0;
#X obj 60 172 zl iter 2;
#X obj 83 212 zl iter 2;
#X obj 102 263 zl iter 2;
#X obj 130 313 zl iter 2;
#X obj 157 358 zl iter 2;
#X obj 183 402 zl iter 2;
#X obj 213 445 zl iter 2;
#X obj 231 492 zl iter 2;
#X obj 64 87 inlet;
#X obj 60 125 sel 18 28 38 48 58 68 78 88;
#X msg 61 152 88 0 78 0 68 0 58 0 48 0 38 0 28 0;
#X msg 82 192 88 0 78 0 68 0 58 0 48 0 38 0 18 0;
#X msg 98 243 88 0 78 0 68 0 58 0 48 0 28 0 18 0;
#X msg 130 290 88 0 78 0 68 0 58 0 38 0 28 0 18 0;
#X msg 153 338 88 0 78 0 68 0 48 0 38 0 28 0 18 0;
#X msg 180 382 88 0 78 0 58 0 48 0 38 0 28 0 18 0;
#X msg 213 425 88 0 68 0 58 0 48 0 38 0 28 0 18 0;
#X msg 229 472 78 0 68 0 58 0 48 0 38 0 28 0 18 0;
#X obj 67 598 s s\$1_m2a_tognote;
#X connect 0 0 18 0;
#X connect 1 0 18 0;
#X connect 2 0 18 0;
#X connect 3 0 18 0;
#X connect 4 0 18 0;
#X connect 5 0 18 0;
#X connect 6 0 18 0;
#X connect 7 0 18 0;
#X connect 8 0 9 0;
#X connect 9 0 10 0;
#X connect 9 1 11 0;
#X connect 9 2 12 0;
#X connect 9 3 13 0;
#X connect 9 4 14 0;
#X connect 9 5 15 0;
#X connect 9 6 16 0;
#X connect 9 7 17 0;
#X connect 10 0 0 0;
#X connect 11 0 1 0;
#X connect 12 0 2 0;
#X connect 13 0 3 0;
#X connect 14 0 4 0;
#X connect 15 0 5 0;
#X connect 16 0 6 0;
#X connect 17 0 7 0;
#X restore 185 544 pd col8a;
#N canvas 66 112 385 681 col1b 0;
#X obj 60 125 sel 11 21 31 41 51 61 71 81;
#X obj 60 172 zl iter 2;
#X msg 60 152 81 0 71 0 61 0 51 0 41 0 31 0 21 0;
#X obj 83 212 zl iter 2;
#X msg 83 192 81 0 71 0 61 0 51 0 41 0 31 0 11 0;
#X obj 102 263 zl iter 2;
#X msg 102 243 81 0 71 0 61 0 51 0 41 0 21 0 11 0;
#X obj 130 313 zl iter 2;
#X msg 130 293 81 0 71 0 61 0 51 0 31 0 21 0 11 0;
#X obj 157 358 zl iter 2;
#X msg 157 338 81 0 71 0 61 0 41 0 31 0 21 0 11 0;
#X obj 183 402 zl iter 2;
#X msg 183 382 81 0 71 0 51 0 41 0 31 0 21 0 11 0;
#X obj 213 445 zl iter 2;
#X msg 213 425 81 0 61 0 51 0 41 0 31 0 21 0 11 0;
#X obj 231 492 zl iter 2;
#X msg 231 473 71 0 61 0 51 0 41 0 31 0 21 0 11 0;
#X obj 64 87 inlet;
#X obj 70 598 s s\$1_m2b_tognote;
#X connect 0 0 2 0;
#X connect 0 1 4 0;
#X connect 0 2 6 0;
#X connect 0 3 8 0;
#X connect 0 4 10 0;
#X connect 0 5 12 0;
#X connect 0 6 14 0;
#X connect 0 7 16 0;
#X connect 1 0 18 0;
#X connect 2 0 1 0;
#X connect 3 0 18 0;
#X connect 4 0 3 0;
#X connect 5 0 18 0;
#X connect 6 0 5 0;
#X connect 7 0 18 0;
#X connect 8 0 7 0;
#X connect 9 0 18 0;
#X connect 10 0 9 0;
#X connect 11 0 18 0;
#X connect 12 0 11 0;
#X connect 13 0 18 0;
#X connect 14 0 13 0;
#X connect 15 0 18 0;
#X connect 16 0 15 0;
#X connect 17 0 0 0;
#X restore 287 478 pd col1b;
#N canvas 66 106 457 681 col2b 0;
#X obj 60 172 zl iter 2;
#X obj 83 212 zl iter 2;
#X obj 102 263 zl iter 2;
#X obj 130 313 zl iter 2;
#X obj 157 358 zl iter 2;
#X obj 183 402 zl iter 2;
#X obj 213 445 zl iter 2;
#X obj 231 492 zl iter 2;
#X obj 64 87 inlet;
#X obj 60 125 sel 12 22 32 42 52 62 72 82;
#X msg 60 152 82 0 72 0 62 0 52 0 42 0 32 0 22 0;
#X msg 82 192 82 0 72 0 62 0 52 0 42 0 32 0 12 0;
#X msg 100 243 82 0 72 0 62 0 52 0 42 0 22 0 12 0;
#X msg 130 290 82 0 72 0 62 0 52 0 32 0 22 0 12 0;
#X msg 155 338 82 0 72 0 62 0 42 0 32 0 22 0 12 0;
#X msg 180 382 82 0 72 0 52 0 42 0 32 0 22 0 12 0;
#X msg 212 425 82 0 62 0 52 0 42 0 32 0 22 0 12 0;
#X msg 229 472 72 0 62 0 52 0 42 0 32 0 22 0 12 0;
#X obj 69 598 s s\$1_m2b_tognote;
#X connect 0 0 18 0;
#X connect 1 0 18 0;
#X connect 2 0 18 0;
#X connect 3 0 18 0;
#X connect 4 0 18 0;
#X connect 5 0 18 0;
#X connect 6 0 18 0;
#X connect 7 0 18 0;
#X connect 8 0 9 0;
#X connect 9 0 10 0;
#X connect 9 1 11 0;
#X connect 9 2 12 0;
#X connect 9 3 13 0;
#X connect 9 4 14 0;
#X connect 9 5 15 0;
#X connect 9 6 16 0;
#X connect 9 7 17 0;
#X connect 10 0 0 0;
#X connect 11 0 1 0;
#X connect 12 0 2 0;
#X connect 13 0 3 0;
#X connect 14 0 4 0;
#X connect 15 0 5 0;
#X connect 16 0 6 0;
#X connect 17 0 7 0;
#X restore 308 503 pd col2b;
#N canvas 66 112 482 681 col3b 0;
#X obj 60 172 zl iter 2;
#X obj 83 212 zl iter 2;
#X obj 102 263 zl iter 2;
#X obj 130 313 zl iter 2;
#X obj 157 358 zl iter 2;
#X obj 183 402 zl iter 2;
#X obj 213 445 zl iter 2;
#X obj 231 492 zl iter 2;
#X obj 64 87 inlet;
#X obj 60 125 sel 13 23 33 43 53 63 73 83;
#X msg 60 152 83 0 73 0 63 0 53 0 43 0 33 0 23 0;
#X msg 82 192 83 0 73 0 63 0 53 0 43 0 33 0 13 0;
#X msg 100 243 83 0 73 0 63 0 53 0 43 0 23 0 13 0;
#X msg 130 290 83 0 73 0 63 0 53 0 33 0 23 0 13 0;
#X msg 155 338 83 0 73 0 63 0 43 0 33 0 23 0 13 0;
#X msg 180 382 83 0 73 0 53 0 43 0 33 0 23 0 13 0;
#X msg 212 425 83 0 63 0 53 0 43 0 33 0 23 0 13 0;
#X msg 229 472 73 0 63 0 53 0 43 0 33 0 23 0 13 0;
#X obj 69 598 s s\$1_m2b_tognote;
#X connect 0 0 18 0;
#X connect 1 0 18 0;
#X connect 2 0 18 0;
#X connect 3 0 18 0;
#X connect 4 0 18 0;
#X connect 5 0 18 0;
#X connect 6 0 18 0;
#X connect 7 0 18 0;
#X connect 8 0 9 0;
#X connect 9 0 10 0;
#X connect 9 1 11 0;
#X connect 9 2 12 0;
#X connect 9 3 13 0;
#X connect 9 4 14 0;
#X connect 9 5 15 0;
#X connect 9 6 16 0;
#X connect 9 7 17 0;
#X connect 10 0 0 0;
#X connect 11 0 1 0;
#X connect 12 0 2 0;
#X connect 13 0 3 0;
#X connect 14 0 4 0;
#X connect 15 0 5 0;
#X connect 16 0 6 0;
#X connect 17 0 7 0;
#X restore 331 525 pd col3b;
#N canvas 521 106 454 704 col4b 0;
#X obj 60 172 zl iter 2;
#X obj 83 212 zl iter 2;
#X obj 102 263 zl iter 2;
#X obj 130 313 zl iter 2;
#X obj 157 358 zl iter 2;
#X obj 183 402 zl iter 2;
#X obj 213 445 zl iter 2;
#X obj 231 492 zl iter 2;
#X obj 64 87 inlet;
#X obj 60 125 sel 14 24 34 44 54 64 74 84;
#X msg 60 152 84 0 74 0 64 0 54 0 44 0 34 0 24 0;
#X msg 82 192 84 0 74 0 64 0 54 0 44 0 34 0 14 0;
#X msg 99 243 84 0 74 0 64 0 54 0 44 0 24 0 14 0;
#X msg 130 290 84 0 74 0 64 0 54 0 34 0 24 0 14 0;
#X msg 154 338 84 0 74 0 64 0 44 0 34 0 24 0 14 0;
#X msg 180 382 84 0 74 0 54 0 44 0 34 0 24 0 14 0;
#X msg 213 425 84 0 64 0 54 0 44 0 34 0 24 0 14 0;
#X msg 229 472 74 0 64 0 54 0 44 0 34 0 24 0 14 0;
#X obj 67 597 s s\$1_m2b_tognote;
#X connect 0 0 18 0;
#X connect 1 0 18 0;
#X connect 2 0 18 0;
#X connect 3 0 18 0;
#X connect 4 0 18 0;
#X connect 5 0 18 0;
#X connect 6 0 18 0;
#X connect 7 0 18 0;
#X connect 8 0 9 0;
#X connect 9 0 10 0;
#X connect 9 1 11 0;
#X connect 9 2 12 0;
#X connect 9 3 13 0;
#X connect 9 4 14 0;
#X connect 9 5 15 0;
#X connect 9 6 16 0;
#X connect 9 7 17 0;
#X connect 10 0 0 0;
#X connect 11 0 1 0;
#X connect 12 0 2 0;
#X connect 13 0 3 0;
#X connect 14 0 4 0;
#X connect 15 0 5 0;
#X connect 16 0 6 0;
#X connect 17 0 7 0;
#X restore 351 546 pd col4b;
#N canvas 66 148 451 681 col8b 0;
#X obj 60 172 zl iter 2;
#X obj 83 212 zl iter 2;
#X obj 102 263 zl iter 2;
#X obj 130 313 zl iter 2;
#X obj 157 358 zl iter 2;
#X obj 183 402 zl iter 2;
#X obj 213 445 zl iter 2;
#X obj 231 492 zl iter 2;
#X obj 64 87 inlet;
#X obj 60 125 sel 18 28 38 48 58 68 78 88;
#X msg 61 152 88 0 78 0 68 0 58 0 48 0 38 0 28 0;
#X msg 82 192 88 0 78 0 68 0 58 0 48 0 38 0 18 0;
#X msg 98 243 88 0 78 0 68 0 58 0 48 0 28 0 18 0;
#X msg 130 290 88 0 78 0 68 0 58 0 38 0 28 0 18 0;
#X msg 153 338 88 0 78 0 68 0 48 0 38 0 28 0 18 0;
#X msg 180 382 88 0 78 0 58 0 48 0 38 0 28 0 18 0;
#X msg 213 425 88 0 68 0 58 0 48 0 38 0 28 0 18 0;
#X msg 229 472 78 0 68 0 58 0 48 0 38 0 28 0 18 0;
#X obj 69 598 s s\$1_m2b_tognote;
#X connect 0 0 18 0;
#X connect 1 0 18 0;
#X connect 2 0 18 0;
#X connect 3 0 18 0;
#X connect 4 0 18 0;
#X connect 5 0 18 0;
#X connect 6 0 18 0;
#X connect 7 0 18 0;
#X connect 8 0 9 0;
#X connect 9 0 10 0;
#X connect 9 1 11 0;
#X connect 9 2 12 0;
#X connect 9 3 13 0;
#X connect 9 4 14 0;
#X connect 9 5 15 0;
#X connect 9 6 16 0;
#X connect 9 7 17 0;
#X connect 10 0 0 0;
#X connect 11 0 1 0;
#X connect 12 0 2 0;
#X connect 13 0 3 0;
#X connect 14 0 4 0;
#X connect 15 0 5 0;
#X connect 16 0 6 0;
#X connect 17 0 7 0;
#X restore 453 545 pd col8b;
#N canvas 66 136 452 681 col7b 0;
#X obj 60 172 zl iter 2;
#X obj 83 212 zl iter 2;
#X obj 102 263 zl iter 2;
#X obj 130 313 zl iter 2;
#X obj 157 358 zl iter 2;
#X obj 183 402 zl iter 2;
#X obj 213 445 zl iter 2;
#X obj 231 492 zl iter 2;
#X obj 64 87 inlet;
#X obj 60 125 sel 17 27 37 47 57 67 77 87;
#X msg 61 152 87 0 77 0 67 0 57 0 47 0 37 0 27 0;
#X msg 82 192 87 0 77 0 67 0 57 0 47 0 37 0 17 0;
#X msg 99 243 87 0 77 0 67 0 57 0 47 0 27 0 17 0;
#X msg 130 290 87 0 77 0 67 0 57 0 37 0 27 0 17 0;
#X msg 153 338 87 0 77 0 67 0 47 0 37 0 27 0 17 0;
#X msg 180 382 87 0 77 0 57 0 47 0 37 0 27 0 17 0;
#X msg 213 425 87 0 67 0 57 0 47 0 37 0 27 0 17 0;
#X msg 229 472 77 0 67 0 57 0 47 0 37 0 27 0 17 0;
#X obj 66 595 s s\$1_m2b_tognote;
#X connect 0 0 18 0;
#X connect 1 0 18 0;
#X connect 2 0 18 0;
#X connect 3 0 18 0;
#X connect 4 0 18 0;
#X connect 5 0 18 0;
#X connect 6 0 18 0;
#X connect 7 0 18 0;
#X connect 8 0 9 0;
#X connect 9 0 10 0;
#X connect 9 1 11 0;
#X connect 9 2 12 0;
#X connect 9 3 13 0;
#X connect 9 4 14 0;
#X connect 9 5 15 0;
#X connect 9 6 16 0;
#X connect 9 7 17 0;
#X connect 10 0 0 0;
#X connect 11 0 1 0;
#X connect 12 0 2 0;
#X connect 13 0 3 0;
#X connect 14 0 4 0;
#X connect 15 0 5 0;
#X connect 16 0 6 0;
#X connect 17 0 7 0;
#X restore 435 525 pd col7b;
#N canvas 66 136 455 681 col6b 0;
#X obj 60 172 zl iter 2;
#X obj 83 212 zl iter 2;
#X obj 102 263 zl iter 2;
#X obj 130 313 zl iter 2;
#X obj 157 358 zl iter 2;
#X obj 183 402 zl iter 2;
#X obj 213 445 zl iter 2;
#X obj 231 492 zl iter 2;
#X obj 64 87 inlet;
#X obj 60 125 sel 16 26 36 46 56 66 76 86;
#X msg 61 152 86 0 76 0 66 0 56 0 46 0 36 0 26 0;
#X msg 82 192 86 0 76 0 66 0 56 0 46 0 36 0 16 0;
#X msg 99 243 86 0 76 0 66 0 56 0 46 0 26 0 16 0;
#X msg 130 290 86 0 76 0 66 0 56 0 36 0 26 0 16 0;
#X msg 153 338 86 0 76 0 66 0 46 0 36 0 26 0 16 0;
#X msg 180 382 86 0 76 0 56 0 46 0 36 0 26 0 16 0;
#X msg 213 425 86 0 66 0 56 0 46 0 36 0 26 0 16 0;
#X msg 229 472 76 0 66 0 56 0 46 0 36 0 26 0 16 0;
#X obj 70 598 s s\$1_m2b_tognote;
#X connect 0 0 18 0;
#X connect 1 0 18 0;
#X connect 2 0 18 0;
#X connect 3 0 18 0;
#X connect 4 0 18 0;
#X connect 5 0 18 0;
#X connect 6 0 18 0;
#X connect 7 0 18 0;
#X connect 8 0 9 0;
#X connect 9 0 10 0;
#X connect 9 1 11 0;
#X connect 9 2 12 0;
#X connect 9 3 13 0;
#X connect 9 4 14 0;
#X connect 9 5 15 0;
#X connect 9 6 16 0;
#X connect 9 7 17 0;
#X connect 10 0 0 0;
#X connect 11 0 1 0;
#X connect 12 0 2 0;
#X connect 13 0 3 0;
#X connect 14 0 4 0;
#X connect 15 0 5 0;
#X connect 16 0 6 0;
#X connect 17 0 7 0;
#X restore 405 503 pd col6b;
#N canvas 66 136 516 681 col5b 0;
#X obj 60 172 zl iter 2;
#X obj 83 212 zl iter 2;
#X obj 102 263 zl iter 2;
#X obj 130 313 zl iter 2;
#X obj 157 358 zl iter 2;
#X obj 183 402 zl iter 2;
#X obj 213 445 zl iter 2;
#X obj 231 492 zl iter 2;
#X obj 64 87 inlet;
#X obj 60 125 sel 15 25 35 45 55 65 75 85;
#X msg 61 152 85 0 75 0 65 0 55 0 45 0 35 0 25 0;
#X msg 82 192 85 0 75 0 65 0 55 0 45 0 35 0 15 0;
#X msg 99 243 85 0 75 0 65 0 55 0 45 0 25 0 15 0;
#X msg 130 290 85 0 75 0 65 0 55 0 35 0 25 0 15 0;
#X msg 153 338 85 0 75 0 65 0 45 0 35 0 25 0 15 0;
#X msg 180 382 85 0 75 0 55 0 45 0 35 0 25 0 15 0;
#X msg 213 425 85 0 65 0 55 0 45 0 35 0 25 0 15 0;
#X msg 229 472 75 0 65 0 55 0 45 0 35 0 25 0 15 0;
#X obj 69 598 s s\$1_m2b_tognote;
#X connect 0 0 18 0;
#X connect 1 0 18 0;
#X connect 2 0 18 0;
#X connect 3 0 18 0;
#X connect 4 0 18 0;
#X connect 5 0 18 0;
#X connect 6 0 18 0;
#X connect 7 0 18 0;
#X connect 8 0 9 0;
#X connect 9 0 10 0;
#X connect 9 1 11 0;
#X connect 9 2 12 0;
#X connect 9 3 13 0;
#X connect 9 4 14 0;
#X connect 9 5 15 0;
#X connect 9 6 16 0;
#X connect 9 7 17 0;
#X connect 10 0 0 0;
#X connect 11 0 1 0;
#X connect 12 0 2 0;
#X connect 13 0 3 0;
#X connect 14 0 4 0;
#X connect 15 0 5 0;
#X connect 16 0 6 0;
#X connect 17 0 7 0;
#X restore 385 478 pd col5b;
#X obj 103 426 s s\$1_m2a_tognote;
#X obj 358 427 s s\$1_m2b_tognote;
#X obj 453 228 tabread \$1_cc\$2;
#X obj 198 229 tabread \$1_cc\$2;
#X obj 142 360 r s\$1.\$2;
#X obj 398 357 r s\$1.\$2;
#X text 567 228 selected;
#X text 314 230 selected;
#X obj 156 382 CC_MUTE_COLOUR;
#X msg 453 198 set \$1;
#X msg 198 202 set \$1;
#X symbolatom 526 202 20 0 0 0 - - -;
#X obj 411 379 CC_MUTE_COLOUR;
#X obj 872 33 bng 15 250 50 0 empty empty empty 17 7 0 10 -262144 -1
-1;
#X msg 912 31 0;
#X obj 944 408 pack f f;
#X obj 944 382 spigot;
#X obj 944 338 expr $f1 + $f2;
#X obj 872 51 loadbang;
#X obj 689 137 moses 7.5;
#X obj 1039 292 * 10;
#X obj 1039 273 + 1;
#X obj 689 407 pack f f;
#X obj 689 384 spigot;
#X obj 784 294 * 10;
#X obj 784 275 + 1;
#X obj 618 406 pack f f;
#X obj 618 382 spigot;
#X obj 872 390 spigot;
#X obj 872 412 pack f f;
#X obj 872 456 route 8 9 10 11 12 13 14 15;
#X text 936 51 constantly poll the array and update the lights;
#X obj 618 456 route 0 1 2 3 4 5 6 7, f 27;
#X obj 689 336 expr $f1 + $f2;
#X obj 872 97 counter 0 15;
#X obj 944 196 t f f;
#X obj 689 163 t f f;
#X obj 874 75 metro 10;
#N canvas 93 589 450 300 seq_CC_LHS 0;
#X msg 281 86 8;
#X msg 56 86 1;
#X msg 88 86 2;
#X msg 120 86 3;
#X msg 152 86 4;
#X msg 185 86 5;
#X msg 217 86 6;
#X msg 249 86 7;
#X obj 55 39 inlet;
#X obj 139 148 outlet;
#X obj 56 64 sel 0 1 2 3 4 5 6 7, f 37;
#X connect 0 0 9 0;
#X connect 1 0 9 0;
#X connect 2 0 9 0;
#X connect 3 0 9 0;
#X connect 4 0 9 0;
#X connect 5 0 9 0;
#X connect 6 0 9 0;
#X connect 7 0 9 0;
#X connect 8 0 10 0;
#X connect 10 0 1 0;
#X connect 10 1 2 0;
#X connect 10 2 3 0;
#X connect 10 3 4 0;
#X connect 10 4 5 0;
#X connect 10 5 6 0;
#X connect 10 6 7 0;
#X connect 10 7 0 0;
#X restore 689 308 pd seq_CC_LHS;
#N canvas 67 94 450 300 seq_CC_RHS 0;
#X msg 281 86 8;
#X obj 56 64 sel 8 9 10 11 12 13 14 15, f 37;
#X msg 56 86 1;
#X msg 88 86 2;
#X msg 120 86 3;
#X msg 152 86 4;
#X msg 185 86 5;
#X msg 217 86 6;
#X msg 249 86 7;
#X obj 55 39 inlet;
#X obj 139 148 outlet;
#X connect 0 0 10 0;
#X connect 1 0 2 0;
#X connect 1 1 3 0;
#X connect 1 2 4 0;
#X connect 1 3 5 0;
#X connect 1 4 6 0;
#X connect 1 5 7 0;
#X connect 1 6 8 0;
#X connect 1 7 0 0;
#X connect 2 0 10 0;
#X connect 3 0 10 0;
#X connect 4 0 10 0;
#X connect 5 0 10 0;
#X connect 6 0 10 0;
#X connect 7 0 10 0;
#X connect 8 0 10 0;
#X connect 9 0 1 0;
#X restore 944 311 pd seq_CC_RHS;
#N canvas 67 124 472 681 col1a 0;
#X obj 60 125 sel 11 21 31 41 51 61 71 81;
#X obj 60 172 zl iter 2;
#X msg 60 152 81 0 71 0 61 0 51 0 41 0 31 0 21 0;
#X obj 83 212 zl iter 2;
#X msg 83 192 81 0 71 0 61 0 51 0 41 0 31 0 11 0;
#X obj 102 263 zl iter 2;
#X msg 102 243 81 0 71 0 61 0 51 0 41 0 21 0 11 0;
#X obj 130 313 zl iter 2;
#X msg 130 293 81 0 71 0 61 0 51 0 31 0 21 0 11 0;
#X obj 157 358 zl iter 2;
#X msg 157 338 81 0 71 0 61 0 41 0 31 0 21 0 11 0;
#X obj 183 402 zl iter 2;
#X msg 183 382 81 0 71 0 51 0 41 0 31 0 21 0 11 0;
#X obj 213 445 zl iter 2;
#X msg 213 425 81 0 61 0 51 0 41 0 31 0 21 0 11 0;
#X obj 231 492 zl iter 2;
#X msg 231 473 71 0 61 0 51 0 41 0 31 0 21 0 11 0;
#X obj 64 87 inlet;
#X obj 69 598 outlet;
#X connect 0 0 2 0;
#X connect 0 1 4 0;
#X connect 0 2 6 0;
#X connect 0 3 8 0;
#X connect 0 4 10 0;
#X connect 0 5 12 0;
#X connect 0 6 14 0;
#X connect 0 7 16 0;
#X connect 1 0 18 0;
#X connect 2 0 1 0;
#X connect 3 0 18 0;
#X connect 4 0 3 0;
#X connect 5 0 18 0;
#X connect 6 0 5 0;
#X connect 7 0 18 0;
#X connect 8 0 7 0;
#X connect 9 0 18 0;
#X connect 10 0 9 0;
#X connect 11 0 18 0;
#X connect 12 0 11 0;
#X connect 13 0 18 0;
#X connect 14 0 13 0;
#X connect 15 0 18 0;
#X connect 16 0 15 0;
#X connect 17 0 0 0;
#X restore 617 480 pd col1a;
#N canvas 67 106 464 681 col2a 0;
#X obj 60 172 zl iter 2;
#X obj 83 212 zl iter 2;
#X obj 102 263 zl iter 2;
#X obj 130 313 zl iter 2;
#X obj 157 358 zl iter 2;
#X obj 183 402 zl iter 2;
#X obj 213 445 zl iter 2;
#X obj 231 492 zl iter 2;
#X obj 64 87 inlet;
#X obj 60 125 sel 12 22 32 42 52 62 72 82;
#X msg 60 152 82 0 72 0 62 0 52 0 42 0 32 0 22 0;
#X msg 82 192 82 0 72 0 62 0 52 0 42 0 32 0 12 0;
#X msg 100 243 82 0 72 0 62 0 52 0 42 0 22 0 12 0;
#X msg 130 290 82 0 72 0 62 0 52 0 32 0 22 0 12 0;
#X msg 155 338 82 0 72 0 62 0 42 0 32 0 22 0 12 0;
#X msg 180 382 82 0 72 0 52 0 42 0 32 0 22 0 12 0;
#X msg 212 425 82 0 62 0 52 0 42 0 32 0 22 0 12 0;
#X msg 229 472 72 0 62 0 52 0 42 0 32 0 22 0 12 0;
#X obj 69 598 outlet;
#X connect 0 0 18 0;
#X connect 1 0 18 0;
#X connect 2 0 18 0;
#X connect 3 0 18 0;
#X connect 4 0 18 0;
#X connect 5 0 18 0;
#X connect 6 0 18 0;
#X connect 7 0 18 0;
#X connect 8 0 9 0;
#X connect 9 0 10 0;
#X connect 9 1 11 0;
#X connect 9 2 12 0;
#X connect 9 3 13 0;
#X connect 9 4 14 0;
#X connect 9 5 15 0;
#X connect 9 6 16 0;
#X connect 9 7 17 0;
#X connect 10 0 0 0;
#X connect 11 0 1 0;
#X connect 12 0 2 0;
#X connect 13 0 3 0;
#X connect 14 0 4 0;
#X connect 15 0 5 0;
#X connect 16 0 6 0;
#X connect 17 0 7 0;
#X restore 634 504 pd col2a;
#N canvas 67 112 479 681 col3a 0;
#X obj 60 172 zl iter 2;
#X obj 83 212 zl iter 2;
#X obj 102 263 zl iter 2;
#X obj 130 313 zl iter 2;
#X obj 157 358 zl iter 2;
#X obj 183 402 zl iter 2;
#X obj 213 445 zl iter 2;
#X obj 231 492 zl iter 2;
#X obj 64 87 inlet;
#X obj 60 125 sel 13 23 33 43 53 63 73 83;
#X msg 60 152 83 0 73 0 63 0 53 0 43 0 33 0 23 0;
#X msg 82 192 83 0 73 0 63 0 53 0 43 0 33 0 13 0;
#X msg 100 243 83 0 73 0 63 0 53 0 43 0 23 0 13 0;
#X msg 130 290 83 0 73 0 63 0 53 0 33 0 23 0 13 0;
#X msg 155 338 83 0 73 0 63 0 43 0 33 0 23 0 13 0;
#X msg 180 382 83 0 73 0 53 0 43 0 33 0 23 0 13 0;
#X msg 212 425 83 0 63 0 53 0 43 0 33 0 23 0 13 0;
#X msg 229 472 73 0 63 0 53 0 43 0 33 0 23 0 13 0;
#X obj 69 598 outlet;
#X connect 0 0 18 0;
#X connect 1 0 18 0;
#X connect 2 0 18 0;
#X connect 3 0 18 0;
#X connect 4 0 18 0;
#X connect 5 0 18 0;
#X connect 6 0 18 0;
#X connect 7 0 18 0;
#X connect 8 0 9 0;
#X connect 9 0 10 0;
#X connect 9 1 11 0;
#X connect 9 2 12 0;
#X connect 9 3 13 0;
#X connect 9 4 14 0;
#X connect 9 5 15 0;
#X connect 9 6 16 0;
#X connect 9 7 17 0;
#X connect 10 0 0 0;
#X connect 11 0 1 0;
#X connect 12 0 2 0;
#X connect 13 0 3 0;
#X connect 14 0 4 0;
#X connect 15 0 5 0;
#X connect 16 0 6 0;
#X connect 17 0 7 0;
#X restore 654 526 pd col3a;
#N canvas 67 80 1533 820 col4a 0;
#X obj 60 172 zl iter 2;
#X obj 83 212 zl iter 2;
#X obj 102 263 zl iter 2;
#X obj 130 313 zl iter 2;
#X obj 157 358 zl iter 2;
#X obj 183 402 zl iter 2;
#X obj 213 445 zl iter 2;
#X obj 231 492 zl iter 2;
#X obj 64 87 inlet;
#X obj 60 125 sel 14 24 34 44 54 64 74 84;
#X msg 60 152 84 0 74 0 64 0 54 0 44 0 34 0 24 0;
#X msg 82 192 84 0 74 0 64 0 54 0 44 0 34 0 14 0;
#X msg 99 243 84 0 74 0 64 0 54 0 44 0 24 0 14 0;
#X msg 130 290 84 0 74 0 64 0 54 0 34 0 24 0 14 0;
#X msg 154 338 84 0 74 0 64 0 44 0 34 0 24 0 14 0;
#X msg 180 382 84 0 74 0 54 0 44 0 34 0 24 0 14 0;
#X msg 213 425 84 0 64 0 54 0 44 0 34 0 24 0 14 0;
#X msg 229 472 74 0 64 0 54 0 44 0 34 0 24 0 14 0;
#X obj 69 598 outlet;
#X connect 0 0 18 0;
#X connect 1 0 18 0;
#X connect 2 0 18 0;
#X connect 3 0 18 0;
#X connect 4 0 18 0;
#X connect 5 0 18 0;
#X connect 6 0 18 0;
#X connect 7 0 18 0;
#X connect 8 0 9 0;
#X connect 9 0 10 0;
#X connect 9 1 11 0;
#X connect 9 2 12 0;
#X connect 9 3 13 0;
#X connect 9 4 14 0;
#X connect 9 5 15 0;
#X connect 9 6 16 0;
#X connect 9 7 17 0;
#X connect 10 0 0 0;
#X connect 11 0 1 0;
#X connect 12 0 2 0;
#X connect 13 0 3 0;
#X connect 14 0 4 0;
#X connect 15 0 5 0;
#X connect 16 0 6 0;
#X connect 17 0 7 0;
#X restore 674 546 pd col4a;
#N canvas 67 124 543 681 col5a 0;
#X obj 60 172 zl iter 2;
#X obj 83 212 zl iter 2;
#X obj 102 263 zl iter 2;
#X obj 130 313 zl iter 2;
#X obj 157 358 zl iter 2;
#X obj 183 402 zl iter 2;
#X obj 213 445 zl iter 2;
#X obj 231 492 zl iter 2;
#X obj 64 87 inlet;
#X obj 60 125 sel 15 25 35 45 55 65 75 85;
#X msg 61 152 85 0 75 0 65 0 55 0 45 0 35 0 25 0;
#X msg 82 192 85 0 75 0 65 0 55 0 45 0 35 0 15 0;
#X msg 99 243 85 0 75 0 65 0 55 0 45 0 25 0 15 0;
#X msg 130 290 85 0 75 0 65 0 55 0 35 0 25 0 15 0;
#X msg 153 338 85 0 75 0 65 0 45 0 35 0 25 0 15 0;
#X msg 180 382 85 0 75 0 55 0 45 0 35 0 25 0 15 0;
#X msg 213 425 85 0 65 0 55 0 45 0 35 0 25 0 15 0;
#X msg 229 472 75 0 65 0 55 0 45 0 35 0 25 0 15 0;
#X obj 69 598 outlet;
#X connect 0 0 18 0;
#X connect 1 0 18 0;
#X connect 2 0 18 0;
#X connect 3 0 18 0;
#X connect 4 0 18 0;
#X connect 5 0 18 0;
#X connect 6 0 18 0;
#X connect 7 0 18 0;
#X connect 8 0 9 0;
#X connect 9 0 10 0;
#X connect 9 1 11 0;
#X connect 9 2 12 0;
#X connect 9 3 13 0;
#X connect 9 4 14 0;
#X connect 9 5 15 0;
#X connect 9 6 16 0;
#X connect 9 7 17 0;
#X connect 10 0 0 0;
#X connect 11 0 1 0;
#X connect 12 0 2 0;
#X connect 13 0 3 0;
#X connect 14 0 4 0;
#X connect 15 0 5 0;
#X connect 16 0 6 0;
#X connect 17 0 7 0;
#X restore 715 480 pd col5a;
#N canvas 115 123 452 704 col6a 0;
#X obj 60 172 zl iter 2;
#X obj 83 212 zl iter 2;
#X obj 102 263 zl iter 2;
#X obj 130 313 zl iter 2;
#X obj 157 358 zl iter 2;
#X obj 183 402 zl iter 2;
#X obj 213 445 zl iter 2;
#X obj 231 492 zl iter 2;
#X obj 64 87 inlet;
#X obj 60 125 sel 16 26 36 46 56 66 76 86;
#X msg 61 152 86 0 76 0 66 0 56 0 46 0 36 0 26 0;
#X msg 82 192 86 0 76 0 66 0 56 0 46 0 36 0 16 0;
#X msg 99 243 86 0 76 0 66 0 56 0 46 0 26 0 16 0;
#X msg 130 290 86 0 76 0 66 0 56 0 36 0 26 0 16 0;
#X msg 153 338 86 0 76 0 66 0 46 0 36 0 26 0 16 0;
#X msg 180 382 86 0 76 0 56 0 46 0 36 0 26 0 16 0;
#X msg 213 425 86 0 66 0 56 0 46 0 36 0 26 0 16 0;
#X msg 229 472 76 0 66 0 56 0 46 0 36 0 26 0 16 0;
#X obj 68 597 outlet;
#X connect 0 0 18 0;
#X connect 1 0 18 0;
#X connect 2 0 18 0;
#X connect 3 0 18 0;
#X connect 4 0 18 0;
#X connect 5 0 18 0;
#X connect 6 0 18 0;
#X connect 7 0 18 0;
#X connect 8 0 9 0;
#X connect 9 0 10 0;
#X connect 9 1 11 0;
#X connect 9 2 12 0;
#X connect 9 3 13 0;
#X connect 9 4 14 0;
#X connect 9 5 15 0;
#X connect 9 6 16 0;
#X connect 9 7 17 0;
#X connect 10 0 0 0;
#X connect 11 0 1 0;
#X connect 12 0 2 0;
#X connect 13 0 3 0;
#X connect 14 0 4 0;
#X connect 15 0 5 0;
#X connect 16 0 6 0;
#X connect 17 0 7 0;
#X restore 732 504 pd col6a;
#N canvas 67 136 451 681 col7a 0;
#X obj 60 172 zl iter 2;
#X obj 83 212 zl iter 2;
#X obj 102 263 zl iter 2;
#X obj 130 313 zl iter 2;
#X obj 157 358 zl iter 2;
#X obj 183 402 zl iter 2;
#X obj 213 445 zl iter 2;
#X obj 231 492 zl iter 2;
#X obj 64 87 inlet;
#X obj 60 125 sel 17 27 37 47 57 67 77 87;
#X msg 61 152 87 0 77 0 67 0 57 0 47 0 37 0 27 0;
#X msg 82 192 87 0 77 0 67 0 57 0 47 0 37 0 17 0;
#X msg 99 243 87 0 77 0 67 0 57 0 47 0 27 0 17 0;
#X msg 130 290 87 0 77 0 67 0 57 0 37 0 27 0 17 0;
#X msg 153 338 87 0 77 0 67 0 47 0 37 0 27 0 17 0;
#X msg 180 382 87 0 77 0 57 0 47 0 37 0 27 0 17 0;
#X msg 213 425 87 0 67 0 57 0 47 0 37 0 27 0 17 0;
#X msg 229 472 77 0 67 0 57 0 47 0 37 0 27 0 17 0;
#X obj 69 598 outlet;
#X connect 0 0 18 0;
#X connect 1 0 18 0;
#X connect 2 0 18 0;
#X connect 3 0 18 0;
#X connect 4 0 18 0;
#X connect 5 0 18 0;
#X connect 6 0 18 0;
#X connect 7 0 18 0;
#X connect 8 0 9 0;
#X connect 9 0 10 0;
#X connect 9 1 11 0;
#X connect 9 2 12 0;
#X connect 9 3 13 0;
#X connect 9 4 14 0;
#X connect 9 5 15 0;
#X connect 9 6 16 0;
#X connect 9 7 17 0;
#X connect 10 0 0 0;
#X connect 11 0 1 0;
#X connect 12 0 2 0;
#X connect 13 0 3 0;
#X connect 14 0 4 0;
#X connect 15 0 5 0;
#X connect 16 0 6 0;
#X connect 17 0 7 0;
#X restore 757 526 pd col7a;
#N canvas 67 142 456 681 col8a 0;
#X obj 60 172 zl iter 2;
#X obj 83 212 zl iter 2;
#X obj 102 263 zl iter 2;
#X obj 130 313 zl iter 2;
#X obj 157 358 zl iter 2;
#X obj 183 402 zl iter 2;
#X obj 213 445 zl iter 2;
#X obj 231 492 zl iter 2;
#X obj 64 87 inlet;
#X obj 60 125 sel 18 28 38 48 58 68 78 88;
#X msg 61 152 88 0 78 0 68 0 58 0 48 0 38 0 28 0;
#X msg 82 192 88 0 78 0 68 0 58 0 48 0 38 0 18 0;
#X msg 98 243 88 0 78 0 68 0 58 0 48 0 28 0 18 0;
#X msg 130 290 88 0 78 0 68 0 58 0 38 0 28 0 18 0;
#X msg 153 338 88 0 78 0 68 0 48 0 38 0 28 0 18 0;
#X msg 180 382 88 0 78 0 58 0 48 0 38 0 28 0 18 0;
#X msg 213 425 88 0 68 0 58 0 48 0 38 0 28 0 18 0;
#X msg 229 472 78 0 68 0 58 0 48 0 38 0 28 0 18 0;
#X obj 67 598 outlet;
#X connect 0 0 18 0;
#X connect 1 0 18 0;
#X connect 2 0 18 0;
#X connect 3 0 18 0;
#X connect 4 0 18 0;
#X connect 5 0 18 0;
#X connect 6 0 18 0;
#X connect 7 0 18 0;
#X connect 8 0 9 0;
#X connect 9 0 10 0;
#X connect 9 1 11 0;
#X connect 9 2 12 0;
#X connect 9 3 13 0;
#X connect 9 4 14 0;
#X connect 9 5 15 0;
#X connect 9 6 16 0;
#X connect 9 7 17 0;
#X connect 10 0 0 0;
#X connect 11 0 1 0;
#X connect 12 0 2 0;
#X connect 13 0 3 0;
#X connect 14 0 4 0;
#X connect 15 0 5 0;
#X connect 16 0 6 0;
#X connect 17 0 7 0;
#X restore 771 547 pd col8a;
#N canvas 67 112 385 681 col1b 0;
#X obj 60 125 sel 11 21 31 41 51 61 71 81;
#X obj 60 172 zl iter 2;
#X msg 60 152 81 0 71 0 61 0 51 0 41 0 31 0 21 0;
#X obj 83 212 zl iter 2;
#X msg 83 192 81 0 71 0 61 0 51 0 41 0 31 0 11 0;
#X obj 102 263 zl iter 2;
#X msg 102 243 81 0 71 0 61 0 51 0 41 0 21 0 11 0;
#X obj 130 313 zl iter 2;
#X msg 130 293 81 0 71 0 61 0 51 0 31 0 21 0 11 0;
#X obj 157 358 zl iter 2;
#X msg 157 338 81 0 71 0 61 0 41 0 31 0 21 0 11 0;
#X obj 183 402 zl iter 2;
#X msg 183 382 81 0 71 0 51 0 41 0 31 0 21 0 11 0;
#X obj 213 445 zl iter 2;
#X msg 213 425 81 0 61 0 51 0 41 0 31 0 21 0 11 0;
#X obj 231 492 zl iter 2;
#X msg 231 473 71 0 61 0 51 0 41 0 31 0 21 0 11 0;
#X obj 64 87 inlet;
#X obj 70 598 outlet;
#X connect 0 0 2 0;
#X connect 0 1 4 0;
#X connect 0 2 6 0;
#X connect 0 3 8 0;
#X connect 0 4 10 0;
#X connect 0 5 12 0;
#X connect 0 6 14 0;
#X connect 0 7 16 0;
#X connect 1 0 18 0;
#X connect 2 0 1 0;
#X connect 3 0 18 0;
#X connect 4 0 3 0;
#X connect 5 0 18 0;
#X connect 6 0 5 0;
#X connect 7 0 18 0;
#X connect 8 0 7 0;
#X connect 9 0 18 0;
#X connect 10 0 9 0;
#X connect 11 0 18 0;
#X connect 12 0 11 0;
#X connect 13 0 18 0;
#X connect 14 0 13 0;
#X connect 15 0 18 0;
#X connect 16 0 15 0;
#X connect 17 0 0 0;
#X restore 872 481 pd col1b;
#N canvas 67 106 457 681 col2b 0;
#X obj 60 172 zl iter 2;
#X obj 83 212 zl iter 2;
#X obj 102 263 zl iter 2;
#X obj 130 313 zl iter 2;
#X obj 157 358 zl iter 2;
#X obj 183 402 zl iter 2;
#X obj 213 445 zl iter 2;
#X obj 231 492 zl iter 2;
#X obj 64 87 inlet;
#X obj 60 125 sel 12 22 32 42 52 62 72 82;
#X msg 60 152 82 0 72 0 62 0 52 0 42 0 32 0 22 0;
#X msg 82 192 82 0 72 0 62 0 52 0 42 0 32 0 12 0;
#X msg 100 243 82 0 72 0 62 0 52 0 42 0 22 0 12 0;
#X msg 130 290 82 0 72 0 62 0 52 0 32 0 22 0 12 0;
#X msg 155 338 82 0 72 0 62 0 42 0 32 0 22 0 12 0;
#X msg 180 382 82 0 72 0 52 0 42 0 32 0 22 0 12 0;
#X msg 212 425 82 0 62 0 52 0 42 0 32 0 22 0 12 0;
#X msg 229 472 72 0 62 0 52 0 42 0 32 0 22 0 12 0;
#X obj 69 598 outlet;
#X connect 0 0 18 0;
#X connect 1 0 18 0;
#X connect 2 0 18 0;
#X connect 3 0 18 0;
#X connect 4 0 18 0;
#X connect 5 0 18 0;
#X connect 6 0 18 0;
#X connect 7 0 18 0;
#X connect 8 0 9 0;
#X connect 9 0 10 0;
#X connect 9 1 11 0;
#X connect 9 2 12 0;
#X connect 9 3 13 0;
#X connect 9 4 14 0;
#X connect 9 5 15 0;
#X connect 9 6 16 0;
#X connect 9 7 17 0;
#X connect 10 0 0 0;
#X connect 11 0 1 0;
#X connect 12 0 2 0;
#X connect 13 0 3 0;
#X connect 14 0 4 0;
#X connect 15 0 5 0;
#X connect 16 0 6 0;
#X connect 17 0 7 0;
#X restore 891 506 pd col2b;
#N canvas 67 112 482 681 col3b 0;
#X obj 60 172 zl iter 2;
#X obj 83 212 zl iter 2;
#X obj 102 263 zl iter 2;
#X obj 130 313 zl iter 2;
#X obj 157 358 zl iter 2;
#X obj 183 402 zl iter 2;
#X obj 213 445 zl iter 2;
#X obj 231 492 zl iter 2;
#X obj 64 87 inlet;
#X obj 60 125 sel 13 23 33 43 53 63 73 83;
#X msg 60 152 83 0 73 0 63 0 53 0 43 0 33 0 23 0;
#X msg 82 192 83 0 73 0 63 0 53 0 43 0 33 0 13 0;
#X msg 100 243 83 0 73 0 63 0 53 0 43 0 23 0 13 0;
#X msg 130 290 83 0 73 0 63 0 53 0 33 0 23 0 13 0;
#X msg 155 338 83 0 73 0 63 0 43 0 33 0 23 0 13 0;
#X msg 180 382 83 0 73 0 53 0 43 0 33 0 23 0 13 0;
#X msg 212 425 83 0 63 0 53 0 43 0 33 0 23 0 13 0;
#X msg 229 472 73 0 63 0 53 0 43 0 33 0 23 0 13 0;
#X obj 69 598 outlet;
#X connect 0 0 18 0;
#X connect 1 0 18 0;
#X connect 2 0 18 0;
#X connect 3 0 18 0;
#X connect 4 0 18 0;
#X connect 5 0 18 0;
#X connect 6 0 18 0;
#X connect 7 0 18 0;
#X connect 8 0 9 0;
#X connect 9 0 10 0;
#X connect 9 1 11 0;
#X connect 9 2 12 0;
#X connect 9 3 13 0;
#X connect 9 4 14 0;
#X connect 9 5 15 0;
#X connect 9 6 16 0;
#X connect 9 7 17 0;
#X connect 10 0 0 0;
#X connect 11 0 1 0;
#X connect 12 0 2 0;
#X connect 13 0 3 0;
#X connect 14 0 4 0;
#X connect 15 0 5 0;
#X connect 16 0 6 0;
#X connect 17 0 7 0;
#X restore 911 528 pd col3b;
#N canvas 474 106 454 704 col4b 0;
#X obj 60 172 zl iter 2;
#X obj 83 212 zl iter 2;
#X obj 102 263 zl iter 2;
#X obj 130 313 zl iter 2;
#X obj 157 358 zl iter 2;
#X obj 183 402 zl iter 2;
#X obj 213 445 zl iter 2;
#X obj 231 492 zl iter 2;
#X obj 64 87 inlet;
#X obj 60 125 sel 14 24 34 44 54 64 74 84;
#X msg 60 152 84 0 74 0 64 0 54 0 44 0 34 0 24 0;
#X msg 82 192 84 0 74 0 64 0 54 0 44 0 34 0 14 0;
#X msg 99 243 84 0 74 0 64 0 54 0 44 0 24 0 14 0;
#X msg 130 290 84 0 74 0 64 0 54 0 34 0 24 0 14 0;
#X msg 154 338 84 0 74 0 64 0 44 0 34 0 24 0 14 0;
#X msg 180 382 84 0 74 0 54 0 44 0 34 0 24 0 14 0;
#X msg 213 425 84 0 64 0 54 0 44 0 34 0 24 0 14 0;
#X msg 229 472 74 0 64 0 54 0 44 0 34 0 24 0 14 0;
#X obj 67 597 outlet;
#X connect 0 0 18 0;
#X connect 1 0 18 0;
#X connect 2 0 18 0;
#X connect 3 0 18 0;
#X connect 4 0 18 0;
#X connect 5 0 18 0;
#X connect 6 0 18 0;
#X connect 7 0 18 0;
#X connect 8 0 9 0;
#X connect 9 0 10 0;
#X connect 9 1 11 0;
#X connect 9 2 12 0;
#X connect 9 3 13 0;
#X connect 9 4 14 0;
#X connect 9 5 15 0;
#X connect 9 6 16 0;
#X connect 9 7 17 0;
#X connect 10 0 0 0;
#X connect 11 0 1 0;
#X connect 12 0 2 0;
#X connect 13 0 3 0;
#X connect 14 0 4 0;
#X connect 15 0 5 0;
#X connect 16 0 6 0;
#X connect 17 0 7 0;
#X restore 931 549 pd col4b;
#N canvas 67 148 451 681 col8b 0;
#X obj 60 172 zl iter 2;
#X obj 83 212 zl iter 2;
#X obj 102 263 zl iter 2;
#X obj 130 313 zl iter 2;
#X obj 157 358 zl iter 2;
#X obj 183 402 zl iter 2;
#X obj 213 445 zl iter 2;
#X obj 231 492 zl iter 2;
#X obj 64 87 inlet;
#X obj 60 125 sel 18 28 38 48 58 68 78 88;
#X msg 61 152 88 0 78 0 68 0 58 0 48 0 38 0 28 0;
#X msg 82 192 88 0 78 0 68 0 58 0 48 0 38 0 18 0;
#X msg 98 243 88 0 78 0 68 0 58 0 48 0 28 0 18 0;
#X msg 130 290 88 0 78 0 68 0 58 0 38 0 28 0 18 0;
#X msg 153 338 88 0 78 0 68 0 48 0 38 0 28 0 18 0;
#X msg 180 382 88 0 78 0 58 0 48 0 38 0 28 0 18 0;
#X msg 213 425 88 0 68 0 58 0 48 0 38 0 28 0 18 0;
#X msg 229 472 78 0 68 0 58 0 48 0 38 0 28 0 18 0;
#X obj 69 598 outlet;
#X connect 0 0 18 0;
#X connect 1 0 18 0;
#X connect 2 0 18 0;
#X connect 3 0 18 0;
#X connect 4 0 18 0;
#X connect 5 0 18 0;
#X connect 6 0 18 0;
#X connect 7 0 18 0;
#X connect 8 0 9 0;
#X connect 9 0 10 0;
#X connect 9 1 11 0;
#X connect 9 2 12 0;
#X connect 9 3 13 0;
#X connect 9 4 14 0;
#X connect 9 5 15 0;
#X connect 9 6 16 0;
#X connect 9 7 17 0;
#X connect 10 0 0 0;
#X connect 11 0 1 0;
#X connect 12 0 2 0;
#X connect 13 0 3 0;
#X connect 14 0 4 0;
#X connect 15 0 5 0;
#X connect 16 0 6 0;
#X connect 17 0 7 0;
#X restore 1039 548 pd col8b;
#N canvas 67 136 452 681 col7b 0;
#X obj 60 172 zl iter 2;
#X obj 83 212 zl iter 2;
#X obj 102 263 zl iter 2;
#X obj 130 313 zl iter 2;
#X obj 157 358 zl iter 2;
#X obj 183 402 zl iter 2;
#X obj 213 445 zl iter 2;
#X obj 231 492 zl iter 2;
#X obj 64 87 inlet;
#X obj 60 125 sel 17 27 37 47 57 67 77 87;
#X msg 61 152 87 0 77 0 67 0 57 0 47 0 37 0 27 0;
#X msg 82 192 87 0 77 0 67 0 57 0 47 0 37 0 17 0;
#X msg 99 243 87 0 77 0 67 0 57 0 47 0 27 0 17 0;
#X msg 130 290 87 0 77 0 67 0 57 0 37 0 27 0 17 0;
#X msg 153 338 87 0 77 0 67 0 47 0 37 0 27 0 17 0;
#X msg 180 382 87 0 77 0 57 0 47 0 37 0 27 0 17 0;
#X msg 213 425 87 0 67 0 57 0 47 0 37 0 27 0 17 0;
#X msg 229 472 77 0 67 0 57 0 47 0 37 0 27 0 17 0;
#X obj 66 595 outlet;
#X connect 0 0 18 0;
#X connect 1 0 18 0;
#X connect 2 0 18 0;
#X connect 3 0 18 0;
#X connect 4 0 18 0;
#X connect 5 0 18 0;
#X connect 6 0 18 0;
#X connect 7 0 18 0;
#X connect 8 0 9 0;
#X connect 9 0 10 0;
#X connect 9 1 11 0;
#X connect 9 2 12 0;
#X connect 9 3 13 0;
#X connect 9 4 14 0;
#X connect 9 5 15 0;
#X connect 9 6 16 0;
#X connect 9 7 17 0;
#X connect 10 0 0 0;
#X connect 11 0 1 0;
#X connect 12 0 2 0;
#X connect 13 0 3 0;
#X connect 14 0 4 0;
#X connect 15 0 5 0;
#X connect 16 0 6 0;
#X connect 17 0 7 0;
#X restore 1021 528 pd col7b;
#N canvas 67 136 455 681 col6b 0;
#X obj 60 172 zl iter 2;
#X obj 83 212 zl iter 2;
#X obj 102 263 zl iter 2;
#X obj 130 313 zl iter 2;
#X obj 157 358 zl iter 2;
#X obj 183 402 zl iter 2;
#X obj 213 445 zl iter 2;
#X obj 231 492 zl iter 2;
#X obj 64 87 inlet;
#X obj 60 125 sel 16 26 36 46 56 66 76 86;
#X msg 61 152 86 0 76 0 66 0 56 0 46 0 36 0 26 0;
#X msg 82 192 86 0 76 0 66 0 56 0 46 0 36 0 16 0;
#X msg 99 243 86 0 76 0 66 0 56 0 46 0 26 0 16 0;
#X msg 130 290 86 0 76 0 66 0 56 0 36 0 26 0 16 0;
#X msg 153 338 86 0 76 0 66 0 46 0 36 0 26 0 16 0;
#X msg 180 382 86 0 76 0 56 0 46 0 36 0 26 0 16 0;
#X msg 213 425 86 0 66 0 56 0 46 0 36 0 26 0 16 0;
#X msg 229 472 76 0 66 0 56 0 46 0 36 0 26 0 16 0;
#X obj 70 598 outlet;
#X connect 0 0 18 0;
#X connect 1 0 18 0;
#X connect 2 0 18 0;
#X connect 3 0 18 0;
#X connect 4 0 18 0;
#X connect 5 0 18 0;
#X connect 6 0 18 0;
#X connect 7 0 18 0;
#X connect 8 0 9 0;
#X connect 9 0 10 0;
#X connect 9 1 11 0;
#X connect 9 2 12 0;
#X connect 9 3 13 0;
#X connect 9 4 14 0;
#X connect 9 5 15 0;
#X connect 9 6 16 0;
#X connect 9 7 17 0;
#X connect 10 0 0 0;
#X connect 11 0 1 0;
#X connect 12 0 2 0;
#X connect 13 0 3 0;
#X connect 14 0 4 0;
#X connect 15 0 5 0;
#X connect 16 0 6 0;
#X connect 17 0 7 0;
#X restore 991 506 pd col6b;
#N canvas 67 136 516 681 col5b 0;
#X obj 60 172 zl iter 2;
#X obj 83 212 zl iter 2;
#X obj 102 263 zl iter 2;
#X obj 130 313 zl iter 2;
#X obj 157 358 zl iter 2;
#X obj 183 402 zl iter 2;
#X obj 213 445 zl iter 2;
#X obj 231 492 zl iter 2;
#X obj 64 87 inlet;
#X obj 60 125 sel 15 25 35 45 55 65 75 85;
#X msg 61 152 85 0 75 0 65 0 55 0 45 0 35 0 25 0;
#X msg 82 192 85 0 75 0 65 0 55 0 45 0 35 0 15 0;
#X msg 99 243 85 0 75 0 65 0 55 0 45 0 25 0 15 0;
#X msg 130 290 85 0 75 0 65 0 55 0 35 0 25 0 15 0;
#X msg 153 338 85 0 75 0 65 0 45 0 35 0 25 0 15 0;
#X msg 180 382 85 0 75 0 55 0 45 0 35 0 25 0 15 0;
#X msg 213 425 85 0 65 0 55 0 45 0 35 0 25 0 15 0;
#X msg 229 472 75 0 65 0 55 0 45 0 35 0 25 0 15 0;
#X obj 69 598 outlet;
#X connect 0 0 18 0;
#X connect 1 0 18 0;
#X connect 2 0 18 0;
#X connect 3 0 18 0;
#X connect 4 0 18 0;
#X connect 5 0 18 0;
#X connect 6 0 18 0;
#X connect 7 0 18 0;
#X connect 8 0 9 0;
#X connect 9 0 10 0;
#X connect 9 1 11 0;
#X connect 9 2 12 0;
#X connect 9 3 13 0;
#X connect 9 4 14 0;
#X connect 9 5 15 0;
#X connect 9 6 16 0;
#X connect 9 7 17 0;
#X connect 10 0 0 0;
#X connect 11 0 1 0;
#X connect 12 0 2 0;
#X connect 13 0 3 0;
#X connect 14 0 4 0;
#X connect 15 0 5 0;
#X connect 16 0 6 0;
#X connect 17 0 7 0;
#X restore 971 481 pd col5b;
#X obj 1039 231 tabread \$1_cc\$2;
#X obj 784 232 tabread \$1_cc\$2;
#X text 1153 231 selected;
#X text 900 233 selected;
#X obj 742 385 CC_MUTE_COLOUR;
#X msg 1039 201 set \$1;
#X msg 784 205 set \$1;
#X symbolatom 1112 205 20 0 0 0 - - -;
#X obj 997 382 CC_MUTE_COLOUR;
#X obj 689 429 s s\$1_m2a_tognote_2;
#X obj 944 430 s s\$1_m2b_tognote_2;
#X obj 984 360 r s\$1.\$2_2;
#X obj 728 363 r s\$1.\$2_2;
#X obj 836 287 r \$1.\$2_IS_SELCC_MUTED_2;
#X obj 1092 286 r \$1.\$2_IS_SELCC_MUTED_2;
#X obj 1039 179 r s\$1.\$2_selCC_symbol_2;
#X obj 784 183 r s\$1.\$2_selCC_symbol_2;
#X obj 971 589 s s\$1_m2b_tognote_2;
#X obj 705 582 s s\$1_m2a_tognote_2;
#X obj 453 176 r s\$1.\$2_selCC_symbol_1;
#X obj 198 177 r s\$1.\$2_selCC_symbol_1;
#X symbolatom 246 202 10 0 0 0 - - -;
#X obj 232 443 print;
#X obj 506 283 r \$1.\$2_IS_SELCC_MUTED_1;
#X obj 251 283 r \$1.\$2_IS_SELCC_MUTED_1;
#X connect 0 0 24 0;
#X connect 1 0 21 2;
#X connect 1 0 24 0;
#X connect 2 0 44 0;
#X connect 3 0 2 0;
#X connect 3 0 16 1;
#X connect 4 0 3 0;
#X connect 5 0 24 0;
#X connect 6 0 23 0;
#X connect 6 1 22 0;
#X connect 7 0 4 1;
#X connect 8 0 7 0;
#X connect 9 0 43 0;
#X connect 10 0 13 1;
#X connect 10 0 9 0;
#X connect 11 0 20 1;
#X connect 12 0 11 0;
#X connect 13 0 19 0;
#X connect 14 0 13 0;
#X connect 15 0 16 0;
#X connect 16 0 17 0;
#X connect 17 0 35 0;
#X connect 17 1 36 0;
#X connect 17 2 37 0;
#X connect 17 3 38 0;
#X connect 17 4 42 0;
#X connect 17 5 41 0;
#X connect 17 6 40 0;
#X connect 17 7 39 0;
#X connect 19 0 27 0;
#X connect 19 1 28 0;
#X connect 19 2 29 0;
#X connect 19 3 30 0;
#X connect 19 4 31 0;
#X connect 19 5 32 0;
#X connect 19 6 33 0;
#X connect 19 7 34 0;
#X connect 20 0 10 0;
#X connect 21 0 6 0;
#X connect 21 0 14 0;
#X connect 21 0 15 0;
#X connect 22 0 26 0;
#X connect 22 1 45 0;
#X connect 23 0 25 0;
#X connect 23 1 46 0;
#X connect 24 0 21 0;
#X connect 25 0 20 0;
#X connect 26 0 4 0;
#X connect 45 0 8 0;
#X connect 45 0 55 0;
#X connect 46 0 12 0;
#X connect 46 0 51 0;
#X connect 47 0 10 1;
#X connect 47 0 14 1;
#X connect 48 0 3 1;
#X connect 48 0 15 1;
#X connect 51 0 9 1;
#X connect 52 0 45 0;
#X connect 53 0 46 0;
#X connect 55 0 2 1;
#X connect 56 0 80 0;
#X connect 57 0 77 2;
#X connect 57 0 80 0;
#X connect 58 0 109 0;
#X connect 59 0 58 0;
#X connect 59 0 72 1;
#X connect 60 0 59 0;
#X connect 61 0 80 0;
#X connect 62 0 79 0;
#X connect 62 1 78 0;
#X connect 63 0 60 1;
#X connect 64 0 63 0;
#X connect 65 0 108 0;
#X connect 66 0 69 1;
#X connect 66 0 65 0;
#X connect 67 0 76 1;
#X connect 68 0 67 0;
#X connect 69 0 75 0;
#X connect 70 0 69 0;
#X connect 71 0 72 0;
#X connect 72 0 73 0;
#X connect 73 0 91 0;
#X connect 73 1 92 0;
#X connect 73 2 93 0;
#X connect 73 3 94 0;
#X connect 73 4 98 0;
#X connect 73 5 97 0;
#X connect 73 6 96 0;
#X connect 73 7 95 0;
#X connect 75 0 83 0;
#X connect 75 1 84 0;
#X connect 75 2 85 0;
#X connect 75 3 86 0;
#X connect 75 4 87 0;
#X connect 75 5 88 0;
#X connect 75 6 89 0;
#X connect 75 7 90 0;
#X connect 76 0 66 0;
#X connect 77 0 62 0;
#X connect 77 0 70 0;
#X connect 77 0 71 0;
#X connect 78 0 82 0;
#X connect 78 1 99 0;
#X connect 79 0 81 0;
#X connect 79 1 100 0;
#X connect 80 0 77 0;
#X connect 81 0 76 0;
#X connect 82 0 60 0;
#X connect 83 0 117 0;
#X connect 84 0 117 0;
#X connect 85 0 117 0;
#X connect 86 0 117 0;
#X connect 87 0 117 0;
#X connect 88 0 117 0;
#X connect 89 0 117 0;
#X connect 90 0 117 0;
#X connect 91 0 116 0;
#X connect 92 0 116 0;
#X connect 93 0 116 0;
#X connect 94 0 116 0;
#X connect 95 0 116 0;
#X connect 96 0 116 0;
#X connect 97 0 116 0;
#X connect 98 0 116 0;
#X connect 99 0 64 0;
#X connect 99 0 107 0;
#X connect 100 0 68 0;
#X connect 100 0 103 0;
#X connect 103 0 65 1;
#X connect 104 0 99 0;
#X connect 105 0 100 0;
#X connect 107 0 58 1;
#X connect 110 0 59 1;
#X connect 110 0 71 1;
#X connect 111 0 66 1;
#X connect 111 0 70 1;
#X connect 112 0 103 1;
#X connect 113 0 107 1;
#X connect 114 0 104 0;
#X connect 114 0 106 0;
#X connect 115 0 105 0;
#X connect 118 0 52 0;
#X connect 118 0 54 0;
#X connect 119 0 53 0;
#X connect 119 0 120 0;
#X connect 122 0 55 1;
#X connect 123 0 51 1;
#X restore 49 284 pd front_end;
#X text 341 323 CC_SELECTOR CHAN VIEW CC8 CC7 CC6 CC5 CC4 CC3 CC2 CC1
No.CCs;
#X text 128 278 Polls relevant array and displays the CC sequence in
purple (red if muted);
#X obj 743 160 / 10;
#X obj 743 182 i;
#X obj 803 160 % 10;
#X obj 743 203 - 1;
#X obj 743 137 t f f, f 9;
#X obj 803 181 + 7;
#X obj 513 162 / 10;
#X obj 513 184 i;
#X obj 559 161 % 10;
#X obj 513 205 - 1;
#X obj 513 113 spigot;
#X obj 743 114 spigot;
#X obj 559 182 - 1;
#X obj 513 139 t f f, f 7;
#X obj 513 59 route 19 29 39 49 59 69 79 89;
#X obj 743 57 route 19 29 39 49 59 69 79 89;
#X obj 743 228 tabwrite \$1_cc\$2;
#X obj 513 226 tabwrite \$1_cc\$2;
#X msg 584 131 set \$1;
#X obj 513 36 notein 113;
#X obj 743 34 notein 129;
#X obj 743 80 r s\$1.\$2_2;
#X obj 513 79 r s\$1.\$2_2;
#X obj 584 109 r s\$1.\$2_selCC_symbol_2;
#X obj 121 113 r s\$1.\$2_selCC_symbol_1;
#X symbolatom 190 138 10 0 0 0 - - -;
#X symbolatom 650 134 10 0 0 0 - - -;
#X obj 49 257 write_view_colour \$1 \$2 53;
#N canvas 67 82 450 300 write_view_light_colour 1;
#X obj 63 93 \$1;
#X obj 63 114 - 1;
#X obj 63 155 +, f 6;
#X obj 96 134 \$2;
#X obj 63 25 loadbang;
#X obj 63 217 tabwrite view_colours;
#X obj 63 72 t b b, f 6;
#X obj 63 135 * 10;
#X obj 63 51 delay 1;
#X obj 63 176 t b f;
#X msg 63 197 53;
#X connect 0 0 1 0;
#X connect 1 0 7 0;
#X connect 2 0 9 0;
#X connect 3 0 2 1;
#X connect 4 0 8 0;
#X connect 6 0 0 0;
#X connect 6 1 3 0;
#X connect 7 0 2 0;
#X connect 8 0 6 0;
#X connect 9 0 10 0;
#X connect 9 1 5 1;
#X connect 10 0 5 0;
#X restore 796 350 pd write_view_light_colour;
#X connect 0 0 1 0;
#X connect 1 0 3 0;
#X connect 2 0 5 0;
#X connect 3 0 18 0;
#X connect 4 0 0 0;
#X connect 4 1 2 0;
#X connect 5 0 18 1;
#X connect 6 0 7 0;
#X connect 7 0 9 0;
#X connect 8 0 14 0;
#X connect 9 0 19 0;
#X connect 10 0 15 0;
#X connect 11 0 4 0;
#X connect 12 0 16 0;
#X connect 13 0 17 0;
#X connect 14 0 19 1;
#X connect 15 0 6 0;
#X connect 15 1 8 0;
#X connect 16 8 10 0;
#X connect 17 8 11 0;
#X connect 20 0 10 1;
#X connect 21 0 11 1;
#X connect 24 0 18 0;
#X connect 24 0 19 0;
#X connect 30 0 31 0;
#X connect 31 0 33 0;
#X connect 32 0 35 0;
#X connect 33 0 46 0;
#X connect 34 0 30 0;
#X connect 34 1 32 0;
#X connect 35 0 46 1;
#X connect 36 0 37 0;
#X connect 37 0 39 0;
#X connect 38 0 42 0;
#X connect 39 0 47 0;
#X connect 40 0 43 0;
#X connect 41 0 34 0;
#X connect 42 0 47 1;
#X connect 43 0 36 0;
#X connect 43 1 38 0;
#X connect 44 8 40 0;
#X connect 45 8 41 0;
#X connect 48 0 46 0;
#X connect 48 0 47 0;
#X connect 49 0 44 0;
#X connect 50 0 45 0;
#X connect 51 0 41 1;
#X connect 52 0 40 1;
#X connect 53 0 48 0;
#X connect 53 0 56 0;
#X connect 54 0 24 0;
#X connect 54 0 55 0;
