#N canvas 89 408 1279 684 12;
#X obj 303 17 inlet;
#X obj 258 479 spigot, f 7;
#X text 346 15 pulse status (1 if that step has a pulse \, else 0)
;
#X text 9 480 only un/mutable if a pulse is there;
#X text 2 445 select the correct note for the step;
#X obj 258 415 pack f f;
#X obj 258 385 t f f, f 8;
#X obj 258 358 spigot;
#X obj 605 356 spigot;
#X obj 297 333 r s\$1.\$2;
#X obj 644 332 r s\$1.\$2;
#X obj 258 165 notein \$3;
#X obj 605 168 notein \$4;
#X text 30 166 midi note in on channel \$3 (LHS);
#X obj 605 414 pack f f;
#X obj 605 384 t f f, f 8;
#X obj 605 478 spigot, f 7;
#X text 833 481 only un/mutable if a pulse is there;
#X obj 258 534 t f f;
#X obj 258 589 ../../TOG_INV;
#X obj 258 614 pack f f;
#X obj 605 533 t f f;
#X obj 605 588 ../../TOG_INV;
#X obj 605 613 pack f f;
#X obj 303 42 t f f f f, f 48;
#X obj 428 479 spigot, f 7;
#X obj 428 415 pack f f;
#X obj 428 385 t f f, f 8;
#X obj 428 358 spigot;
#X obj 775 356 spigot;
#X obj 775 414 pack f f;
#X obj 775 384 t f f, f 8;
#X obj 775 478 spigot, f 7;
#X obj 428 533 t f f;
#X obj 428 588 ../../TOG_INV;
#X obj 428 613 pack f f;
#X obj 775 533 t f f;
#X obj 775 588 ../../TOG_INV;
#X obj 775 613 pack f f;
#X obj 814 332 r s\$1.\$2_2;
#X obj 467 333 r s\$1.\$2_2;
#X obj 428 165 notein \$5;
#X obj 775 164 notein \$6;
#X obj 428 445 route \$7;
#X obj 775 444 route \$7;
#X obj 258 445 route \$7;
#X obj 605 444 route \$7;
#X obj 258 308 spigot;
#X obj 428 308 spigot;
#X obj 605 307 spigot;
#X obj 775 307 spigot, f 7;
#X text 328 109 Pick Left or Right hand side;
#X obj 258 190 stripnote;
#X obj 605 193 stripnote;
#X obj 428 190 stripnote;
#X obj 775 189 stripnote;
#X text 862 505 distributes the mute to the correctly rotated pulse_mute
index;
#N canvas 0 61 450 300 lhs_rhs 0;
#X obj 115 98 ../../LOAD 10 5;
#X obj 115 148 sel LHS RHS;
#X msg 115 173 0, f 1;
#X msg 135 173 1, f 1;
#X obj 135 205 tgl 15 0 empty empty empty 17 7 0 10 -262144 -1 -1 1
1;
#X msg 152 173 0, f 1;
#X msg 172 173 1, f 1;
#X obj 172 205 tgl 15 0 empty empty empty 17 7 0 10 -262144 -1 -1 0
1;
#X obj 115 123 symbol \$8;
#X text 185 123 LHS or RHS;
#X obj 135 225 outlet;
#X obj 172 249 outlet;
#X connect 0 0 8 0;
#X connect 1 0 2 0;
#X connect 1 0 3 0;
#X connect 1 1 5 0;
#X connect 1 1 6 0;
#X connect 2 0 7 0;
#X connect 3 0 4 0;
#X connect 4 0 10 0;
#X connect 5 0 4 0;
#X connect 6 0 7 0;
#X connect 7 0 11 0;
#X connect 8 0 1 0;
#X restore 341 79 pd lhs_rhs;
#X f 38;
#X text 839 446 select the correct note for the step;
#X text 424 143 Player 2 LHS;
#X text 850 164 midi note in on channel \$6 (RHS);
#X text 256 143 Player 1 LHS;
#X text 602 143 Player 1 RHS;
#X text 760 143 Player 2 RHS;
#X obj 258 268 spigot;
#X obj 428 269 spigot;
#X obj 605 267 spigot;
#X obj 775 267 spigot, f 7;
#X obj 467 218 r LC2_status;
#X obj 297 218 r LC1_status;
#X obj 817 217 r LC2_status;
#X obj 647 218 r LC1_status;
#X obj 297 243 == 0;
#X obj 467 243 == 0;
#X obj 647 243 == 0;
#X obj 817 242 == 0;
#X obj 258 564 tabread pulse_mutes_\$1;
#X obj 428 563 tabread pulse_mutes_\$1;
#X obj 605 563 tabread pulse_mutes_\$1;
#X obj 775 563 tabread pulse_mutes_\$1;
#X obj 775 638 tabwrite pulse_mutes_\$1;
#X obj 605 638 tabwrite pulse_mutes_\$1;
#X obj 428 638 tabwrite pulse_mutes_\$1;
#X obj 258 639 tabwrite pulse_mutes_\$1;
#X obj 775 503 rotate 8 \$1;
#X obj 605 503 rotate 8 \$1;
#X obj 428 504 rotate 0 \$1;
#X obj 258 504 rotate 0 \$1;
#X connect 0 0 24 0;
#X connect 1 0 87 0;
#X connect 5 0 45 0;
#X connect 6 0 5 0;
#X connect 6 1 5 1;
#X connect 7 0 6 0;
#X connect 8 0 15 0;
#X connect 9 0 7 1;
#X connect 10 0 8 1;
#X connect 11 0 52 0;
#X connect 11 1 52 1;
#X connect 12 0 53 0;
#X connect 12 1 53 1;
#X connect 14 0 46 0;
#X connect 15 0 14 0;
#X connect 15 1 14 1;
#X connect 16 0 85 0;
#X connect 18 0 76 0;
#X connect 18 1 20 1;
#X connect 19 0 20 0;
#X connect 20 0 83 0;
#X connect 21 0 78 0;
#X connect 21 1 23 1;
#X connect 22 0 23 0;
#X connect 23 0 81 0;
#X connect 24 0 1 1;
#X connect 24 1 16 1;
#X connect 24 2 25 1;
#X connect 24 3 32 1;
#X connect 25 0 86 0;
#X connect 26 0 43 0;
#X connect 27 0 26 0;
#X connect 27 1 26 1;
#X connect 28 0 27 0;
#X connect 29 0 31 0;
#X connect 30 0 44 0;
#X connect 31 0 30 0;
#X connect 31 1 30 1;
#X connect 32 0 84 0;
#X connect 33 0 77 0;
#X connect 33 1 35 1;
#X connect 34 0 35 0;
#X connect 35 0 82 0;
#X connect 36 0 79 0;
#X connect 36 1 38 1;
#X connect 37 0 38 0;
#X connect 38 0 80 0;
#X connect 39 0 29 1;
#X connect 40 0 28 1;
#X connect 41 0 54 0;
#X connect 41 1 54 1;
#X connect 42 0 55 0;
#X connect 42 1 55 1;
#X connect 43 0 25 0;
#X connect 44 0 32 0;
#X connect 45 0 1 0;
#X connect 46 0 16 0;
#X connect 47 0 7 0;
#X connect 48 0 28 0;
#X connect 49 0 8 0;
#X connect 50 0 29 0;
#X connect 52 0 64 0;
#X connect 53 0 66 0;
#X connect 54 0 65 0;
#X connect 55 0 67 0;
#X connect 57 0 47 1;
#X connect 57 0 48 1;
#X connect 57 1 49 1;
#X connect 57 1 50 1;
#X connect 64 0 47 0;
#X connect 65 0 48 0;
#X connect 66 0 49 0;
#X connect 67 0 50 0;
#X connect 68 0 73 0;
#X connect 69 0 72 0;
#X connect 70 0 75 0;
#X connect 71 0 74 0;
#X connect 72 0 64 1;
#X connect 73 0 65 1;
#X connect 74 0 66 1;
#X connect 75 0 67 1;
#X connect 76 0 19 0;
#X connect 77 0 34 0;
#X connect 78 0 22 0;
#X connect 79 0 37 0;
#X connect 84 0 36 0;
#X connect 85 0 21 0;
#X connect 86 0 33 0;
#X connect 87 0 18 0;
