#N canvas 0 22 800 600 12;
#X obj 50 50 tgl 25 0 tgl_send tgl_recv empty 17 7 0 10 -262144 -1 -1 0 1;
#X obj 50 100 bng 15 250 50 0 bng_send bng_recv empty 17 7 0 10 -262144 -1 -1;
#X floatatom 50 150 5 0 100 0 - float_recv -;
#X symbolatom 50 200 10 0 0 0 - sym_recv -;
#X obj 50 250 nbx 5 14 -1e+37 1e+37 0 0 nbx_send nbx_recv empty 0 -8 0 10 -262144 -1 -1 0 256;
#X obj 50 300 vsl 15 128 0 127 0 0 vsl_send vsl_recv empty 0 -9 0 10 -262144 -1 -1 0 1;
#X obj 200 300 hsl 128 15 0 127 0 0 hsl_send hsl_recv empty -2 -8 0 10 -262144 -1 -1 0 1;
#X obj 200 50 vradio 15 1 0 8 vrad_send vrad_recv empty 0 -8 0 10 -262144 -1 -1 0;
#X obj 200 200 hradio 15 1 0 8 hrad_send hrad_recv empty 0 -8 0 10 -262144 -1 -1 0;
#X obj 400 50 vu 15 120 vu_recv empty 1 8 0 10 -66577 -1 1 0;
#X obj 400 200 cnv 15 100 60 cnv_send cnv_recv cnv_label 20 12 0 14 -233017 -66577 0;
#X obj 500 50 print gui_out;
#X connect 0 0 11 0;
#X connect 1 0 11 0;
#X connect 2 0 11 0;
#X connect 3 0 11 0;
#X connect 4 0 11 0;
#X connect 5 0 11 0;
#X connect 6 0 11 0;
#X connect 7 0 11 0;
#X connect 8 0 11 0;
