#N canvas 0 22 450 300 12;
#X obj 50 50 loadbang;
#X obj 50 100 t b b b;
#X obj 50 150 print first;
#X obj 150 150 print second;
#X obj 250 150 print third;
#X connect 0 0 1 0;
#X connect 1 0 2 0;
#X connect 1 1 3 0;
#X connect 1 2 4 0;
