#N canvas 0 22 450 300 12;
#X obj 50 50 inlet;
#N canvas 0 0 450 300 level1 0;
#X obj 50 50 inlet;
#N canvas 0 0 450 300 level2 0;
#X obj 50 50 inlet;
#N canvas 0 0 450 300 level3 0;
#X obj 50 50 inlet;
#X obj 50 100 + 1;
#X obj 50 150 outlet;
#X connect 0 0 1 0;
#X connect 1 0 2 0;
#X restore 50 100 pd level3;
#X obj 50 150 outlet;
#X connect 0 0 1 0;
#X connect 1 0 2 0;
#X restore 50 100 pd level2;
#X obj 50 150 outlet;
#X connect 0 0 1 0;
#X connect 1 0 2 0;
#X restore 50 100 pd level1;
#X obj 50 150 outlet;
#X connect 0 0 1 0;
#X connect 1 0 2 0;
