#N canvas 0 22 450 300 12;
#X obj 50 50 osc~ 440;
#X obj 50 80 *~ 0.5;
#X obj 50 110 phasor~ 1;
#X obj 50 140 *~ 0.3;
#X obj 50 170 dac~;
#X obj 200 50 f;
#X obj 200 80 + 1;
#X connect 0 0 1 0;
#X connect 1 0 0 0;
#X connect 2 0 3 0;
#X connect 3 0 4 0;
#X connect 5 0 6 0;
#X connect 6 0 5 0;
