#N canvas 0 22 450 300 12;
#X obj 50 50 bng 15 250 50 0 empty empty empty 17 7 0 10 -262144 -1 -1;
#X obj 50 100 print a;
#X obj 50 130 print b;
#X obj 200 50 osc~ 440;
#X obj 200 100 *~ 0.5;
#X obj 200 130 *~ 0.5;
#X connect 0 0 1 0;
#X connect 0 0 2 0;
#X connect 3 0 4 0;
#X connect 3 0 5 0;
