#N canvas 0 22 1200 800 12;
#X obj 50 50 f;
#X obj 50 75 + 1;
#X obj 50 100 mod 10;
#X obj 50 125 print;
#X obj 50 150 t b;
#X obj 50 175 sel 0 1;
#X obj 50 200 route a b;
#X obj 50 225 bang;
#X obj 50 250 moses 5;
#X obj 50 275 spigot;
#X obj 50 300 f;
#X obj 50 325 + 1;
#X obj 50 350 mod 10;
#X obj 50 375 print;
#X obj 50 400 t b;
#X obj 50 425 sel 0 1;
#X obj 50 450 route a b;
#X obj 50 475 bang;
#X obj 50 500 moses 5;
#X obj 50 525 spigot;
#X obj 50 550 f;
#X obj 50 575 + 1;
#X obj 50 600 mod 10;
#X obj 50 625 print;
#X obj 50 650 t b;
#X obj 50 675 sel 0 1;
#X obj 50 700 route a b;
#X obj 50 725 bang;
#X obj 50 750 moses 5;
#X obj 50 775 spigot;
#X obj 250 50 f;
#X obj 250 75 + 1;
#X obj 250 100 mod 10;
#X obj 250 125 print;
#X obj 250 150 t b;
#X obj 250 175 sel 0 1;
#X obj 250 200 route a b;
#X obj 250 225 bang;
#X obj 250 250 moses 5;
#X obj 250 275 spigot;
#X obj 250 300 f;
#X obj 250 325 + 1;
#X obj 250 350 mod 10;
#X obj 250 375 print;
#X obj 250 400 t b;
#X obj 250 425 sel 0 1;
#X obj 250 450 route a b;
#X obj 250 475 bang;
#X obj 250 500 moses 5;
#X obj 250 525 spigot;
#X obj 250 550 f;
#X obj 250 575 + 1;
#X obj 250 600 mod 10;
#X obj 250 625 print;
#X obj 250 650 t b;
#X obj 250 675 sel 0 1;
#X obj 250 700 route a b;
#X obj 250 725 bang;
#X obj 250 750 moses 5;
#X obj 250 775 spigot;
#X obj 450 50 f;
#X obj 450 75 + 1;
#X obj 450 100 mod 10;
#X obj 450 125 print;
#X obj 450 150 t b;
#X obj 450 175 sel 0 1;
#X obj 450 200 route a b;
#X obj 450 225 bang;
#X obj 450 250 moses 5;
#X obj 450 275 spigot;
#X obj 450 300 f;
#X obj 450 325 + 1;
#X obj 450 350 mod 10;
#X obj 450 375 print;
#X obj 450 400 t b;
#X obj 450 425 sel 0 1;
#X obj 450 450 route a b;
#X obj 450 475 bang;
#X obj 450 500 moses 5;
#X obj 450 525 spigot;
#X obj 450 550 f;
#X obj 450 575 + 1;
#X obj 450 600 mod 10;
#X obj 450 625 print;
#X obj 450 650 t b;
#X obj 450 675 sel 0 1;
#X obj 450 700 route a b;
#X obj 450 725 bang;
#X obj 450 750 moses 5;
#X obj 450 775 spigot;
#X obj 650 50 f;
#X obj 650 75 + 1;
#X obj 650 100 mod 10;
#X obj 650 125 print;
#X obj 650 150 t b;
#X obj 650 175 sel 0 1;
#X obj 650 200 route a b;
#X obj 650 225 bang;
#X obj 650 250 moses 5;
#X obj 650 275 spigot;
#X obj 650 300 f;
#X obj 650 325 + 1;
#X obj 650 350 mod 10;
#X obj 650 375 print;
#X obj 650 400 t b;
#X obj 650 425 sel 0 1;
#X obj 650 450 route a b;
#X obj 650 475 bang;
#X obj 650 500 moses 5;
#X obj 650 525 spigot;
#X obj 650 550 f;
#X obj 650 575 + 1;
#X obj 650 600 mod 10;
#X obj 650 625 print;
#X obj 650 650 t b;
#X obj 650 675 sel 0 1;
#X obj 650 700 route a b;
#X obj 650 725 bang;
#X obj 650 750 moses 5;
#X obj 650 775 spigot;
#X connect 0 0 1 0;
#X connect 1 0 2 0;
#X connect 2 0 3 0;
#X connect 3 0 4 0;
#X connect 4 0 5 0;
#X connect 5 0 6 0;
#X connect 6 0 7 0;
#X connect 7 0 8 0;
#X connect 8 0 9 0;
#X connect 9 0 10 0;
#X connect 10 0 11 0;
#X connect 11 0 12 0;
#X connect 12 0 13 0;
#X connect 13 0 14 0;
#X connect 14 0 15 0;
#X connect 15 0 16 0;
#X connect 16 0 17 0;
#X connect 17 0 18 0;
#X connect 18 0 19 0;
#X connect 19 0 20 0;
#X connect 20 0 21 0;
#X connect 21 0 22 0;
#X connect 22 0 23 0;
#X connect 23 0 24 0;
#X connect 24 0 25 0;
#X connect 25 0 26 0;
#X connect 26 0 27 0;
#X connect 27 0 28 0;
#X connect 28 0 29 0;
#X connect 29 0 30 0;
#X connect 30 0 31 0;
#X connect 31 0 32 0;
#X connect 32 0 33 0;
#X connect 33 0 34 0;
#X connect 34 0 35 0;
#X connect 35 0 36 0;
#X connect 36 0 37 0;
#X connect 37 0 38 0;
#X connect 38 0 39 0;
#X connect 39 0 40 0;
#X connect 40 0 41 0;
#X connect 41 0 42 0;
#X connect 42 0 43 0;
#X connect 43 0 44 0;
#X connect 44 0 45 0;
#X connect 45 0 46 0;
#X connect 46 0 47 0;
#X connect 47 0 48 0;
#X connect 48 0 49 0;
#X connect 49 0 50 0;
#X connect 50 0 51 0;
#X connect 51 0 52 0;
#X connect 52 0 53 0;
#X connect 53 0 54 0;
#X connect 54 0 55 0;
#X connect 55 0 56 0;
#X connect 56 0 57 0;
#X connect 57 0 58 0;
#X connect 58 0 59 0;
#X connect 59 0 60 0;
#X connect 60 0 61 0;
#X connect 61 0 62 0;
#X connect 62 0 63 0;
#X connect 63 0 64 0;
#X connect 64 0 65 0;
#X connect 65 0 66 0;
#X connect 66 0 67 0;
#X connect 67 0 68 0;
#X connect 68 0 69 0;
#X connect 69 0 70 0;
#X connect 70 0 71 0;
#X connect 71 0 72 0;
#X connect 72 0 73 0;
#X connect 73 0 74 0;
#X connect 74 0 75 0;
#X connect 75 0 76 0;
#X connect 76 0 77 0;
#X connect 77 0 78 0;
#X connect 78 0 79 0;
#X connect 79 0 80 0;
#X connect 80 0 81 0;
#X connect 81 0 82 0;
#X connect 82 0 83 0;
#X connect 83 0 84 0;
#X connect 84 0 85 0;
#X connect 85 0 86 0;
#X connect 86 0 87 0;
#X connect 87 0 88 0;
#X connect 88 0 89 0;
#X connect 89 0 90 0;
#X connect 90 0 91 0;
#X connect 91 0 92 0;
#X connect 92 0 93 0;
#X connect 93 0 94 0;
#X connect 94 0 95 0;
#X connect 95 0 96 0;
#X connect 96 0 97 0;
#X connect 97 0 98 0;
#X connect 98 0 99 0;
#X connect 99 0 100 0;
#X connect 100 0 101 0;
#X connect 101 0 102 0;
#X connect 102 0 103 0;
#X connect 103 0 104 0;
#X connect 104 0 105 0;
#X connect 105 0 106 0;
#X connect 106 0 107 0;
#X connect 107 0 108 0;
#X connect 108 0 109 0;
#X connect 109 0 110 0;
#X connect 110 0 111 0;
#X connect 111 0 112 0;
#X connect 112 0 113 0;
#X connect 113 0 114 0;
#X connect 114 0 115 0;
#X connect 115 0 116 0;
#X connect 116 0 117 0;
#X connect 117 0 118 0;
#X connect 118 0 119 0;
#X connect 0 0 5 0;
#X connect 10 0 15 0;
#X connect 20 0 25 0;
#X connect 30 0 35 0;
#X connect 40 0 45 0;
#X connect 50 0 55 0;
#X connect 60 0 65 0;
#X connect 70 0 75 0;
#X connect 80 0 85 0;
#X connect 90 0 95 0;
#X connect 100 0 105 0;
