#N canvas 0 22 800 600 12;
#X obj 50 50 loadbang;
#N canvas 0 0 450 300 sub_a 0;
#X obj 50 50 inlet;
#X obj 50 100 + 10;
#X obj 50 150 outlet;
#X connect 0 0 1 0;
#X connect 1 0 2 0;
#X restore 50 100 pd sub_a;
#N canvas 0 0 450 300 sub_b 0;
#X obj 50 50 inlet;
#X obj 50 100 * 2;
#X obj 50 150 outlet;
#X connect 0 0 1 0;
#X connect 1 0 2 0;
#X restore 200 100 pd sub_b;
#X obj 50 200 print from_a;
#X obj 200 200 print from_b;
#X connect 0 0 1 0;
#X connect 0 0 2 0;
#X connect 1 0 3 0;
#X connect 2 0 4 0;
