#N canvas 0 22 450 300 12;
#X obj 50 50 loadbang;
#X obj 50 100 t b b b;
#X obj 50 150 s clock_main;
#X obj 150 150 s~ audio_bus;
#X obj 250 150 throw~ reverb_bus;
#X obj 50 250 r clock_main;
#X obj 150 250 r~ audio_bus;
#X obj 250 250 catch~ reverb_bus;
#X obj 50 300 print received;
#X connect 0 0 1 0;
#X connect 1 0 2 0;
#X connect 1 1 3 0;
#X connect 1 2 4 0;
#X connect 5 0 8 0;
