#N canvas 0 22 800 600 12;
#X obj 50 50 loadbang;
#N canvas 0 0 450 300 inner 0;
#X obj 50 50 inlet;
#X obj 50 100 + 1;
#X obj 50 150 outlet;
#X connect 0 0 1 0;
#X connect 1 0 2 0;
#X restore 50 100 pd inner;
#X obj 50 150 bang;
#X obj 50 200 print;
#X connect 0 0 1 0;
#X connect 1 0 2 0;
#X connect 2 0 3 0;
