#N canvas 0 22 500 400 12;
#X obj 50 50 loadbang;
#X obj 50 100 s foo;
#X obj 50 200 r foo;
#X obj 50 250 print downstream;
#X obj 250 50 osc~ 440;
#X obj 250 100 s~ audio;
#X obj 250 200 r~ audio;
#X obj 250 250 dac~;
#X obj 450 50 loadbang;
#X obj 450 100 s \$0-instance;
#X obj 450 200 r \$0-instance;
#X obj 450 250 print scoped;
#X connect 0 0 1 0;
#X connect 2 0 3 0;
#X connect 4 0 5 0;
#X connect 6 0 7 0;
#X connect 8 0 9 0;
#X connect 10 0 11 0;
