#N canvas 67 84 717 684 10;
#X declare -path pos_abs;
#X obj 83 12 inlet;
#X obj 128 12 declare -path pos_abs;
#X text 9 13 Trig value;
#X obj 161 165 r trigmutecolour;
#X msg 83 145 0;
#X obj 146 196 f;
#X obj 146 144 t b;
#X obj 83 87 t b;
#X obj 63 642 outlet;
#X obj 83 33 t f b, f 8;
#X connect 0 0 9 0;
#X connect 3 0 5 1;
#X connect 4 0 8 0;
#X connect 5 0 8 0;
#X connect 6 0 5 0;
#X connect 7 0 4 0;
